  0
SECTION
  2
HEADER
  9
$ACADVER
  1
AC1009
  9
$INSBASE
 10
0.0
 20
0.0
 30
0.0
  9
$EXTMIN
 10
0.0
 20
0.0
 30
0.0
  9
$EXTMAX
 10
0.0
 20
0.0
 30
0.0
  0
ENDSEC
  0
SECTION
  2
TABLES
  0
TABLE
  2
VPORT
 70
0
  0
ENDTAB
  0
TABLE
  2
LTYPE
 70
1
  0
LTYPE
  2
CONTINUOUS
 70
0
  3
Solid line
 72
65
 73
0
 40
0.0
  0
ENDTAB
  0
TABLE
  2
LAYER
 70
1
  0
LAYER
  2
0
 70
64
 62
7
  6
continuous
  0
ENDTAB
  0
TABLE
  2
STYLE
 70
1
  0
STYLE
  2
STANDARD
 70
0
 40
0
 41
1.0
 50
0.0
 71
0
 42
1
 3
ARIAL.TTF
 4

  0
ENDTAB
  0
TABLE
  2
VIEW
 70
0
  0
ENDTAB
  0
ENDSEC
  0
SECTION
  2
BLOCKS
  0
ENDSEC
  0
SECTION
  2
ENTITIES
  0
ARC
  8
0
 62
0
 10
1.6039375004674308
 20
9.926708217322323
 30
0.0
 40
0.019685039370079593
 50
90.00000000000065
 51
-180.0
  0
LINE
  8
0
 62
0
 10
1.6039375004674306
 20
9.395212154330197
 30
0.0
 11
2.1157485240894784
 21
9.395212154330197
 31
0.0
  0
ARC
  8
0
 62
0
 10
2.115748524089478
 20
9.926708217322323
 30
0.0
 40
0.01968503937007915
 50
-0.0
 51
89.99999999999872
  0
LINE
  8
0
 62
0
 10
1.5842524610973516
 20
9.926708217322323
 30
0.0
 11
1.5842524610973516
 21
9.414897193700277
 31
0.0
  0
ARC
  8
0
 62
0
 10
1.6039375004674308
 20
9.414897193700275
 30
0.0
 40
0.01968503937007915
 50
-180.0
 51
-90.00000000000065
  0
LINE
  8
0
 62
0
 10
2.135433563459557
 20
9.414897193700277
 30
0.0
 11
2.135433563459557
 21
9.926708217322323
 31
0.0
  0
LINE
  8
0
 62
0
 10
2.1157485240894784
 20
9.946393256692403
 30
0.0
 11
1.6039375004674306
 21
9.946393256692403
 31
0.0
  0
ARC
  8
0
 62
0
 10
2.115748524089478
 20
9.414897193700275
 30
0.0
 40
0.019685039370077817
 50
-89.99999999999872
 51
-0.0
  0
LINE
  8
0
 62
0
 10
14.078937500467433
 20
8.852397193700277
 30
0.0
 11
14.078937500467433
 21
9.364208217322323
 31
0.0
  0
LINE
  8
0
 62
0
 10
2.8031500988926283
 20
7.145212154330196
 30
0.0
 11
3.3149611225146756
 21
7.145212154330196
 31
0.0
  0
LINE
  8
0
 62
0
 10
3.615748524089479
 20
10.005464122834136
 30
0.0
 11
3.1039375004674317
 21
10.005464122834136
 31
0.0
  0
LINE
  8
0
 62
0
 10
13.914685531963496
 20
9.602397193700277
 30
0.0
 11
13.914685531963496
 21
10.114208217322323
 31
0.0
  0
ARC
  8
0
 62
0
 10
3.1043312012548343
 20
8.426708217322323
 30
0.0
 40
0.01968503937007826
 50
-0.0
 51
90.0000000000013
  0
LINE
  8
0
 62
0
 10
3.084252461097352
 20
9.985779083464056
 30
0.0
 11
3.084252461097352
 21
9.47396805984201
 31
0.0
  0
LINE
  8
0
 62
0
 10
3.3346461618847547
 20
7.164897193700272
 30
0.0
 11
3.3346461618847547
 21
7.676708217322319
 31
0.0
  0
ARC
  8
0
 62
0
 10
13.895000492593416
 20
10.114208217322327
 30
0.0
 40
0.019685039370079593
 50
-0.0
 51
89.99999999999484
  0
ARC
  8
0
 62
0
 10
2.5925201776327844
 20
8.426708217322323
 30
0.0
 40
0.019685039370077817
 50
89.99999999999872
 51
-180.0
  0
ARC
  8
0
 62
0
 10
2.565059547711526
 20
8.664897193700275
 30
0.0
 40
0.01968503937007915
 50
-180.0
 51
-90.0000000000013
  0
ARC
  8
0
 62
0
 10
3.314961122514674
 20
7.676708217322321
 30
0.0
 40
0.019685039370080926
 50
-0.0
 51
89.99999999999484
  0
LINE
  8
0
 62
0
 10
2.865748524089479
 20
9.946393256692403
 30
0.0
 11
2.3539375004674308
 21
9.946393256692403
 31
0.0
  0
ARC
  8
0
 62
0
 10
3.314961122514677
 20
7.1648971937002734
 30
0.0
 40
0.019685039370077817
 50
-90.00000000000388
 51
-0.0
  0
LINE
  8
0
 62
0
 10
13.363504429601297
 20
10.114208217322323
 30
0.0
 11
13.363504429601297
 21
9.602397193700277
 31
0.0
  0
LINE
  8
0
 62
0
 10
2.545374508341447
 20
9.176708217322323
 30
0.0
 11
2.545374508341447
 21
8.664897193700277
 31
0.0
  0
LINE
  8
0
 62
0
 10
13.54744143747531
 20
8.832712154330197
 30
0.0
 11
14.059252461097353
 21
8.832712154330197
 31
0.0
  0
ARC
  8
0
 62
0
 10
2.565059547711526
 20
9.176708217322323
 30
0.0
 40
0.019685039370079593
 50
90.0000000000013
 51
-180.0
  0
LINE
  8
0
 62
0
 10
2.5650595477115257
 20
8.645212154330197
 30
0.0
 11
3.0768705713335724
 21
8.645212154330197
 31
0.0
  0
ARC
  8
0
 62
0
 10
3.6157485240894767
 20
9.473968059842006
 30
0.0
 40
0.019685039370079593
 50
-89.99999999999353
 51
-0.0
  0
ARC
  8
0
 62
0
 10
2.803150098892627
 20
7.164897193700273
 30
0.0
 40
0.019685039370077373
 50
-180.0
 51
-89.99999999999612
  0
LINE
  8
0
 62
0
 10
13.38318946897138
 20
9.582712154330197
 30
0.0
 11
13.895000492593418
 21
9.582712154330197
 31
0.0
  0
ARC
  8
0
 62
0
 10
3.104331201254834
 20
7.914897193700275
 30
0.0
 40
0.019685039370078705
 50
-90.0
 51
-0.0
  0
ARC
  8
0
 62
0
 10
14.059252461097353
 20
9.364208217322323
 30
0.0
 40
0.019685039370079593
 50
-0.0
 51
90.0
  0
LINE
  8
0
 62
0
 10
3.1240162406249126
 20
7.914897193700275
 30
0.0
 11
3.1240162406249126
 21
8.426708217322323
 31
0.0
  0
ARC
  8
0
 62
0
 10
13.895000492593418
 20
9.602397193700275
 30
0.0
 40
0.019685039370077817
 50
-90.0
 51
-0.0
  0
LINE
  8
0
 62
0
 10
2.7834650595225496
 20
7.676708217322319
 30
0.0
 11
2.7834650595225496
 21
7.164897193700272
 31
0.0
  0
ARC
  8
0
 62
0
 10
2.353937500467431
 20
9.414897193700275
 30
0.0
 40
0.01968503937007915
 50
-180.0
 51
-90.0000000000013
  0
ARC
  8
0
 62
0
 10
2.8657485240894784
 20
9.926708217322323
 30
0.0
 40
0.019685039370079593
 50
-0.0
 51
89.99999999999872
  0
ARC
  8
0
 62
0
 10
3.1039375004674317
 20
9.985779083464058
 30
0.0
 40
0.019685039370077817
 50
90.0
 51
-180.0
  0
ARC
  8
0
 62
0
 10
2.592520177632785
 20
7.914897193700275
 30
0.0
 40
0.019685039370078705
 50
-180.0
 51
-90.0
  0
ARC
  8
0
 62
0
 10
2.80315009889263
 20
7.676708217322322
 30
0.0
 40
0.019685039370079593
 50
90.00000000000517
 51
-180.0
  0
LINE
  8
0
 62
0
 10
3.1039375004674317
 20
9.454283020471927
 30
0.0
 11
3.615748524089479
 21
9.454283020471927
 31
0.0
  0
LINE
  8
0
 62
0
 10
2.334252461097352
 20
9.926708217322323
 30
0.0
 11
2.334252461097352
 21
9.414897193700277
 31
0.0
  0
LINE
  8
0
 62
0
 10
3.0768705713335724
 20
9.196393256692403
 30
0.0
 11
2.5650595477115257
 21
9.196393256692403
 31
0.0
  0
ARC
  8
0
 62
0
 10
3.1039375004674334
 20
9.473968059842006
 30
0.0
 40
0.01968503937008137
 50
-180.0
 51
-90.00000000000517
  0
ARC
  8
0
 62
0
 10
2.8657485240894784
 20
9.414897193700275
 30
0.0
 40
0.019685039370077817
 50
-89.99999999999872
 51
-0.0
  0
ARC
  8
0
 62
0
 10
13.38318946897138
 20
10.114208217322325
 30
0.0
 40
0.01968503937008137
 50
90.0
 51
-180.0
  0
LINE
  8
0
 62
0
 10
2.592520177632785
 20
7.8952121543301965
 30
0.0
 11
3.104331201254834
 21
7.8952121543301965
 31
0.0
  0
ARC
  8
0
 62
0
 10
3.076870571333572
 20
8.664897193700275
 30
0.0
 40
0.019685039370077817
 50
-89.99999999999872
 51
-0.0
  0
LINE
  8
0
 62
0
 10
13.895000492593418
 20
10.133893256692406
 30
0.0
 11
13.38318946897138
 21
10.133893256692406
 31
0.0
  0
LINE
  8
0
 62
0
 10
3.104331201254834
 20
8.446393256692401
 30
0.0
 11
2.592520177632785
 21
8.446393256692401
 31
0.0
  0
ARC
  8
0
 62
0
 10
2.353937500467431
 20
9.926708217322323
 30
0.0
 40
0.019685039370079593
 50
90.0000000000013
 51
-180.0
  0
ARC
  8
0
 62
0
 10
3.076870571333572
 20
9.176708217322323
 30
0.0
 40
0.01968503937007915
 50
-0.0
 51
89.99999999999872
  0
ARC
  8
0
 62
0
 10
13.383189468971379
 20
9.602397193700277
 30
0.0
 40
0.01968503937008137
 50
-180.0
 51
-89.99999999999484
  0
LINE
  8
0
 62
0
 10
2.3539375004674308
 20
9.395212154330197
 30
0.0
 11
2.865748524089479
 21
9.395212154330197
 31
0.0
  0
LINE
  8
0
 62
0
 10
2.885433563459558
 20
9.414897193700277
 30
0.0
 11
2.885433563459558
 21
9.926708217322323
 31
0.0
  0
LINE
  8
0
 62
0
 10
2.572835138262706
 20
8.426708217322323
 30
0.0
 11
2.572835138262706
 21
7.914897193700275
 31
0.0
  0
LINE
  8
0
 62
0
 10
3.3149611225146756
 20
7.696393256692401
 30
0.0
 11
2.8031500988926283
 21
7.696393256692401
 31
0.0
  0
ARC
  8
0
 62
0
 10
14.059252461097353
 20
8.852397193700275
 30
0.0
 40
0.019685039370077817
 50
-90.0
 51
-0.0
  0
LINE
  8
0
 62
0
 10
3.096555610703651
 20
8.664897193700277
 30
0.0
 11
3.096555610703651
 21
9.176708217322323
 31
0.0
  0
LINE
  8
0
 62
0
 10
3.6354335634595576
 20
9.47396805984201
 30
0.0
 11
3.6354335634595576
 21
9.985779083464056
 31
0.0
  0
ARC
  8
0
 62
0
 10
3.6157485240894784
 20
9.985779083464058
 30
0.0
 40
0.01968503937007915
 50
-0.0
 51
89.99999999999872
  0
LINE
  8
0
 62
0
 10
13.695866634325702
 20
6.739188532282949
 30
0.0
 11
13.695866634325702
 21
6.227377508660902
 31
0.0
  0
LINE
  8
0
 62
0
 10
14.247047736687906
 20
6.227377508660902
 30
0.0
 11
14.247047736687906
 21
6.739188532282949
 31
0.0
  0
LINE
  8
0
 62
0
 10
13.49704773668791
 20
6.977397193700272
 30
0.0
 11
13.49704773668791
 21
7.4892082173223224
 31
0.0
  0
ARC
  8
0
 62
0
 10
13.477362697317831
 20
7.489208217322323
 30
0.0
 40
0.019685039370077817
 50
-0.0
 51
90.0
  0
LINE
  8
0
 62
0
 10
14.059252461097353
 20
9.383893256692403
 30
0.0
 11
13.54744143747531
 21
9.383893256692403
 31
0.0
  0
LINE
  8
0
 62
0
 10
13.52775639810523
 20
9.364208217322323
 30
0.0
 11
13.52775639810523
 21
8.852397193700277
 31
0.0
  0
ARC
  8
0
 62
0
 10
12.965551673695783
 20
7.489208217322323
 30
0.0
 40
0.019685039370077817
 50
90.0
 51
-180.0
  0
ARC
  8
0
 62
0
 10
14.227362697317831
 20
8.102397193700272
 30
0.0
 40
0.019685039370074264
 50
-89.99999999999484
 51
-0.0
  0
LINE
  8
0
 62
0
 10
14.247047736687906
 20
8.102397193700275
 30
0.0
 11
14.247047736687906
 21
8.614208217322323
 31
0.0
  0
ARC
  8
0
 62
0
 10
14.227362697317831
 20
6.227377508660898
 30
0.0
 40
0.019685039370075152
 50
-89.99999999999484
 51
-0.0
  0
LINE
  8
0
 62
0
 10
12.965551673695783
 20
6.9577121543301965
 30
0.0
 11
13.477362697317831
 21
6.9577121543301965
 31
0.0
  0
ARC
  8
0
 62
0
 10
13.477362697317833
 20
6.9773971937002734
 30
0.0
 40
0.01968503937007693
 50
-90.00000000000517
 51
-0.0
  0
LINE
  8
0
 62
0
 10
14.227362697317833
 20
6.7588735716530275
 30
0.0
 11
13.715551673695787
 21
6.7588735716530275
 31
0.0
  0
LINE
  8
0
 62
0
 10
13.695866634325702
 20
8.614208217322323
 30
0.0
 11
13.695866634325702
 21
8.102397193700275
 31
0.0
  0
ARC
  8
0
 62
0
 10
14.227362697317831
 20
6.7391885322829514
 30
0.0
 40
0.019685039370074264
 50
-0.0
 51
89.99999999999484
  0
ARC
  8
0
 62
0
 10
13.547441437475308
 20
8.852397193700275
 30
0.0
 40
0.019685039370077817
 50
-180.0
 51
-89.99999999999484
  0
LINE
  8
0
 62
0
 10
13.715551673695787
 20
6.207692469290823
 30
0.0
 11
14.227362697317833
 21
6.207692469290823
 31
0.0
  0
ARC
  8
0
 62
0
 10
14.227362697317833
 20
8.614208217322325
 30
0.0
 40
0.019685039370072488
 50
-0.0
 51
90.0
  0
LINE
  8
0
 62
0
 10
14.227362697317833
 20
8.633893256692398
 30
0.0
 11
13.715551673695787
 21
8.633893256692398
 31
0.0
  0
ARC
  8
0
 62
0
 10
13.547441437475308
 20
9.364208217322323
 30
0.0
 40
0.019685039370079593
 50
89.99999999999484
 51
-180.0
  0
LINE
  8
0
 62
0
 10
13.715551673695787
 20
8.082712154330197
 30
0.0
 11
14.227362697317833
 21
8.082712154330197
 31
0.0
  0
LINE
  8
0
 62
0
 10
13.477362697317831
 20
7.508893256692401
 30
0.0
 11
12.965551673695783
 21
7.508893256692401
 31
0.0
  0
ARC
  8
0
 62
0
 10
13.715551673695781
 20
8.614208217322318
 30
0.0
 40
0.019685039370079593
 50
89.9999999999845
 51
-180.0
  0
ARC
  8
0
 62
0
 10
13.715551673695783
 20
8.102397193700279
 30
0.0
 40
0.01968503937008137
 50
-180.0
 51
-89.99999999998965
  0
ARC
  8
0
 62
0
 10
13.715551673695783
 20
6.739188532282945
 30
0.0
 40
0.019685039370082258
 50
89.99999999998965
 51
-180.0
  0
ARC
  8
0
 62
0
 10
13.715551673695783
 20
6.227377508660904
 30
0.0
 40
0.01968503937008137
 50
-180.0
 51
-89.99999999998965
  0
LINE
  8
0
 62
0
 10
11.996457185506806
 20
9.196393256692403
 30
0.0
 11
11.48464616188476
 21
9.196393256692403
 31
0.0
  0
ARC
  8
0
 62
0
 10
11.484646161884756
 20
9.17670821732232
 30
0.0
 40
0.019685039370083146
 50
89.99999999998965
 51
-180.0
  0
ARC
  8
0
 62
0
 10
11.090551673695783
 20
7.914897193700276
 30
0.0
 40
0.019685039370079593
 50
-180.0
 51
-90.0
  0
LINE
  8
0
 62
0
 10
13.49704773668791
 20
6.227377508660902
 30
0.0
 11
13.49704773668791
 21
6.739188532282949
 31
0.0
  0
LINE
  8
0
 62
0
 10
11.464961122514675
 20
9.176708217322323
 30
0.0
 11
11.464961122514675
 21
8.664897193700277
 31
0.0
  0
ARC
  8
0
 62
0
 10
11.090551673695783
 20
8.426708217322323
 30
0.0
 40
0.019685039370077817
 50
90.0
 51
-180.0
  0
ARC
  8
0
 62
0
 10
10.715551673695783
 20
7.164897193700273
 30
0.0
 40
0.01968503937007604
 50
-180.0
 51
-89.99999999999484
  0
LINE
  8
0
 62
0
 10
12.1958666343257
 20
6.739188532282949
 30
0.0
 11
12.1958666343257
 21
6.227377508660902
 31
0.0
  0
LINE
  8
0
 62
0
 10
11.602362697317826
 20
8.446393256692401
 30
0.0
 11
11.090551673695783
 21
8.446393256692401
 31
0.0
  0
LINE
  8
0
 62
0
 10
11.090551673695783
 20
7.8952121543301965
 30
0.0
 11
11.602362697317826
 21
7.8952121543301965
 31
0.0
  0
LINE
  8
0
 62
0
 10
10.715551673695785
 20
7.145212154330196
 30
0.0
 11
11.227362697317833
 21
7.145212154330196
 31
0.0
  0
LINE
  8
0
 62
0
 10
12.965551673695783
 20
6.207692469290823
 30
0.0
 11
13.477362697317831
 21
6.207692469290823
 31
0.0
  0
ARC
  8
0
 62
0
 10
10.852362697317828
 20
8.422420815747518
 30
0.0
 40
0.019685039370079593
 50
-0.0
 51
90.00000000001035
  0
LINE
  8
0
 62
0
 10
10.852362697317824
 20
8.442105855117598
 30
0.0
 11
10.340551673695778
 21
8.442105855117598
 31
0.0
  0
ARC
  8
0
 62
0
 10
10.852362697317826
 20
7.910609792125473
 30
0.0
 40
0.019685039370082258
 50
-90.00000000000517
 51
-0.0
  0
ARC
  8
0
 62
0
 10
10.715551673695787
 20
7.676708217322322
 30
0.0
 40
0.019685039370079593
 50
90.00000000000517
 51
-180.0
  0
LINE
  8
0
 62
0
 10
10.695866634325707
 20
7.676708217322319
 30
0.0
 11
10.695866634325707
 21
7.164897193700272
 31
0.0
  0
ARC
  8
0
 62
0
 10
12.965551673695781
 20
6.9773971937002734
 30
0.0
 40
0.01968503937007604
 50
-180.0
 51
-89.99999999999484
  0
ARC
  8
0
 62
0
 10
11.22736269731783
 20
7.676708217322323
 30
0.0
 40
0.019685039370077817
 50
-0.0
 51
89.99999999998965
  0
LINE
  8
0
 62
0
 10
12.74704773668791
 20
6.227377508660902
 30
0.0
 11
12.74704773668791
 21
6.739188532282949
 31
0.0
  0
LINE
  8
0
 62
0
 10
12.215551673695783
 20
6.207692469290823
 30
0.0
 11
12.72736269731783
 21
6.207692469290823
 31
0.0
  0
LINE
  8
0
 62
0
 10
11.247047736687907
 20
7.164897193700272
 30
0.0
 11
11.247047736687907
 21
7.676708217322319
 31
0.0
  0
LINE
  8
0
 62
0
 10
12.945866634325705
 20
6.739188532282949
 30
0.0
 11
12.945866634325705
 21
6.227377508660902
 31
0.0
  0
LINE
  8
0
 62
0
 10
11.48464616188476
 20
8.645212154330197
 30
0.0
 11
11.996457185506806
 21
8.645212154330197
 31
0.0
  0
LINE
  8
0
 62
0
 10
12.016142224876885
 20
8.664897193700277
 30
0.0
 11
12.016142224876885
 21
9.176708217322323
 31
0.0
  0
LINE
  8
0
 62
0
 10
10.320866634325704
 20
8.42242081574752
 30
0.0
 11
10.320866634325704
 21
7.910609792125472
 31
0.0
  0
ARC
  8
0
 62
0
 10
11.996457185506808
 20
8.664897193700275
 30
0.0
 40
0.019685039370077817
 50
-90.00000000000517
 51
-0.0
  0
ARC
  8
0
 62
0
 10
10.340551673695781
 20
7.910609792125468
 30
0.0
 40
0.019685039370077817
 50
-180.0
 51
-90.00000000001035
  0
ARC
  8
0
 62
0
 10
12.727362697317831
 20
6.227377508660902
 30
0.0
 40
0.019685039370078705
 50
-90.00000000000517
 51
-0.0
  0
LINE
  8
0
 62
0
 10
12.72736269731783
 20
6.7588735716530275
 30
0.0
 11
12.215551673695783
 21
6.7588735716530275
 31
0.0
  0
ARC
  8
0
 62
0
 10
11.602362697317828
 20
7.914897193700278
 30
0.0
 40
0.01968503937008137
 50
-90.00000000000517
 51
-0.0
  0
ARC
  8
0
 62
0
 10
11.484646161884756
 20
8.664897193700279
 30
0.0
 40
0.01968503937008137
 50
-180.0
 51
-89.99999999998965
  0
ARC
  8
0
 62
0
 10
11.246457185506806
 20
8.664897193700275
 30
0.0
 40
0.019685039370077817
 50
-90.0
 51
-0.0
  0
LINE
  8
0
 62
0
 10
10.872047736687907
 20
7.910609792125472
 30
0.0
 11
10.872047736687907
 21
8.42242081574752
 31
0.0
  0
LINE
  8
0
 62
0
 10
10.734646161884754
 20
8.645212154330197
 30
0.0
 11
11.246457185506806
 21
8.645212154330197
 31
0.0
  0
ARC
  8
0
 62
0
 10
13.477362697317831
 20
6.227377508660901
 30
0.0
 40
0.019685039370077817
 50
-90.0
 51
-0.0
  0
ARC
  8
0
 62
0
 10
12.21555167369578
 20
6.227377508660903
 30
0.0
 40
0.019685039370079593
 50
-180.0
 51
-89.99999999998965
  0
ARC
  8
0
 62
0
 10
12.965551673695783
 20
6.227377508660901
 30
0.0
 40
0.019685039370077817
 50
-180.0
 51
-90.0
  0
ARC
  8
0
 62
0
 10
12.21555167369578
 20
6.739188532282946
 30
0.0
 40
0.01968503937008137
 50
89.99999999998965
 51
-180.0
  0
ARC
  8
0
 62
0
 10
12.727362697317831
 20
6.739188532282948
 30
0.0
 40
0.019685039370077817
 50
-0.0
 51
90.00000000000517
  0
LINE
  8
0
 62
0
 10
12.945866634325705
 20
7.4892082173223224
 30
0.0
 11
12.945866634325705
 21
6.977397193700272
 31
0.0
  0
LINE
  8
0
 62
0
 10
11.62204773668791
 20
7.914897193700275
 30
0.0
 11
11.62204773668791
 21
8.426708217322323
 31
0.0
  0
ARC
  8
0
 62
0
 10
11.227362697317833
 20
7.164897193700271
 30
0.0
 40
0.019685039370075152
 50
-90.0
 51
-0.0
  0
ARC
  8
0
 62
0
 10
10.34055167369578
 20
8.422420815747522
 30
0.0
 40
0.01968503937007604
 50
90.00000000000517
 51
-180.0
  0
ARC
  8
0
 62
0
 10
11.996457185506808
 20
9.176708217322323
 30
0.0
 40
0.019685039370077817
 50
-0.0
 51
90.00000000000517
  0
LINE
  8
0
 62
0
 10
11.227362697317833
 20
7.696393256692401
 30
0.0
 11
10.715551673695785
 21
7.696393256692401
 31
0.0
  0
ARC
  8
0
 62
0
 10
12.965551673695783
 20
6.739188532282949
 30
0.0
 40
0.019685039370078705
 50
90.0
 51
-180.0
  0
ARC
  8
0
 62
0
 10
13.477362697317831
 20
6.739188532282949
 30
0.0
 40
0.019685039370077817
 50
-0.0
 51
90.0
  0
LINE
  8
0
 62
0
 10
10.340551673695778
 20
7.8909247527553905
 30
0.0
 11
10.852362697317824
 21
7.8909247527553905
 31
0.0
  0
LINE
  8
0
 62
0
 10
13.477362697317831
 20
6.7588735716530275
 30
0.0
 11
12.965551673695783
 21
6.7588735716530275
 31
0.0
  0
LINE
  8
0
 62
0
 10
11.070866634325704
 20
8.426708217322323
 30
0.0
 11
11.070866634325704
 21
7.914897193700275
 31
0.0
  0
ARC
  8
0
 62
0
 10
11.602362697317828
 20
8.426708217322322
 30
0.0
 40
0.01968503937008137
 50
-0.0
 51
90.00000000000517
  0
LINE
  8
0
 62
0
 10
11.266142224876884
 20
8.664897193700277
 30
0.0
 11
11.266142224876884
 21
9.176708217322323
 31
0.0
  0
LINE
  8
0
 62
0
 10
10.707480807554045
 20
10.005464122834136
 30
0.0
 11
10.195669783932003
 21
10.005464122834136
 31
0.0
  0
ARC
  8
0
 62
0
 10
12.207480807554049
 20
9.414897193700275
 30
0.0
 40
0.019685039370077817
 50
-90.0
 51
-0.0
  0
ARC
  8
0
 62
0
 10
10.195669783932003
 20
9.985779083464058
 30
0.0
 40
0.019685039370077817
 50
90.0
 51
-180.0
  0
ARC
  8
0
 62
0
 10
11.457480807554049
 20
9.926708217322325
 30
0.0
 40
0.01968503937007604
 50
-0.0
 51
89.99999999999484
  0
LINE
  8
0
 62
0
 10
11.45748080755405
 20
9.946393256692403
 30
0.0
 11
10.945669783932003
 21
9.946393256692403
 31
0.0
  0
ARC
  8
0
 62
0
 10
12.207480807554049
 20
9.926708217322323
 30
0.0
 40
0.019685039370077817
 50
-0.0
 51
90.0
  0
ARC
  8
0
 62
0
 10
10.195669783932004
 20
9.473968059842006
 30
0.0
 40
0.01968503937008137
 50
-180.0
 51
-90.00000000000517
  0
LINE
  8
0
 62
0
 10
10.925984744561923
 20
9.926708217322323
 30
0.0
 11
10.925984744561923
 21
9.414897193700277
 31
0.0
  0
ARC
  8
0
 62
0
 10
10.945669783932003
 20
9.926708217322323
 30
0.0
 40
0.019685039370079593
 50
90.0
 51
-180.0
  0
ARC
  8
0
 62
0
 10
11.246457185506806
 20
9.176708217322323
 30
0.0
 40
0.019685039370077817
 50
-0.0
 51
90.0
  0
LINE
  8
0
 62
0
 10
10.714961122514675
 20
9.176708217322323
 30
0.0
 11
10.714961122514675
 21
8.664897193700277
 31
0.0
  0
LINE
  8
0
 62
0
 10
12.227165846924127
 20
9.414897193700277
 30
0.0
 11
12.227165846924127
 21
9.926708217322323
 31
0.0
  0
LINE
  8
0
 62
0
 10
11.246457185506806
 20
9.196393256692403
 30
0.0
 11
10.734646161884754
 21
9.196393256692403
 31
0.0
  0
LINE
  8
0
 62
0
 10
10.195669783932003
 20
9.454283020471927
 30
0.0
 11
10.707480807554045
 21
9.454283020471927
 31
0.0
  0
ARC
  8
0
 62
0
 10
10.707480807554045
 20
9.985779083464058
 30
0.0
 40
0.019685039370077817
 50
-0.0
 51
90.0
  0
LINE
  8
0
 62
0
 10
10.175984744561923
 20
9.985779083464056
 30
0.0
 11
10.175984744561923
 21
9.47396805984201
 31
0.0
  0
LINE
  8
0
 62
0
 10
11.477165846924125
 20
9.414897193700277
 30
0.0
 11
11.477165846924125
 21
9.926708217322323
 31
0.0
  0
ARC
  8
0
 62
0
 10
10.945669783932003
 20
9.414897193700275
 30
0.0
 40
0.019685039370079593
 50
-180.0
 51
-90.0
  0
ARC
  8
0
 62
0
 10
10.734646161884752
 20
9.176708217322323
 30
0.0
 40
0.019685039370079593
 50
89.99999999999484
 51
-180.0
  0
ARC
  8
0
 62
0
 10
10.734646161884752
 20
8.664897193700275
 30
0.0
 40
0.019685039370077817
 50
-180.0
 51
-89.99999999999484
  0
LINE
  8
0
 62
0
 10
10.727165846924123
 20
9.47396805984201
 30
0.0
 11
10.727165846924123
 21
9.985779083464056
 31
0.0
  0
LINE
  8
0
 62
0
 10
10.945669783932003
 20
9.395212154330197
 30
0.0
 11
11.45748080755405
 21
9.395212154330197
 31
0.0
  0
ARC
  8
0
 62
0
 10
11.457480807554049
 20
9.414897193700273
 30
0.0
 40
0.01968503937007604
 50
-89.99999999999484
 51
-0.0
  0
ARC
  8
0
 62
0
 10
10.707480807554044
 20
9.473968059842006
 30
0.0
 40
0.019685039370079593
 50
-89.99999999999484
 51
-0.0
  0
LINE
  8
0
 62
0
 10
11.695669783932
 20
9.395212154330197
 30
0.0
 11
12.207480807554049
 21
9.395212154330197
 31
0.0
  0
LINE
  8
0
 62
0
 10
4.054063896691699
 20
8.535752025121859
 30
0.0
 11
4.554690621476714
 21
8.429340529821435
 31
0.0
  0
ARC
  8
0
 62
0
 10
4.7917393236763015
 20
8.39907382828591
 30
0.0
 40
0.01968503937007881
 50
168.0000000000017
 51
-102.00000000000138
  0
ARC
  8
0
 62
0
 10
3.4584067244885386
 20
8.43897614362211
 30
0.0
 40
0.01968503937007813
 50
77.99999999999864
 51
167.99999999999608
  0
ARC
  8
0
 62
0
 10
6.15452877173263
 20
9.399413151496129
 30
0.0
 40
0.019685039370076204
 50
78.00000000000009
 51
168.00000000000009
  0
ARC
  8
0
 62
0
 10
3.9590334492735586
 20
8.332564648321682
 30
0.0
 40
0.019685039370076703
 50
-11.999999999994326
 51
78.0000000000026
  0
ARC
  8
0
 62
0
 10
5.292366048461321
 20
8.292662332985483
 30
0.0
 40
0.01968503937007639
 50
-102.00000000000246
 51
-11.999999999999925
  0
LINE
  8
0
 62
0
 10
3.8718768280033227
 20
7.827845173717409
 30
0.0
 11
3.97828832330375
 21
8.328471898502437
 31
0.0
  0
LINE
  8
0
 62
0
 10
3.3479024793688628
 20
7.919094544806898
 30
0.0
 11
3.8485292041538846
 21
7.8126830495064725
 31
0.0
  0
LINE
  8
0
 62
0
 10
4.696729784538746
 20
8.195892206587516
 30
0.0
 11
4.196103059753726
 21
8.302303701887942
 31
0.0
  0
ARC
  8
0
 62
0
 10
5.3987775437617485
 20
8.793289057770501
 30
0.0
 40
0.019685039370076703
 50
-11.999999999994326
 51
78.00000000000009
  0
ARC
  8
0
 62
0
 10
6.025988468070795
 20
8.136731014022903
 30
0.0
 40
0.019685039370076575
 50
-102.00000000000497
 51
-11.999999999999925
  0
LINE
  8
0
 62
0
 10
5.402870293580995
 20
8.812543931800693
 30
0.0
 11
4.902243568795975
 21
8.918955427101123
 31
0.0
  0
LINE
  8
0
 62
0
 10
4.787646573857054
 20
8.379818954255716
 30
0.0
 11
5.288273298642073
 21
8.273407458955292
 31
0.0
  0
ARC
  8
0
 62
0
 10
3.9315688823444273
 20
9.105159136510663
 30
0.0
 40
0.01968503937007527
 50
-12.00000000000577
 51
77.99999999999649
  0
LINE
  8
0
 62
0
 10
5.521268993466526
 20
8.223887635293142
 30
0.0
 11
6.021895718251547
 21
8.117476139992712
 31
0.0
  0
LINE
  8
0
 62
0
 10
6.136492713190467
 20
8.656612612838119
 30
0.0
 11
5.635865988405448
 21
8.763024108138543
 31
0.0
  0
ARC
  8
0
 62
0
 10
4.058156646510947
 20
8.555006899152051
 30
0.0
 40
0.01968503937007918
 50
167.99999999999662
 51
-102.00000000000391
  0
LINE
  8
0
 62
0
 10
5.548748936061778
 20
7.451291395200598
 30
0.0
 11
6.049375660846799
 21
7.344879899900166
 31
0.0
  0
ARC
  8
0
 62
0
 10
3.3245306622589776
 20
8.710943907026067
 30
0.0
 40
0.01968503937007918
 50
167.99999999999662
 51
-102.0000000000003
  0
LINE
  8
0
 62
0
 10
5.639998307151263
 20
7.97526574383506
 30
0.0
 11
5.533586811850834
 21
7.474639019050039
 31
0.0
  0
LINE
  8
0
 62
0
 10
3.963126199092805
 20
8.351819522351875
 30
0.0
 11
3.462499474307786
 21
8.458231017652302
 31
0.0
  0
LINE
  8
0
 62
0
 10
3.935661632163675
 20
9.124414010540852
 30
0.0
 11
3.435034907378653
 21
9.230825505841281
 31
0.0
  0
ARC
  8
0
 62
0
 10
4.558783371295966
 20
8.44859540385163
 30
0.0
 40
0.01968503937008234
 50
-102.00000000000934
 51
-12.000000000011859
  0
LINE
  8
0
 62
0
 10
5.311620922491511
 20
8.288569583166236
 30
0.0
 11
5.41803241779194
 21
8.789196307951256
 31
0.0
  0
LINE
  8
0
 62
0
 10
5.612518364556007
 20
8.7478619839276
 30
0.0
 11
5.506106869255581
 21
8.247235259142583
 31
0.0
  0
LINE
  8
0
 62
0
 10
6.659248246336901
 20
9.312256530225891
 30
0.0
 11
6.1586215215518765
 21
9.418668025526319
 31
0.0
  0
ARC
  8
0
 62
0
 10
4.085598814634048
 20
7.7824221030727285
 30
0.0
 40
0.019685039370073043
 50
168.00000000000608
 51
-101.99999999999142
  0
ARC
  8
0
 62
0
 10
3.825157387043994
 20
8.604532411725641
 30
0.0
 40
0.019685039370081325
 50
-101.99999999999544
 51
-11.999999999996712
  0
ARC
  8
0
 62
0
 10
6.13239996337122
 20
8.637357738807925
 30
0.0
 40
0.019685039370077942
 50
-11.999999999998854
 51
77.99999999999864
  0
LINE
  8
0
 62
0
 10
4.878895944946538
 20
8.903793302890177
 30
0.0
 11
4.772484449646108
 21
8.403166578105157
 31
0.0
  0
ARC
  8
0
 62
0
 10
4.898150818976729
 20
8.899700553070932
 30
0.0
 40
0.01968503937007602
 50
78.0000000000026
 51
168.00000000000512
  0
LINE
  8
0
 62
0
 10
3.411687283529214
 20
9.215663381630335
 30
0.0
 11
3.3052757882287844
 21
8.715036656845315
 31
0.0
  0
ARC
  8
0
 62
0
 10
4.1645681418113725
 20
9.055633623937073
 30
0.0
 40
0.01968503937007813
 50
77.99999999999864
 51
168.00000000000117
  0
ARC
  8
0
 62
0
 10
3.351995229188111
 20
7.938349418837091
 30
0.0
 40
0.01968503937007918
 50
167.99999999999662
 51
-102.00000000000338
  0
LINE
  8
0
 62
0
 10
6.13527389770244
 20
9.403505901315375
 30
0.0
 11
6.028862402402014
 21
8.902879176530355
 31
0.0
  0
ARC
  8
0
 62
0
 10
3.4309421575594063
 20
9.211570631811089
 30
0.0
 40
0.019685039370077942
 50
78.00000000000115
 51
168.00000000000117
  0
LINE
  8
0
 62
0
 10
4.57803824532616
 20
8.444502654032378
 30
0.0
 11
4.684449740626588
 21
8.945129378817395
 31
0.0
  0
ARC
  8
0
 62
0
 10
4.692637034719499
 20
8.176637332557323
 30
0.0
 40
0.019685039370078313
 50
-12.000000000003935
 51
77.99999999999864
  0
ARC
  8
0
 62
0
 10
3.8526219539731352
 20
7.8319379235366595
 30
0.0
 40
0.01968503937007356
 50
-102.00000000001346
 51
-12.000000000012163
  0
ARC
  8
0
 62
0
 10
4.586225539419072
 20
7.676010607772297
 30
0.0
 40
0.019685039370077075
 50
-101.99999999999937
 51
-11.999999999999405
  0
LINE
  8
0
 62
0
 10
3.32043791243973
 20
8.691689032995875
 30
0.0
 11
3.821064637224748
 21
8.585277537695445
 31
0.0
  0
ARC
  8
0
 62
0
 10
6.053468410666042
 20
7.3641347739303615
 30
0.0
 40
0.01968503937008068
 50
-101.99999999998658
 51
-11.999999999986585
  0
LINE
  8
0
 62
0
 10
4.66928761641564
 20
8.968477002666836
 30
0.0
 11
4.16866089163062
 21
9.074888497967265
 31
0.0
  0
ARC
  8
0
 62
0
 10
4.665194866596393
 20
8.94922212863664
 30
0.0
 40
0.019685039370080176
 50
-11.999999999992154
 51
78.00000000000223
  0
ARC
  8
0
 62
0
 10
5.6317732385862
 20
8.743769234108353
 30
0.0
 40
0.019685039370076575
 50
77.99999999999503
 51
168.00000000000009
  0
LINE
  8
0
 62
0
 10
3.439151850458347
 20
8.443068893441358
 30
0.0
 11
3.332740355157918
 21
7.942442168656339
 31
0.0
  0
LINE
  8
0
 62
0
 10
3.8444122610741895
 20
8.600439661906394
 30
0.0
 11
3.9508237563746165
 21
9.101066386691414
 31
0.0
  0
LINE
  8
0
 62
0
 10
4.145313267781179
 20
9.05972637375632
 30
0.0
 11
4.038901772480754
 21
8.5590996489713
 31
0.0
  0
ARC
  8
0
 62
0
 10
5.525361743285774
 20
8.243142509323334
 30
0.0
 40
0.019685039370078313
 50
167.99999999999608
 51
-102.00000000000138
  0
ARC
  8
0
 62
0
 10
4.192010309934479
 20
8.28304882785775
 30
0.0
 40
0.01968503937007813
 50
77.99999999999864
 51
168.00000000000117
  0
ARC
  8
0
 62
0
 10
6.048117276432207
 20
8.898786426711109
 30
0.0
 40
0.01968503937007881
 50
168.0000000000017
 51
-102.00000000000138
  0
LINE
  8
0
 62
0
 10
6.045243342100988
 20
8.132638264203656
 30
0.0
 11
6.151654837401412
 21
8.633264988988678
 31
0.0
  0
ARC
  8
0
 62
0
 10
4.29646373312512
 20
6.9708376078134675
 30
0.0
 40
0.019685039370078313
 50
167.99999999999608
 51
-102.00000000000138
  0
LINE
  8
0
 62
0
 10
3.5587725581090206
 20
7.107515804649412
 30
0.0
 11
4.0593992828940415
 21
7.0011043093489915
 31
0.0
  0
LINE
  8
0
 62
0
 10
4.906376259907164
 20
8.1311988147012
 30
0.0
 11
4.799964764606739
 21
7.630572089916181
 31
0.0
  0
ARC
  8
0
 62
0
 10
12.445669783932006
 20
9.926708217322323
 30
0.0
 40
0.019685039370079593
 50
90.0
 51
-180.0
  0
LINE
  8
0
 62
0
 10
3.8431780699200475
 20
9.34733076527934
 30
0.0
 11
4.343804794705065
 21
9.240919269978914
 31
0.0
  0
ARC
  8
0
 62
0
 10
8.390917607054394
 20
9.555380395574813
 30
0.0
 40
0.019685039370077203
 50
11.999999999988727
 51
101.99999999998873
  0
LINE
  8
0
 62
0
 10
6.061730590615826
 20
6.352127948559464
 30
0.0
 11
5.9553190953154
 21
5.851501223774448
 31
0.0
  0
LINE
  8
0
 62
0
 10
6.374838797518003
 20
7.072437632588099
 30
0.0
 11
5.874212072732984
 21
7.178849127888523
 31
0.0
  0
ARC
  8
0
 62
0
 10
5.870119322913736
 20
7.159594253858331
 30
0.0
 40
0.019685039370078313
 50
77.9999999999961
 51
167.99999999999858
  0
ARC
  8
0
 62
0
 10
6.581612189431041
 20
6.24162370343979
 30
0.0
 40
0.019685039370075336
 50
-12.000000000000476
 51
78.0000000000046
  0
ARC
  8
0
 62
0
 10
6.370746047698755
 20
7.053182758557907
 30
0.0
 40
0.019685039370079364
 50
-12.000000000005892
 51
77.99999999999663
  0
ARC
  8
0
 62
0
 10
12.95748080755405
 20
9.926708217322323
 30
0.0
 40
0.019685039370077817
 50
-0.0
 51
90.00000000000517
  0
ARC
  8
0
 62
0
 10
5.081499906729036
 20
9.104241073142962
 30
0.0
 40
0.01968503937007602
 50
-101.9999999999974
 51
-11.999999999994877
  0
LINE
  8
0
 62
0
 10
5.100754780759227
 20
9.100148323323717
 30
0.0
 11
5.207166276059657
 21
9.600775048108734
 31
0.0
  0
ARC
  8
0
 62
0
 10
12.95748080755405
 20
9.414897193700275
 30
0.0
 40
0.019685039370077817
 50
-90.00000000000517
 51
-0.0
  0
LINE
  8
0
 62
0
 10
8.000795127389052
 20
8.92908730145917
 30
0.0
 11
8.50142185217407
 21
9.0354987967596
 31
0.0
  0
LINE
  8
0
 62
0
 10
3.93442744100953
 20
9.8713051139138
 30
0.0
 11
3.8280159457091
 21
9.37067838912878
 31
0.0
  0
LINE
  8
0
 62
0
 10
7.653202809991055
 20
9.418698261730988
 30
0.0
 11
7.152576085206035
 21
9.31228676643056
 31
0.0
  0
LINE
  8
0
 62
0
 10
5.430350608541625
 20
8.039949443611716
 30
0.0
 11
4.929723883756605
 21
8.146360938912146
 31
0.0
  0
LINE
  8
0
 62
0
 10
5.759615077794062
 20
6.639712655043117
 30
0.0
 11
6.260241802579074
 21
6.533301159742688
 31
0.0
  0
ARC
  8
0
 62
0
 10
4.063492032713289
 20
7.020359183379185
 30
0.0
 40
0.019685039370078997
 50
-102.00000000000084
 51
-12.000000000000842
  0
ARC
  8
0
 62
0
 10
5.530714018341329
 20
6.708500159885757
 30
0.0
 40
0.019685039370075336
 50
-102.00000000000045
 51
-11.999999999997938
  0
LINE
  8
0
 62
0
 10
6.494455568160807
 20
5.736904228835522
 30
0.0
 11
6.600867063461231
 21
6.237530953620543
 31
0.0
  0
LINE
  8
0
 62
0
 10
7.267173080144956
 20
8.773150293585154
 30
0.0
 11
7.767799804929977
 21
8.87956178888558
 31
0.0
  0
LINE
  8
0
 62
0
 10
4.9075947030298135
 20
7.384307711328252
 30
0.0
 11
4.4069679782447935
 21
7.490719206628682
 31
0.0
  0
ARC
  8
0
 62
0
 10
5.030087293556309
 20
6.814911655186184
 30
0.0
 40
0.019685039370078313
 50
167.99999999999608
 51
-102.00000000000138
  0
ARC
  8
0
 62
0
 10
3.5628653079282717
 20
7.126770678679607
 30
0.0
 40
0.01968503937008147
 50
167.99999999999014
 51
-102.00000000000988
  0
ARC
  8
0
 62
0
 10
7.890290882269375
 20
9.448968900274382
 30
0.0
 40
0.019685039370079496
 50
101.99999999999524
 51
-168.00000000000222
  0
ARC
  8
0
 62
0
 10
4.797090457910138
 20
6.864426112513041
 30
0.0
 40
0.01968503937008042
 50
-102.00000000000789
 51
-12.000000000007912
  0
ARC
  8
0
 62
0
 10
3.847270819739294
 20
9.366585639309534
 30
0.0
 40
0.01968503937007968
 50
168.00000000000222
 51
-101.99999999999778
  0
ARC
  8
0
 62
0
 10
4.9035019532105695
 20
7.365052837298059
 30
0.0
 40
0.019685039370078254
 50
-11.999999999990685
 51
78.00000000000928
  0
ARC
  8
0
 62
0
 10
5.974573969345593
 20
5.847408473955199
 30
0.0
 40
0.019685039370078313
 50
167.99999999999608
 51
-102.00000000000138
  0
ARC
  8
0
 62
0
 10
4.402875228425545
 20
7.471464332598489
 30
0.0
 40
0.019685039370078313
 50
77.9999999999961
 51
167.99999999999858
  0
ARC
  8
0
 62
0
 10
4.819219638636933
 20
7.626479340096931
 30
0.0
 40
0.01968503937008042
 50
167.9999999999921
 51
-102.00000000000536
  0
LINE
  8
0
 62
0
 10
4.668029803214254
 20
9.715372043047658
 30
0.0
 11
4.561618307913825
 21
9.214745318262638
 31
0.0
  0
LINE
  8
0
 62
0
 10
7.137413960995087
 20
9.28893914258112
 30
0.0
 11
7.243825456295507
 21
8.7883124177961
 31
0.0
  0
ARC
  8
0
 62
0
 10
4.169903528013717
 20
7.520985908164204
 30
0.0
 40
0.01968503937007639
 50
-12.000000000002464
 51
78.0000000000026
  0
LINE
  8
0
 62
0
 10
5.192004151848711
 20
9.624122671958174
 30
0.0
 11
4.691377427063691
 21
9.730534167258604
 31
0.0
  0
ARC
  8
0
 62
0
 10
3.6692768032286978
 20
7.627397403464632
 30
0.0
 40
0.01968503937007698
 50
78.00000000000188
 51
168.0000000000031
  0
LINE
  8
0
 62
0
 10
6.283589426428518
 20
6.548463283953637
 30
0.0
 11
6.390000921728948
 21
7.049090008738657
 31
0.0
  0
LINE
  8
0
 62
0
 10
12.445669783932006
 20
9.395212154330197
 30
0.0
 11
12.957480807554049
 21
9.395212154330197
 31
0.0
  0
LINE
  8
0
 62
0
 10
4.082746906743482
 20
7.016266433559937
 30
0.0
 11
4.189158402043907
 21
7.516893158344956
 31
0.0
  0
LINE
  8
0
 62
0
 10
5.850864448883543
 20
7.163687003677579
 30
0.0
 11
5.744452953583113
 21
6.663060278892558
 31
0.0
  0
ARC
  8
0
 62
0
 10
6.264334552398322
 20
6.552556033772885
 30
0.0
 40
0.01968503937008247
 50
-101.99999999999869
 51
-11.999999999998671
  0
ARC
  8
0
 62
0
 10
6.080985464646021
 20
6.348035198740218
 30
0.0
 40
0.019685039370080364
 50
78.0000000000053
 51
168.00000000000531
  0
ARC
  8
0
 62
0
 10
4.347897544524313
 20
9.260174144009108
 30
0.0
 40
0.019685039370080048
 50
-102.00000000000283
 51
-12.000000000002801
  0
LINE
  8
0
 62
0
 10
5.0259945437370614
 20
6.795656781155992
 30
0.0
 11
5.526621268522082
 21
6.689245285855567
 31
0.0
  0
LINE
  8
0
 62
0
 10
4.816345331940333
 20
6.86033336269379
 30
0.0
 11
4.922756827240763
 21
7.360960087478815
 31
0.0
  0
LINE
  8
0
 62
0
 10
3.650021929198506
 20
7.6314901532838775
 30
0.0
 11
3.5436104338980767
 21
7.130863428498858
 31
0.0
  0
LINE
  8
0
 62
0
 10
4.292370983305872
 20
6.951582733783275
 30
0.0
 11
4.792997708090888
 21
6.8451712384828465
 31
0.0
  0
ARC
  8
0
 62
0
 10
5.136498788856737
 20
7.315538379971207
 30
0.0
 40
0.019685039370076204
 50
78.00000000000009
 51
168.00000000000009
  0
ARC
  8
0
 62
0
 10
4.925631133937357
 20
8.127106064881954
 30
0.0
 40
0.01968503937007813
 50
77.99999999999864
 51
168.00000000000117
  0
ARC
  8
0
 62
0
 10
6.475200694130612
 20
5.740996978654768
 30
0.0
 40
0.019685039370080364
 50
-101.99999999999471
 51
-11.999999999994692
  0
ARC
  8
0
 62
0
 10
7.7637070551107294
 20
8.898816662915774
 30
0.0
 40
0.019685039370079864
 50
-77.9999999999997
 51
11.999999999997785
  0
LINE
  8
0
 62
0
 10
6.585704939250286
 20
6.260878577469979
 30
0.0
 11
6.085078214465267
 21
6.367290072770413
 31
0.0
  0
LINE
  8
0
 62
0
 10
5.549968892371519
 20
6.704407410066511
 30
0.0
 11
5.656380387671947
 21
7.205034134851531
 31
0.0
  0
LINE
  8
0
 62
0
 10
5.641218263460998
 20
7.228381758700972
 30
0.0
 11
5.1405915386759835
 21
7.334793254001397
 31
0.0
  0
LINE
  8
0
 62
0
 10
5.117243914826546
 20
7.319631129790453
 30
0.0
 11
5.010832419526117
 21
6.819004405005432
 31
0.0
  0
ARC
  8
0
 62
0
 10
5.763707827613308
 20
6.658967529073312
 30
0.0
 40
0.019685039370080364
 50
168.00000000000531
 51
-101.99999999999471
  0
ARC
  8
0
 62
0
 10
5.637125513641752
 20
7.209126884670777
 30
0.0
 40
0.019685039370080364
 50
-11.999999999994692
 51
78.0000000000053
  0
LINE
  8
0
 62
0
 10
5.970481219526345
 20
5.828153599925007
 30
0.0
 11
6.471107944311366
 21
5.721742104624573
 31
0.0
  0
LINE
  8
0
 62
0
 10
4.173996277832963
 20
7.540240782194394
 30
0.0
 11
3.673369553047944
 21
7.646652277494823
 31
0.0
  0
LINE
  8
0
 62
0
 10
4.383620354395353
 20
7.475557082417737
 30
0.0
 11
4.2772088590949275
 21
6.974930357632716
 31
0.0
  0
LINE
  8
0
 62
0
 10
7.782961929140922
 20
8.90290941273502
 30
0.0
 11
7.676550433840488
 21
9.403536137520044
 31
0.0
  0
ARC
  8
0
 62
0
 10
5.314495229188113
 20
9.054719497577247
 30
0.0
 40
0.019685039370078313
 50
167.99999999999608
 51
-102.00000000000391
  0
ARC
  8
0
 62
0
 10
5.921533449273558
 20
9.448934727061843
 30
0.0
 40
0.01968503937007918
 50
-12.000000000003382
 51
77.9999999999961
  0
LINE
  8
0
 62
0
 10
5.834376828003322
 20
8.944215252457578
 30
0.0
 11
5.940788323303751
 21
9.444841977242595
 31
0.0
  0
ARC
  8
0
 62
0
 10
11.695669783932
 20
9.414897193700275
 30
0.0
 40
0.019685039370077817
 50
-180.0
 51
-90.0
  0
LINE
  8
0
 62
0
 10
5.33910123745214
 20
7.51597509497726
 30
0.0
 11
5.4455127327525705
 21
8.016601819762275
 31
0.0
  0
LINE
  8
0
 62
0
 10
5.9256261990928065
 20
9.468189601092035
 30
0.0
 11
5.424999474307786
 21
9.574601096392461
 31
0.0
  0
ARC
  8
0
 62
0
 10
5.187911402029464
 20
9.60486779792798
 30
0.0
 40
0.01968503937007881
 50
-11.999999999998304
 51
77.99999999999864
  0
LINE
  8
0
 62
0
 10
12.977165846924128
 20
9.414897193700277
 30
0.0
 11
12.977165846924128
 21
9.926708217322323
 31
0.0
  0
ARC
  8
0
 62
0
 10
5.815121953973126
 20
8.948308002276821
 30
0.0
 40
0.01968503937007931
 50
-101.99999999999271
 51
-11.999999999987658
  0
LINE
  8
0
 62
0
 10
12.207480807554049
 20
9.946393256692403
 30
0.0
 11
11.695669783932
 21
9.946393256692403
 31
0.0
  0
ARC
  8
0
 62
0
 10
4.687284677244445
 20
9.711279293228413
 30
0.0
 40
0.01968503937007602
 50
78.0000000000026
 51
168.00000000000512
  0
LINE
  8
0
 62
0
 10
4.3671524185545065
 20
9.25608139418986
 30
0.0
 11
4.473563913854932
 21
9.75670811897488
 31
0.0
  0
LINE
  8
0
 62
0
 10
4.458401789643987
 20
9.780055742824317
 30
0.0
 11
3.957775064858967
 21
9.886467238124746
 31
0.0
  0
LINE
  8
0
 62
0
 10
6.5679988752474205
 20
8.788282181591434
 30
0.0
 11
6.674410370547847
 21
9.288908906376454
 31
0.0
  0
LINE
  8
0
 62
0
 10
5.3104024793688644
 20
9.035464623547055
 30
0.0
 11
5.811029204153881
 21
8.929053128246627
 31
0.0
  0
ARC
  8
0
 62
0
 10
4.45430903982474
 20
9.760800868794124
 30
0.0
 40
0.019685039370076703
 50
-11.999999999994326
 51
78.00000000000009
  0
LINE
  8
0
 62
0
 10
4.081506064814805
 20
7.76316722904254
 30
0.0
 11
4.582132789599825
 21
7.656755733742106
 31
0.0
  0
LINE
  8
0
 62
0
 10
6.16397265578572
 20
7.884016372745576
 30
0.0
 11
5.663345931000699
 21
7.990427868046004
 31
0.0
  0
LINE
  8
0
 62
0
 10
5.401651850458345
 20
9.559438972181518
 30
0.0
 11
5.295240355157921
 21
9.058812247396496
 31
0.0
  0
ARC
  8
0
 62
0
 10
5.659253181181453
 20
7.971172994015815
 30
0.0
 40
0.019685039370075336
 50
77.99999999999955
 51
168.0000000000046
  0
ARC
  8
0
 62
0
 10
6.655155496517655
 20
9.293001656195699
 30
0.0
 40
0.019685039370076703
 50
-11.999999999994326
 51
78.0000000000026
  0
ARC
  8
0
 62
0
 10
6.1598799059664735
 20
7.864761498715384
 30
0.0
 40
0.019685039370076204
 50
-11.999999999999925
 51
78.00000000000009
  0
ARC
  8
0
 62
0
 10
11.695669783932
 20
9.926708217322323
 30
0.0
 40
0.019685039370079593
 50
90.0
 51
-180.0
  0
ARC
  8
0
 62
0
 10
5.552841685881027
 20
7.47054626923079
 30
0.0
 40
0.019685039370078313
 50
167.99999999999608
 51
-102.00000000000391
  0
ARC
  8
0
 62
0
 10
4.580873181944018
 20
9.210652568443386
 30
0.0
 40
0.01968503937007905
 50
167.99999999998602
 51
-102.00000000001403
  0
LINE
  8
0
 62
0
 10
12.957480807554049
 20
9.946393256692403
 30
0.0
 11
12.445669783932006
 21
9.946393256692403
 31
0.0
  0
LINE
  8
0
 62
0
 10
6.04402452661296
 20
8.879531552680914
 30
0.0
 11
6.54465125139798
 21
8.773120057380488
 31
0.0
  0
LINE
  8
0
 62
0
 10
12.425984744561928
 20
9.926708217322323
 30
0.0
 11
12.425984744561928
 21
9.414897193700277
 31
0.0
  0
ARC
  8
0
 62
0
 10
5.420906724488537
 20
9.555346222362271
 30
0.0
 40
0.019685039370076575
 50
77.99999999999503
 51
168.00000000000009
  0
ARC
  8
0
 62
0
 10
3.953682315039721
 20
9.867212364094556
 30
0.0
 40
0.01968503937007602
 50
78.0000000000026
 51
168.00000000000512
  0
LINE
  8
0
 62
0
 10
4.605480413449262
 20
7.6719178579530505
 30
0.0
 11
4.711891908749691
 21
8.172544582738075
 31
0.0
  0
ARC
  8
0
 62
0
 10
12.445669783932006
 20
9.414897193700275
 30
0.0
 40
0.019685039370077817
 50
-180.0
 51
-90.0
  0
ARC
  8
0
 62
0
 10
5.426257858722377
 20
8.020694569581522
 30
0.0
 40
0.01968503937007881
 50
-11.999999999998304
 51
77.99999999999864
  0
LINE
  8
0
 62
0
 10
11.675984744561923
 20
9.926708217322323
 30
0.0
 11
11.675984744561923
 21
9.414897193700277
 31
0.0
  0
ARC
  8
0
 62
0
 10
6.548744001217227
 20
8.79237493141068
 30
0.0
 40
0.01968503937007813
 50
-102.00000000000138
 51
-11.999999999998854
  0
LINE
  8
0
 62
0
 10
6.072723284696239
 20
7.360042024111118
 30
0.0
 11
6.179134779996664
 21
7.8606687488961375
 31
0.0
  0
ARC
  8
0
 62
0
 10
5.319846363421947
 20
7.520067844796507
 30
0.0
 40
0.019685039370077942
 50
-101.99999999999885
 51
-11.999999999998854
  0
LINE
  8
0
 62
0
 10
4.576780432124766
 20
9.191397694413194
 30
0.0
 11
5.07740715690979
 21
9.084986199112771
 31
0.0
  0
LINE
  8
0
 62
0
 10
4.815126888817684
 20
7.607224466066737
 30
0.0
 11
5.3157536136027
 21
7.500812970766314
 31
0.0
  0
LINE
  8
0
 62
0
 10
4.1727554359042855
 20
8.287141577676996
 30
0.0
 11
4.06634394060386
 21
7.7865148528919725
 31
0.0
  0
LINE
  8
0
 62
0
 10
9.120446904479245
 20
9.730568340471146
 30
0.0
 11
8.619820179694225
 21
9.624156845170718
 31
0.0
  0
LINE
  8
0
 62
0
 10
8.734417174633146
 20
9.085020372325312
 30
0.0
 11
9.235043899418168
 21
9.191431867625738
 31
0.0
  0
ARC
  8
0
 62
0
 10
9.23095114959892
 20
9.210686741655929
 30
0.0
 40
0.019685039370076575
 50
-77.99999999999503
 51
12.000000000010022
  0
ARC
  8
0
 62
0
 10
9.357495606678823
 20
9.76083504200667
 30
0.0
 40
0.01968503937007447
 50
102.000000000001
 51
-167.99999999999392
  0
ARC
  8
0
 62
0
 10
8.913634142487465
 20
8.899734726283473
 30
0.0
 40
0.019685039370077203
 50
11.999999999988727
 51
101.99999999999379
  0
ARC
  8
0
 62
0
 10
7.263080330325705
 20
8.792405167615351
 30
0.0
 40
0.019685039370084263
 50
-167.9999999999892
 51
-77.99999999999174
  0
LINE
  8
0
 62
0
 10
10.1122532677236
 20
7.864507837931874
 30
0.0
 11
10.005841772423171
 21
8.365134562716891
 31
0.0
  0
ARC
  8
0
 62
0
 10
8.018755449198512
 20
7.94276023885706
 30
0.0
 40
0.019685039370078313
 50
102.00000000000391
 51
-167.99999999999608
  0
ARC
  8
0
 62
0
 10
9.964533826764276
 20
9.366619812522073
 30
0.0
 40
0.019685039370075836
 50
-78.00000000000513
 51
11.999999999999925
  0
ARC
  8
0
 62
0
 10
9.986663007491067
 20
8.604562647930305
 30
0.0
 40
0.019685039370077574
 50
-168.0000000000062
 51
-78.00000000000621
  0
LINE
  8
0
 62
0
 10
7.781667376920189
 20
7.912493537321536
 30
0.0
 11
7.28104065213517
 21
7.80608204202111
 31
0.0
  0
LINE
  8
0
 62
0
 10
10.506544606306278
 20
8.715066893049984
 30
0.0
 11
10.400133111005852
 21
9.215693617835004
 31
0.0
  0
LINE
  8
0
 62
0
 10
9.854029581644594
 20
9.886501411337285
 30
0.0
 11
9.353402856859576
 21
9.780089916036859
 31
0.0
  0
LINE
  8
0
 62
0
 10
8.305717834652732
 20
8.24726768045156
 30
0.0
 11
8.199306339352308
 21
8.747894405236575
 31
0.0
  0
LINE
  8
0
 62
0
 10
9.990755757310312
 20
8.585307773900114
 30
0.0
 11
10.491382482095332
 21
8.691719269200544
 31
0.0
  0
LINE
  8
0
 62
0
 10
9.257133710066217
 20
8.429374703033973
 30
0.0
 11
9.757760434851237
 21
8.535786198334398
 31
0.0
  0
ARC
  8
0
 62
0
 10
9.46390710197925
 20
9.260208317221647
 30
0.0
 40
0.019685039370076575
 50
-167.999999999995
 51
-77.99999999998997
  0
LINE
  8
0
 62
0
 10
7.871036008239181
 20
9.444876150455135
 30
0.0
 11
7.977447503539611
 21
8.944249425670113
 31
0.0
  0
LINE
  8
0
 62
0
 10
9.039300511818087
 20
8.403200751317698
 30
0.0
 11
8.932889016517658
 21
8.903827476102716
 31
0.0
  0
LINE
  8
0
 62
0
 10
9.250206023629111
 20
9.214779491475179
 30
0.0
 11
9.143794528328685
 21
9.715406216260197
 31
0.0
  0
LINE
  8
0
 62
0
 10
8.393752543672257
 20
8.789230481163797
 30
0.0
 11
8.500164038972681
 21
8.288603756378777
 31
0.0
  0
LINE
  8
0
 62
0
 10
10.376785487156411
 20
9.230855742045945
 30
0.0
 11
9.876158762371391
 21
9.12444424674552
 31
0.0
  0
LINE
  8
0
 62
0
 10
7.7899289856567675
 20
8.117508561301689
 30
0.0
 11
8.290555710441788
 21
8.223920056602118
 31
0.0
  0
ARC
  8
0
 62
0
 10
8.413007417702449
 20
8.793323230983045
 30
0.0
 40
0.019685039370077942
 50
101.99999999999885
 51
-167.99999999999608
  0
ARC
  8
0
 62
0
 10
8.286462960622538
 20
8.24317493063231
 30
0.0
 40
0.01968503937007868
 50
-77.99999999999103
 51
12.000000000008951
  0
LINE
  8
0
 62
0
 10
8.90954139266822
 20
8.918989600313665
 30
0.0
 11
8.408914667883202
 21
8.812578105013237
 31
0.0
  0
ARC
  8
0
 62
0
 10
8.180051465322112
 20
8.743801655417325
 30
0.0
 40
0.019685039370082154
 50
12.000000000006779
 51
102.0000000000068
  0
ARC
  8
0
 62
0
 10
9.146629464946542
 20
8.94925630184919
 30
0.0
 40
0.019685039370075205
 50
102.00000000001111
 51
-167.99999999998383
  0
ARC
  8
0
 62
0
 10
8.62391292951347
 20
9.604901971140523
 30
0.0
 40
0.019685039370081047
 50
101.99999999999164
 51
-168.00000000000838
  0
ARC
  8
0
 62
0
 10
9.753667685031989
 20
8.555041072364592
 30
0.0
 40
0.019685039370080048
 50
-77.99999999999717
 51
12.000000000007912
  0
LINE
  8
0
 62
0
 10
8.516583976385016
 20
9.05884642060904
 30
0.0
 11
8.410172481084587
 21
9.559473145394056
 31
0.0
  0
ARC
  8
0
 62
0
 10
7.996702377569803
 20
8.948342175489364
 30
0.0
 40
0.01968503937007868
 50
-167.99999999999105
 51
-77.99999999999358
  0
LINE
  8
0
 62
0
 10
9.338240732648634
 20
9.756742292187422
 30
0.0
 11
9.44465222794906
 21
9.256115567402398
 31
0.0
  0
ARC
  8
0
 62
0
 10
9.858122331463845
 20
9.867246537307093
 30
0.0
 40
0.01968503937007868
 50
12.000000000008951
 51
102.00000000000897
  0
ARC
  8
0
 62
0
 10
10.092998393693406
 20
7.860415088112627
 30
0.0
 40
0.01968503937007968
 50
-78.00000000000223
 51
11.999999999997785
  0
LINE
  8
0
 62
0
 10
10.451583976385017
 20
7.169877916672031
 30
0.0
 11
10.345172481084587
 21
7.670504641457048
 31
0.0
  0
ARC
  8
0
 62
0
 10
8.519418913002873
 20
8.292696506198023
 30
0.0
 40
0.019685039370077942
 50
-168.00000000000117
 51
-77.9999999999961
  0
LINE
  8
0
 62
0
 10
7.265878527924221
 20
7.782734418171669
 30
0.0
 11
7.372290023224645
 21
7.28210769338665
 31
0.0
  0
LINE
  8
0
 62
0
 10
9.127374590916352
 20
8.945163552029937
 30
0.0
 11
9.23378608621678
 21
8.444536827244919
 31
0.0
  0
ARC
  8
0
 62
0
 10
7.6572955598103
 20
9.3994433877008
 30
0.0
 40
0.019685039370073227
 50
11.999999999996437
 51
101.99999999999595
  0
LINE
  8
0
 62
0
 10
8.604658055483275
 20
9.600809221321278
 30
0.0
 11
8.711069550783705
 21
9.100182496536256
 31
0.0
  0
ARC
  8
0
 62
0
 10
10.380878236975661
 20
9.211600868015754
 30
0.0
 40
0.019685039370076943
 50
12.000000000010022
 51
102.00000000001005
  0
ARC
  8
0
 62
0
 10
7.156668835025282
 20
9.293031892400366
 30
0.0
 40
0.01968503937007968
 50
101.99999999999778
 51
-168.00000000000222
  0
LINE
  8
0
 62
0
 10
8.386824857235151
 20
9.574635269605006
 30
0.0
 11
7.886198132450129
 21
9.468223774304576
 31
0.0
  0
LINE
  8
0
 62
0
 10
9.467999851798501
 20
9.240953443191454
 30
0.0
 11
9.968626576583521
 21
9.347364938491882
 31
0.0
  0
LINE
  8
0
 62
0
 10
9.772922559062183
 20
8.559133822183842
 30
0.0
 11
9.666511063761753
 21
9.059760546968864
 31
0.0
  0
ARC
  8
0
 62
0
 10
9.12453965429849
 20
9.711313466440952
 30
0.0
 40
0.019685039370081047
 50
11.999999999991635
 51
101.99999999999164
  0
ARC
  8
0
 62
0
 10
9.25304096024697
 20
8.448629577064164
 30
0.0
 40
0.019685039370075836
 50
-168.00000000000512
 51
-78.00000000000009
  0
ARC
  8
0
 62
0
 10
9.880251512190638
 20
9.105189372715326
 30
0.0
 40
0.01968503937007968
 50
101.99999999999778
 51
-168.00000000000222
  0
LINE
  8
0
 62
0
 10
8.523511662822122
 20
8.273441632167831
 30
0.0
 11
9.024138387607142
 21
8.37985312746826
 31
0.0
  0
ARC
  8
0
 62
0
 10
8.497329102354824
 20
9.054753670789793
 30
0.0
 40
0.01968503937007968
 50
-78.00000000000223
 51
11.999999999997785
  0
ARC
  8
0
 62
0
 10
10.487289732276086
 20
8.710974143230736
 30
0.0
 40
0.019685039370077942
 50
-78.00000000000115
 51
12.000000000003935
  0
LINE
  8
0
 62
0
 10
9.860996638160445
 20
9.10109662289608
 30
0.0
 11
9.967408133460875
 21
8.60046989811106
 31
0.0
  0
ARC
  8
0
 62
0
 10
9.647256189731563
 20
9.055667797149619
 30
0.0
 40
0.019685039370075836
 50
11.999999999994877
 51
101.99999999999993
  0
LINE
  8
0
 62
0
 10
9.983788700794465
 20
9.37071256234132
 30
0.0
 11
9.877377205494037
 21
9.871339287126343
 31
0.0
  0
ARC
  8
0
 62
0
 10
9.020045637787897
 20
8.399108001498451
 30
0.0
 40
0.019685039370075836
 50
-78.00000000000513
 51
11.999999999999925
  0
ARC
  8
0
 62
0
 10
8.730324424813896
 20
9.104275246355503
 30
0.0
 40
0.019685039370076204
 50
-168.00000000000009
 51
-77.99999999998997
  0
LINE
  8
0
 62
0
 10
9.643163439912316
 20
9.074922671179808
 30
0.0
 11
9.142536715127292
 21
8.968511175879378
 31
0.0
  0
LINE
  8
0
 62
0
 10
7.660169866506897
 20
8.633297410297654
 30
0.0
 11
7.766581361807327
 21
8.132670685512634
 31
0.0
  0
LINE
  8
0
 62
0
 10
7.442336668258768
 20
8.607123458581382
 30
0.0
 11
6.941709943473752
 21
8.500711963280953
 31
0.0
  0
ARC
  8
0
 62
0
 10
9.198119700404451
 20
6.903440600686213
 30
0.0
 40
0.019685039370080048
 50
-167.99999999999721
 51
-78.00000000000223
  0
ARC
  8
0
 62
0
 10
8.519382173983532
 20
8.049171734157488
 30
0.0
 40
0.01968503937007931
 50
11.999999999992705
 51
101.99999999999778
  0
ARC
  8
0
 62
0
 10
7.785760126739435
 20
7.893238663291345
 30
0.0
 40
0.01968503937007689
 50
11.999999999996897
 51
101.99999999999686
  0
LINE
  8
0
 62
0
 10
8.175958715502862
 20
8.763056529447521
 30
0.0
 11
7.675331990717843
 21
8.656645034147095
 31
0.0
  0
ARC
  8
0
 62
0
 10
7.552840913378447
 20
8.087241859766168
 30
0.0
 40
0.019685039370075836
 50
-78.00000000000513
 51
11.999999999994877
  0
LINE
  8
0
 62
0
 10
6.926547819262803
 20
8.477364339431512
 30
0.0
 11
7.032959314563232
 21
7.976737614646493
 31
0.0
  0
ARC
  8
0
 62
0
 10
9.592371668908388
 20
7.7540035928121975
 30
0.0
 40
0.019685039370080048
 50
-167.99999999999721
 51
-78.00000000000223
  0
LINE
  8
0
 62
0
 10
8.515289424164285
 20
8.068426608187682
 30
0.0
 11
8.014662699379263
 21
7.9620151128872525
 31
0.0
  0
LINE
  8
0
 62
0
 10
7.056306938412673
 20
7.961575490435548
 30
0.0
 11
7.556933663197692
 21
8.067986985735978
 31
0.0
  0
ARC
  8
0
 62
0
 10
9.592334929889041
 20
7.510478820771661
 30
0.0
 40
0.019685039370077574
 50
11.999999999993808
 51
101.99999999999379
  0
ARC
  8
0
 62
0
 10
7.285133401954416
 20
7.786827167990915
 30
0.0
 40
0.019685039370080364
 50
101.99999999999471
 51
-168.00000000000531
  0
ARC
  8
0
 62
0
 10
9.825290882269378
 20
7.560000396337374
 30
0.0
 40
0.019685039370078313
 50
102.00000000000391
 51
-167.99999999999608
  0
LINE
  8
0
 62
0
 10
9.806036008239186
 20
7.555907646518126
 30
0.0
 11
9.912447503539612
 21
7.0552809217331065
 31
0.0
  0
LINE
  8
0
 62
0
 10
7.39563764707409
 20
7.2669455691757046
 30
0.0
 11
7.89626437185911
 21
7.37335706447613
 31
0.0
  0
ARC
  8
0
 62
0
 10
7.391544897254841
 20
7.2862004432058995
 30
0.0
 40
0.01968503937008197
 50
-167.99999999999574
 51
-77.99999999999572
  0
ARC
  8
0
 62
0
 10
8.62579366928396
 20
7.5485450093724635
 30
0.0
 40
0.019685039370077442
 50
-77.99999999999555
 51
12.000000000007514
  0
ARC
  8
0
 62
0
 10
7.052214188593425
 20
7.980830364465741
 30
0.0
 40
0.019685039370078313
 50
-167.99999999999608
 51
-77.9999999999961
  0
LINE
  8
0
 62
0
 10
7.572095787408638
 20
8.091334609585413
 30
0.0
 11
7.465684292108209
 21
8.591961334370437
 31
0.0
  0
LINE
  8
0
 62
0
 10
7.911426496070056
 20
7.396704688325574
 30
0.0
 11
7.805015000769626
 21
7.8973314131105905
 31
0.0
  0
LINE
  8
0
 62
0
 10
9.378670590558245
 20
7.708570830057858
 30
0.0
 11
9.272259095257816
 21
8.209197554842874
 31
0.0
  0
ARC
  8
0
 62
0
 10
6.945802693292998
 20
8.481457089250759
 30
0.0
 40
0.019685039370079496
 50
101.99999999999524
 51
-168.00000000000222
  0
LINE
  8
0
 62
0
 10
9.202212450223698
 20
6.884185726656019
 30
0.0
 11
9.702839175008718
 21
6.990597221956449
 31
0.0
  0
LINE
  8
0
 62
0
 10
8.129259694318185
 20
7.422878640041846
 30
0.0
 11
8.629886419103208
 21
7.529290135342272
 31
0.0
  0
LINE
  8
0
 62
0
 10
9.982494148573734
 20
8.380296686927839
 30
0.0
 11
9.481867423788714
 21
8.27388519162741
 31
0.0
  0
ARC
  8
0
 62
0
 10
7.78583623583752
 20
8.136763435331881
 30
0.0
 40
0.01968503937007881
 50
-168.0000000000017
 51
-77.99999999999864
  0
ARC
  8
0
 62
0
 10
9.48596017360796
 20
8.254630317597218
 30
0.0
 40
0.019685039370077942
 50
101.99999999999885
 51
-167.99999999999608
  0
ARC
  8
0
 62
0
 10
8.752377496442604
 20
8.0986933097232
 30
0.0
 40
0.01968503937007931
 50
101.99999999999271
 51
-168.00000000000222
  0
ARC
  8
0
 62
0
 10
8.12516694449894
 20
7.442133514072037
 30
0.0
 40
0.01968503937007602
 50
-168.00000000000261
 51
-78.00000000000513
  0
ARC
  8
0
 62
0
 10
9.359415716528051
 20
7.704478080238609
 30
0.0
 40
0.01968503937008092
 50
-77.99999999999771
 51
12.000000000005342
  0
ARC
  8
0
 62
0
 10
7.446429418078016
 20
8.58786858455119
 30
0.0
 40
0.01968503937007881
 50
11.999999999998304
 51
102.00000000000138
  0
LINE
  8
0
 62
0
 10
7.9995005751683195
 20
7.938667489037812
 30
0.0
 11
8.105912070468749
 21
7.438040764252791
 31
0.0
  0
ARC
  8
0
 62
0
 10
9.253004221227622
 20
8.20510480502363
 30
0.0
 40
0.01968503937007894
 50
11.999999999987658
 51
101.99999999998766
  0
LINE
  8
0
 62
0
 10
8.64504854331415
 20
7.552637759191713
 30
0.0
 11
8.538637048013726
 21
8.053264483976733
 31
0.0
  0
LINE
  8
0
 62
0
 10
8.73312262241241
 20
8.094600559903954
 30
0.0
 11
8.839534117712839
 21
7.593973835118932
 31
0.0
  0
LINE
  8
0
 62
0
 10
9.466705299577768
 20
8.25053756777797
 30
0.0
 11
9.573116794878194
 21
7.749910842992949
 31
0.0
  0
LINE
  8
0
 62
0
 10
9.588242180069797
 20
7.529733694801854
 30
0.0
 11
9.087615455284777
 21
7.423322199501425
 31
0.0
  0
LINE
  8
0
 62
0
 10
9.596464418727635
 20
7.734748718782004
 30
0.0
 11
10.097091143512653
 21
7.841160214082433
 31
0.0
  0
LINE
  8
0
 62
0
 10
9.718001299219663
 20
7.013944845805885
 30
0.0
 11
9.611589803919234
 21
7.514571570590906
 31
0.0
  0
ARC
  8
0
 62
0
 10
7.67942474053709
 20
8.637390160116901
 30
0.0
 40
0.019685039370079864
 50
102.0000000000003
 51
-168.00000000000222
  0
ARC
  8
0
 62
0
 10
7.892171622039861
 20
7.392611938506325
 30
0.0
 40
0.019685039370081103
 50
-77.99999999999518
 51
12.000000000004821
  0
LINE
  8
0
 62
0
 10
8.86288174156228
 20
7.578811710907988
 30
0.0
 11
9.3635084663473
 21
7.685223206208414
 31
0.0
  0
LINE
  8
0
 62
0
 10
9.248911471408379
 20
8.224359679053823
 30
0.0
 11
8.748284746623359
 21
8.117948183753395
 31
0.0
  0
ARC
  8
0
 62
0
 10
8.858788991743031
 20
7.598066584938181
 30
0.0
 40
0.019685039370078313
 50
-167.99999999999608
 51
-77.9999999999961
  0
LINE
  8
0
 62
0
 10
8.468591699874953
 20
6.7282465551207755
 30
0.0
 11
8.969218424659973
 21
6.834658050421204
 31
0.0
  0
LINE
  8
0
 62
0
 10
8.854621429721048
 20
7.373794523266611
 30
0.0
 11
8.353994704936028
 21
7.267383027966181
 31
0.0
  0
LINE
  8
0
 62
0
 10
9.935795127389053
 20
7.040118797522162
 30
0.0
 11
10.436421852174073
 21
7.1465302928225904
 31
0.0
  0
ARC
  8
0
 62
0
 10
10.432329102354824
 20
7.165785166852783
 30
0.0
 40
0.019685039370078313
 50
-77.9999999999961
 51
12.000000000003935
  0
LINE
  8
0
 62
0
 10
1.561270002320731
 20
7.895208147286162
 30
0.0
 11
2.0730810259427783
 21
7.895208147286162
 31
0.0
  0
LINE
  8
0
 62
0
 10
2.092766065312857
 20
7.914893186656241
 30
0.0
 11
2.092766065312857
 21
8.426704210278288
 31
0.0
  0
LINE
  8
0
 62
0
 10
8.120998085581606
 20
7.217851805038074
 30
0.0
 11
7.620371360796587
 21
7.111440309737645
 31
0.0
  0
ARC
  8
0
 62
0
 10
8.858714179540296
 20
7.3545396492364175
 30
0.0
 40
0.01968503937007813
 50
12.000000000001425
 51
102.00000000000391
  0
LINE
  8
0
 62
0
 10
9.072453331073831
 20
7.399974575651984
 30
0.0
 11
9.178864826374257
 21
6.899347850866964
 31
0.0
  0
LINE
  8
0
 62
0
 10
9.724927008018364
 20
6.22853790177109
 30
0.0
 11
10.225553732803384
 21
6.334949397071519
 31
0.0
  0
ARC
  8
0
 62
0
 10
8.231502330701279
 20
6.697970206222857
 30
0.0
 40
0.019685039370082653
 50
-77.99999999999879
 51
12.00000000000069
  0
LINE
  8
0
 62
0
 10
4.110215994701833
 20
6.24368070600633
 30
0.0
 11
4.216627490002262
 21
6.744307430791346
 31
0.0
  0
LINE
  8
0
 62
0
 10
7.734968355735508
 20
6.572303836892239
 30
0.0
 11
8.235595080520527
 21
6.6787153321926604
 31
0.0
  0
ARC
  8
0
 62
0
 10
7.730875605916259
 20
6.591558710922434
 30
0.0
 40
0.01968503937008197
 50
-167.99999999999574
 51
-77.99999999999572
  0
ARC
  8
0
 62
0
 10
3.5903343958866194
 20
6.354184951126006
 30
0.0
 40
0.019685039370077574
 50
168.0000000000062
 51
-101.99999999999253
  0
ARC
  8
0
 62
0
 10
7.624464110615833
 20
7.09218543570745
 30
0.0
 40
0.019685039370080364
 50
101.99999999999471
 51
-168.00000000000531
  0
ARC
  8
0
 62
0
 10
8.965125674840726
 20
6.853912924451397
 30
0.0
 40
0.01968503937007881
 50
-78.00000000000169
 51
12.000000000001425
  0
LINE
  8
0
 62
0
 10
9.595167888868493
 20
6.744326750767055
 30
0.0
 11
9.701579384168921
 21
6.243700025982035
 31
0.0
  0
ARC
  8
0
 62
0
 10
2.0730810259427783
 20
7.91489318665624
 30
0.0
 40
0.019685039370077817
 50
-90.0
 51
-0.0
  0
LINE
  8
0
 62
0
 10
11.746801498383727
 20
7.145208147286161
 30
0.0
 11
12.258612522005775
 21
7.145208147286161
 31
0.0
  0
ARC
  8
0
 62
0
 10
4.197372615972069
 20
6.748400180610594
 30
0.0
 40
0.01968503937007918
 50
-12.000000000003382
 51
77.99999999999663
  0
LINE
  8
0
 62
0
 10
3.6774910171568576
 20
6.858904425730271
 30
0.0
 11
3.571079521856427
 21
6.3582777009452505
 31
0.0
  0
LINE
  8
0
 62
0
 10
8.250757204731476
 20
6.702062956042106
 30
0.0
 11
8.144345709431047
 21
7.202689680827126
 31
0.0
  0
ARC
  8
0
 62
0
 10
4.090961120671641
 20
6.247773455825578
 30
0.0
 40
0.019685039370078313
 50
-102.00000000000391
 51
-12.000000000001425
  0
LINE
  8
0
 62
0
 10
4.0937800201524706
 20
6.231078296062476
 30
0.0
 11
4.105079232750896
 21
6.238401130708144
 31
0.0
  0
LINE
  8
0
 62
0
 10
10.110956737864457
 20
6.874085869916925
 30
0.0
 11
9.610330013079437
 21
6.767674374616491
 31
0.0
  0
LINE
  8
0
 62
0
 10
4.201465365791317
 20
6.7676550546407865
 30
0.0
 11
3.7008386410062957
 21
6.874066549941216
 31
0.0
  0
ARC
  8
0
 62
0
 10
9.931702377569806
 20
7.059373671552355
 30
0.0
 40
0.019685039370080048
 50
-167.99999999999721
 51
-78.00000000000223
  0
ARC
  8
0
 62
0
 10
11.746801498383727
 20
7.676704210278288
 30
0.0
 40
0.019685039370077817
 50
90.0
 51
-180.0
  0
LINE
  8
0
 62
0
 10
11.727116459013649
 20
7.676704210278287
 30
0.0
 11
11.727116459013649
 21
7.164893186656236
 31
0.0
  0
LINE
  8
0
 62
0
 10
12.258612522005775
 20
7.696389249648366
 30
0.0
 11
11.746801498383727
 21
7.696389249648366
 31
0.0
  0
ARC
  8
0
 62
0
 10
12.258612522005777
 20
7.164893186656242
 30
0.0
 40
0.01968503937008048
 50
-90.00000000000517
 51
-0.0
  0
ARC
  8
0
 62
0
 10
10.325917607054397
 20
7.666411891637802
 30
0.0
 40
0.01968503937007602
 50
11.999999999997385
 51
101.99999999999487
  0
ARC
  8
0
 62
0
 10
9.698746425189473
 20
7.0098520959866395
 30
0.0
 40
0.019685039370075836
 50
-78.00000000000513
 51
11.999999999997385
  0
ARC
  8
0
 62
0
 10
8.464498950055704
 20
6.747501429150968
 30
0.0
 40
0.019685039370078313
 50
-167.99999999999608
 51
-77.9999999999961
  0
ARC
  8
0
 62
0
 10
9.986586898392979
 20
8.361041812897648
 30
0.0
 40
0.019685039370077203
 50
11.999999999988727
 51
101.99999999999379
  0
LINE
  8
0
 62
0
 10
10.321824857235152
 20
7.6856667656679925
 30
0.0
 11
9.82119813245013
 21
7.579255270367566
 31
0.0
  0
ARC
  8
0
 62
0
 10
10.115049487683704
 20
6.854830995886729
 30
0.0
 40
0.01968503937008142
 50
11.999999999996712
 51
101.9999999999967
  0
ARC
  8
0
 62
0
 10
8.358087454755275
 20
7.248128153935988
 30
0.0
 40
0.01968503937007881
 50
101.99999999999831
 51
-167.99999999999858
  0
LINE
  8
0
 62
0
 10
7.605209236585638
 20
7.0880926858882045
 30
0.0
 11
7.711620731886063
 21
6.5874659611031845
 31
0.0
  0
LINE
  8
0
 62
0
 10
8.338832580725082
 20
7.24403540411674
 30
0.0
 11
8.445244076025512
 21
6.743408679331719
 31
0.0
  0
ARC
  8
0
 62
0
 10
9.614422762898682
 20
6.748419500586301
 30
0.0
 40
0.019685039370075836
 50
101.99999999999487
 51
-168.00000000000261
  0
ARC
  8
0
 62
0
 10
12.258612522005777
 20
7.676704210278286
 30
0.0
 40
0.019685039370079593
 50
-0.0
 51
90.00000000000517
  0
LINE
  8
0
 62
0
 10
12.278297561375856
 20
7.16489318665624
 30
0.0
 11
12.278297561375856
 21
7.676704210278287
 31
0.0
  0
ARC
  8
0
 62
0
 10
3.696745891187049
 20
6.854811675911026
 30
0.0
 40
0.019685039370076204
 50
78.00000000000009
 51
168.00000000000261
  0
LINE
  8
0
 62
0
 10
3.586241646067375
 20
6.334930077095814
 30
0.0
 11
4.086868370852392
 21
6.228518581795385
 31
0.0
  0
LINE
  8
0
 62
0
 10
10.240715857014328
 20
6.3582970209209595
 30
0.0
 11
10.1343043617139
 21
6.858923745705976
 31
0.0
  0
ARC
  8
0
 62
0
 10
8.125090835400853
 20
7.19859693100788
 30
0.0
 40
0.019685039370079496
 50
11.999999999995275
 51
101.99999999999778
  0
ARC
  8
0
 62
0
 10
9.720834258199115
 20
6.247792775801283
 30
0.0
 40
0.019685039370080048
 50
-167.99999999999721
 51
-77.99999999999717
  0
ARC
  8
0
 62
0
 10
11.746801498383725
 20
7.164893186656238
 30
0.0
 40
0.01968503937007604
 50
-180.0
 51
-89.99999999999484
  0
ARC
  8
0
 62
0
 10
10.221460982984137
 20
6.354204271101711
 30
0.0
 40
0.019685039370077942
 50
-78.00000000000115
 51
12.000000000003935
  0
ARC
  8
0
 62
0
 10
9.091708205104023
 20
7.404067325471232
 30
0.0
 40
0.01968503937007881
 50
101.99999999999831
 51
-167.99999999999858
  0
LINE
  8
0
 62
0
 10
8.984380548870918
 20
6.858005674270645
 30
0.0
 11
8.877969053570489
 21
7.358632399055665
 31
0.0
  0
LINE
  8
0
 62
0
 10
12.934232776057991
 20
9.196393256692403
 30
0.0
 11
12.422421752435941
 21
9.196393256692403
 31
0.0
  0
LINE
  8
0
 62
0
 10
1.5844178154280606
 20
7.145212154330196
 30
0.0
 11
2.0962288390501076
 21
7.145212154330196
 31
0.0
  0
LINE
  8
0
 62
0
 10
1.5647327760579819
 20
7.676708217322319
 30
0.0
 11
1.5647327760579819
 21
7.164897193700272
 31
0.0
  0
LINE
  8
0
 62
0
 10
8.681778849140311
 20
6.026958438243795
 30
0.0
 11
8.575367353839882
 21
6.527585163028814
 31
0.0
  0
LINE
  8
0
 62
0
 10
1.835039862672155
 20
6.414897193700271
 30
0.0
 11
1.835039862672155
 21
6.9267082173223224
 31
0.0
  0
LINE
  8
0
 62
0
 10
8.165990000144348
 20
5.897199319093924
 30
0.0
 11
8.666616724929368
 21
6.003610814394349
 31
0.0
  0
LINE
  8
0
 62
0
 10
1.5415849629506524
 20
8.426704210278288
 30
0.0
 11
1.5415849629506524
 21
7.914893186656236
 31
0.0
  0
LINE
  8
0
 62
0
 10
1.607874508341446
 20
9.176708217322323
 30
0.0
 11
1.607874508341445
 21
8.664897193700272
 31
0.0
  0
LINE
  8
0
 62
0
 10
12.422421752435941
 20
8.645212154330197
 30
0.0
 11
12.934232776057987
 21
8.645212154330197
 31
0.0
  0
ARC
  8
0
 62
0
 10
1.5612700023207289
 20
7.914893186656238
 30
0.0
 40
0.019685039370076485
 50
-180.0
 51
-89.99999999999353
  0
ARC
  8
0
 62
0
 10
1.6275595477115252
 20
9.176708217322323
 30
0.0
 40
0.019685039370079593
 50
90.0000000000013
 51
-180.0
  0
LINE
  8
0
 62
0
 10
4.870048148660204
 20
6.062051237720278
 30
0.0
 11
5.370674873445219
 21
5.955639742419853
 31
0.0
  0
ARC
  8
0
 62
0
 10
2.1393705713335716
 20
8.664897193700275
 30
0.0
 40
0.019685039370077817
 50
-89.99999999999872
 51
-0.0
  0
LINE
  8
0
 62
0
 10
12.402736713065861
 20
9.176708217322323
 30
0.0
 11
12.402736713065861
 21
8.664897193700272
 31
0.0
  0
ARC
  8
0
 62
0
 10
12.42242175243594
 20
9.176708217322323
 30
0.0
 40
0.019685039370079593
 50
89.99999999999484
 51
-180.0
  0
ARC
  8
0
 62
0
 10
1.5844178154280624
 20
7.676708217322322
 30
0.0
 40
0.019685039370079593
 50
90.00000000000517
 51
-180.0
  0
ARC
  8
0
 62
0
 10
1.6275595477115214
 20
8.664897193700273
 30
0.0
 40
0.019685039370076485
 50
-180.0
 51
-89.99999999999353
  0
LINE
  8
0
 62
0
 10
1.3035437996800288
 20
6.3952121543301965
 30
0.0
 11
1.8153548233020755
 21
6.395212154330192
 31
0.0
  0
ARC
  8
0
 62
0
 10
1.5612700023207315
 20
8.42670421027829
 30
0.0
 40
0.019685039370077817
 50
90.0000000000013
 51
-180.0
  0
ARC
  8
0
 62
0
 10
1.303543799680026
 20
6.4148971937002734
 30
0.0
 40
0.019685039370076707
 50
-180.0
 51
-89.99999999999226
  0
ARC
  8
0
 62
0
 10
8.556112479809688
 20
6.523492413209566
 30
0.0
 40
0.019685039370079864
 50
12.000000000000291
 51
101.99999999999778
  0
ARC
  8
0
 62
0
 10
2.0962288390501094
 20
7.1648971937002734
 30
0.0
 40
0.019685039370077817
 50
-90.00000000000517
 51
-0.0
  0
LINE
  8
0
 62
0
 10
12.840787894168223
 20
7.914909004723898
 30
0.0
 11
12.840787894168223
 21
8.42672002834594
 31
0.0
  0
LINE
  8
0
 62
0
 10
2.0962288390501076
 20
7.696393256692401
 30
0.0
 11
1.5844178154280606
 21
7.696393256692401
 31
0.0
  0
LINE
  8
0
 62
0
 10
1.6275595477115237
 20
8.645212154330197
 30
0.0
 11
2.139370571333572
 21
8.645212154330197
 31
0.0
  0
LINE
  8
0
 62
0
 10
12.289606791806017
 20
8.42672002834594
 30
0.0
 11
12.289606791806017
 21
7.914909004723898
 31
0.0
  0
ARC
  8
0
 62
0
 10
12.422421752435937
 20
8.664897193700273
 30
0.0
 40
0.01968503937007604
 50
-180.0
 51
-89.99999999998965
  0
LINE
  8
0
 62
0
 10
12.309291831176097
 20
7.895223965353815
 30
0.0
 11
12.821102854798143
 21
7.895223965353815
 31
0.0
  0
ARC
  8
0
 62
0
 10
1.815354823302076
 20
6.414897193700271
 30
0.0
 40
0.019685039370078705
 50
-90.0000000000013
 51
-0.0
  0
LINE
  8
0
 62
0
 10
2.0730810259427783
 20
8.446389249648368
 30
0.0
 11
1.561270002320731
 21
8.446389249648368
 31
0.0
  0
ARC
  8
0
 62
0
 10
12.309291831176097
 20
7.914909004723897
 30
0.0
 40
0.019685039370079593
 50
-180.0
 51
-90.0
  0
LINE
  8
0
 62
0
 10
2.1590556107036507
 20
8.664897193700277
 30
0.0
 11
2.1590556107036507
 21
9.176708217322323
 31
0.0
  0
LINE
  8
0
 62
0
 10
2.1159138784201867
 20
7.164897193700272
 30
0.0
 11
2.1159138784201867
 21
7.676708217322319
 31
0.0
  0
ARC
  8
0
 62
0
 10
1.3035437996800312
 20
6.926708217322321
 30
0.0
 40
0.01968503937008048
 50
90.00000000000647
 51
-180.0
  0
ARC
  8
0
 62
0
 10
8.662523975110116
 20
6.022865688424544
 30
0.0
 40
0.019685039370081654
 50
-77.9999999999876
 51
12.000000000006779
  0
ARC
  8
0
 62
0
 10
8.055485755024668
 20
6.417080917909134
 30
0.0
 40
0.019685039370077203
 50
101.99999999998873
 51
-168.00000000000875
  0
ARC
  8
0
 62
0
 10
1.5844178154280593
 20
7.164897193700273
 30
0.0
 40
0.019685039370077373
 50
-180.0
 51
-89.99999999999612
  0
ARC
  8
0
 62
0
 10
12.821102854798141
 20
7.914909004723897
 30
0.0
 40
0.01968503937008137
 50
-89.99999999999484
 51
-0.0
  0
LINE
  8
0
 62
0
 10
12.953917815428069
 20
8.664897193700277
 30
0.0
 11
12.953917815428069
 21
9.176708217322323
 31
0.0
  0
ARC
  8
0
 62
0
 10
12.934232776057991
 20
9.176708217322323
 30
0.0
 40
0.019685039370077817
 50
-0.0
 51
90.0
  0
LINE
  8
0
 62
0
 10
2.139370571333573
 20
9.196393256692403
 30
0.0
 11
1.6275595477115248
 21
9.196393256692403
 31
0.0
  0
LINE
  8
0
 62
0
 10
8.552019729990441
 20
6.542747287239759
 30
0.0
 11
8.051393005205425
 21
6.436335791939326
 31
0.0
  0
ARC
  8
0
 62
0
 10
1.8153548233020766
 20
6.926708217322323
 30
0.0
 40
0.01968503937007826
 50
-0.0
 51
89.99999999999872
  0
ARC
  8
0
 62
0
 10
12.93423277605799
 20
8.664897193700277
 30
0.0
 40
0.019685039370079593
 50
-90.00000000000517
 51
-0.0
  0
LINE
  8
0
 62
0
 10
1.2838587603099503
 20
6.926708217322318
 30
0.0
 11
1.2838587603099494
 21
6.414897193700271
 31
0.0
  0
ARC
  8
0
 62
0
 10
2.0962288390501063
 20
7.676708217322321
 30
0.0
 40
0.01968503937008048
 50
-0.0
 51
89.99999999999612
  0
ARC
  8
0
 62
0
 10
2.073081025942778
 20
8.42670421027829
 30
0.0
 40
0.01968503937007915
 50
-0.0
 51
89.99999999999872
  0
ARC
  8
0
 62
0
 10
2.139370571333572
 20
9.176708217322323
 30
0.0
 40
0.019685039370078705
 50
-0.0
 51
89.99999999999741
  0
ARC
  8
0
 62
0
 10
12.821102854798143
 20
8.426720028345942
 30
0.0
 40
0.019685039370079593
 50
-0.0
 51
90.0
  0
LINE
  8
0
 62
0
 10
1.815354823302077
 20
6.946393256692401
 30
0.0
 11
1.303543799680029
 21
6.946393256692401
 31
0.0
  0
LINE
  8
0
 62
0
 10
12.821102854798143
 20
8.44640506771602
 30
0.0
 11
12.309291831176097
 21
8.44640506771602
 31
0.0
  0
ARC
  8
0
 62
0
 10
12.309291831176095
 20
8.426720028345942
 30
0.0
 40
0.019685039370077817
 50
89.99999999999484
 51
-180.0
  0
LINE
  8
0
 62
0
 10
1.2326042562428574
 20
7.641942331645264
 30
0.0
 11
1.2326042562428574
 21
7.1058420755900356
 31
0.0
  0
ARC
  8
0
 62
0
 10
4.874140898479453
 20
6.081306111750473
 30
0.0
 40
0.019685039370081286
 50
167.99999999999267
 51
-102.00000000000483
  0
LINE
  8
0
 62
0
 10
1.5082337887670343
 20
7.105843367447397
 30
0.0
 11
1.5081986064618769
 21
7.641943623502627
 31
0.0
  0
ARC
  8
0
 62
0
 10
12.917007103092022
 20
7.949674890400947
 30
0.0
 40
0.01968503937007856
 50
-179.99623988683877
 51
-90.00000000001035
  0
LINE
  8
0
 62
0
 10
0.6658236105663441
 20
10.126708217322323
 30
0.0
 11
0.6658236105663441
 21
9.614897193700276
 31
0.0
  0
CIRCLE
  8
0
 62
0
 10
7.669112130946563
 20
10.346789267806816
 30
0.0
 40
0.06102362204724443
  0
ARC
  8
0
 62
0
 10
4.555914252478743
 20
6.182773120765686
 30
0.0
 40
0.019685039370076075
 50
167.9999999999894
 51
-101.55623438974183
  0
LINE
  8
0
 62
0
 10
12.232867977930415
 20
7.949825586147425
 30
0.0
 11
12.232867977930415
 21
8.4857751464562
 31
0.0
  0
LINE
  8
0
 62
0
 10
12.917007103092018
 20
7.92998985103087
 30
0.0
 11
13.153231374613267
 21
7.92998985103087
 31
0.0
  0
ARC
  8
0
 62
0
 10
0.7610379233109477
 20
8.114893186656241
 30
0.0
 40
0.019685039370078705
 50
-90.0000000000013
 51
-0.0
  0
ARC
  8
0
 62
0
 10
13.153231374613274
 20
8.485775146456177
 30
0.0
 40
0.019685039370079593
 50
-0.0
 51
90.00000000002069
  0
ARC
  8
0
 62
0
 10
12.91697192078686
 20
8.485775146456177
 30
0.0
 40
0.019685039370079593
 50
89.99999999999484
 51
-179.99623988683877
  0
ARC
  8
0
 62
0
 10
12.21318293856034
 20
8.485775146456197
 30
0.0
 40
0.019685039370074264
 50
-0.0
 51
90.00000000002069
  0
LINE
  8
0
 62
0
 10
0.489792326030466
 20
9.376708217322323
 30
0.0
 11
0.4897923260304652
 21
8.864897193700271
 31
0.0
  0
ARC
  8
0
 62
0
 10
5.587231464904088
 20
6.513353663718813
 30
0.0
 40
0.01968503937007602
 50
78.0000000000026
 51
168.00376011310271
  0
LINE
  8
0
 62
0
 10
2.4482826861019147
 20
7.105842075590051
 30
0.0
 11
2.4482826861019147
 21
7.643621545933728
 31
0.0
  0
ARC
  8
0
 62
0
 10
12.213182938560337
 20
7.949825586147426
 30
0.0
 40
0.01968503937007939
 50
-89.55623438974128
 51
-0.0
  0
LINE
  8
0
 62
0
 10
13.153231374613267
 20
8.505460185826257
 30
0.0
 11
12.916971920786862
 21
8.505460185826257
 31
0.0
  0
LINE
  8
0
 62
0
 10
11.977075485966232
 20
7.928311227169319
 30
0.0
 11
12.213335401032198
 21
7.930141137204257
 31
0.0
  0
ARC
  8
0
 62
0
 10
13.153231374613272
 20
7.949674890400952
 30
0.0
 40
0.019685039370082258
 50
-90.0000000000155
 51
-0.0
  0
ARC
  8
0
 62
0
 10
4.667724891444978
 20
6.7088008194062505
 30
0.0
 40
0.01968503937007844
 50
78.00000000000675
 51
167.99999999999608
  0
LINE
  8
0
 62
0
 10
2.4284451842599752
 20
7.663305994876898
 30
0.0
 11
2.192185269194007
 21
7.6614760848419605
 31
0.0
  0
LINE
  8
0
 62
0
 10
4.902914710335577
 20
6.678934495022641
 30
0.0
 11
4.671817641264223
 21
6.728055693436444
 31
0.0
  0
LINE
  8
0
 62
0
 10
8.036230880994475
 20
6.41298816808989
 30
0.0
 11
8.142642376294907
 21
5.912361443304869
 31
0.0
  0
ARC
  8
0
 62
0
 10
5.374767623264468
 20
5.97489461645005
 30
0.0
 40
0.019685039370082653
 50
-102.00000000000122
 51
-11.999999999998671
  0
LINE
  8
0
 62
0
 10
5.394022497294665
 20
5.9708018666308025
 30
0.0
 11
5.500433992595089
 21
6.471428591415819
 31
0.0
  0
ARC
  8
0
 62
0
 10
4.980552393779877
 20
6.581932836535495
 30
0.0
 40
0.019685039370078997
 50
77.99999999999916
 51
167.99999999999918
  0
LINE
  8
0
 62
0
 10
4.648470017414786
 20
6.712893569225499
 30
0.0
 11
4.536659378448554
 21
6.186865870584937
 31
0.0
  0
ARC
  8
0
 62
0
 10
1.2522892956129363
 20
7.1058420755900356
 30
0.0
 40
0.019685039370078927
 50
-180.0
 51
-89.99999999999935
  0
LINE
  8
0
 62
0
 10
1.4885135671341854
 20
7.661627371015343
 30
0.0
 11
1.2522892956129366
 21
7.661627371015343
 31
0.0
  0
ARC
  8
0
 62
0
 10
1.2522892956129363
 20
7.6419423316452635
 30
0.0
 40
0.019685039370079593
 50
89.99999999999935
 51
-180.0
  0
LINE
  8
0
 62
0
 10
12.213182938560333
 20
8.505460185826271
 30
0.0
 11
11.976923023494368
 21
8.505460185826244
 31
0.0
  0
LINE
  8
0
 62
0
 10
2.19233773166587
 20
7.086157036219941
 30
0.0
 11
2.428597646731838
 21
7.086157036219968
 31
0.0
  0
LINE
  8
0
 62
0
 10
4.551970756217207
 20
6.1634871255298505
 30
0.0
 11
4.783448284977967
 21
6.116155849226255
 31
0.0
  0
ARC
  8
0
 62
0
 10
5.481179118564897
 20
6.475521341235067
 30
0.0
 40
0.019685039370078313
 50
-12.000000000003935
 51
77.9999999999961
  0
LINE
  8
0
 62
0
 10
2.1726526922957894
 20
7.641791635898791
 30
0.0
 11
2.1726526922957894
 21
7.10584207559002
 31
0.0
  0
ARC
  8
0
 62
0
 10
11.976923023494368
 20
8.485775146456165
 30
0.0
 40
0.019685039370079593
 50
90.0
 51
-180.0
  0
ARC
  8
0
 62
0
 10
2.4285976467318373
 20
7.643621545933731
 30
0.0
 40
0.019685039370077373
 50
-0.0
 51
90.44376561026007
  0
LINE
  8
0
 62
0
 10
4.961297519749683
 20
6.586025586354743
 30
0.0
 11
4.854886024449258
 21
6.085398861569724
 31
0.0
  0
LINE
  8
0
 62
0
 10
1.2522892956129366
 20
7.086157036219957
 30
0.0
 11
1.4885487494393457
 21
7.086157036219957
 31
0.0
  0
LINE
  8
0
 62
0
 10
4.806646655269696
 20
6.131349094642846
 30
0.0
 11
4.918076834546526
 21
6.655586871173208
 31
0.0
  0
LINE
  8
0
 62
0
 10
11.957237984124289
 20
8.485775146456167
 30
0.0
 11
11.957237984124289
 21
7.947995676112488
 31
0.0
  0
ARC
  8
0
 62
0
 10
4.787391781239503
 20
6.135441844462093
 30
0.0
 40
0.01968503937007834
 50
-101.55623438973775
 51
-12.000000000001425
  0
ARC
  8
0
 62
0
 10
8.1618972503251
 20
5.916454193124117
 30
0.0
 40
0.019685039370079864
 50
-167.99999999999972
 51
-78.00000000000223
  0
LINE
  8
0
 62
0
 10
12.897286881459172
 20
8.48577385459882
 30
0.0
 11
12.897322063764333
 21
7.9496735985435905
 31
0.0
  0
ARC
  8
0
 62
0
 10
4.898821960516337
 20
6.65967962099245
 30
0.0
 40
0.019685039370074413
 50
-11.99999999998784
 51
78.00000000001725
  0
ARC
  8
0
 62
0
 10
5.818328082815072
 20
6.46423256120208
 30
0.0
 40
0.01968503937007968
 50
-11.999999999997785
 51
78.00000000000476
  0
ARC
  8
0
 62
0
 10
2.1923377316658677
 20
7.105842075590019
 30
0.0
 40
0.01968503937007826
 50
-180.0
 51
-89.99999999999353
  0
ARC
  8
0
 62
0
 10
1.4885487494393441
 20
7.105842075590037
 30
0.0
 40
0.01968503937008048
 50
-89.99999999999548
 51
0.003760113064326522
  0
ARC
  8
0
 62
0
 10
11.976923023494368
 20
7.947995676112488
 30
0.0
 40
0.019685039370079593
 50
-180.0
 51
-89.55623438973609
  0
ARC
  8
0
 62
0
 10
2.428597646731834
 20
7.10584207559005
 30
0.0
 40
0.01968503937008137
 50
-89.99999999998838
 51
-0.0
  0
LINE
  8
0
 62
0
 10
5.485271868384145
 20
6.49477621526526
 30
0.0
 11
4.984645143599124
 21
6.601187710565688
 31
0.0
  0
LINE
  8
0
 62
0
 10
5.822420832634318
 20
6.483487435232274
 30
0.0
 11
5.5913242147233335
 21
6.532608537749003
 31
0.0
  0
LINE
  8
0
 62
0
 10
13.172916413983353
 20
7.949674890400948
 30
0.0
 11
13.172916413983353
 21
8.485775146456183
 31
0.0
  0
ARC
  8
0
 62
0
 10
2.1923377316658694
 20
7.64179163589879
 30
0.0
 40
0.019685039370080284
 50
90.44376561026131
 51
-180.0
  0
ARC
  8
0
 62
0
 10
1.4885135671341887
 20
7.641942331645264
 30
0.0
 40
0.019685039370078115
 50
0.0037601131612557126
 51
90.00000000000969
  0
ARC
  8
0
 62
0
 10
0.2492268996888979
 20
8.11489318665624
 30
0.0
 40
0.019685039370076512
 50
-180.0
 51
-89.99999999999346
  0
LINE
  8
0
 62
0
 10
1.1973196735584706
 20
10.146393256692402
 30
0.0
 11
0.6855086499364231
 21
10.146393256692402
 31
0.0
  0
ARC
  8
0
 62
0
 10
0.5094773654005452
 20
9.376708217322323
 30
0.0
 40
0.019685039370079593
 50
90.0000000000013
 51
-180.0
  0
LINE
  8
0
 62
0
 10
1.0212883890225928
 20
9.396393256692402
 30
0.0
 11
0.5094773654005448
 21
9.396393256692402
 31
0.0
  0
ARC
  8
0
 62
0
 10
0.6855086499364234
 20
9.614897193700275
 30
0.0
 40
0.01968503937007926
 50
-180.0
 51
-90.00000000000065
  0
ARC
  8
0
 62
0
 10
1.0212883890225914
 20
8.864897193700275
 30
0.0
 40
0.019685039370077817
 50
-89.99999999999872
 51
-0.0
  0
LINE
  8
0
 62
0
 10
1.2170047129285493
 20
9.614897193700276
 30
0.0
 11
1.2170047129285493
 21
10.126708217322323
 31
0.0
  0
ARC
  8
0
 62
0
 10
1.021288389022592
 20
9.376708217322323
 30
0.0
 40
0.019685039370078705
 50
-0.0
 51
89.99999999999741
  0
LINE
  8
0
 62
0
 10
8.618353721836922
 20
6.59709532146937
 30
0.0
 11
8.729849646008574
 21
6.07271745706872
 31
0.0
  0
LINE
  8
0
 62
0
 10
6.561072073289464
 20
5.093331583703061
 30
0.0
 11
7.285749645045653
 21
5.093331583703061
 31
0.0
  0
ARC
  8
0
 62
0
 10
0.5094773654005417
 20
8.864897193700273
 30
0.0
 40
0.019685039370076485
 50
-180.0
 51
-89.99999999999353
  0
ARC
  8
0
 62
0
 10
8.06062900212247
 20
5.930625601103011
 30
0.0
 40
0.019685039370081786
 50
-77.55623438975164
 51
11.999999999988054
  0
LINE
  8
0
 62
0
 10
5.471711617887948
 20
5.969706295662865
 30
0.0
 11
5.702773822311551
 21
5.9205925079586885
 31
0.0
  0
ARC
  8
0
 62
0
 10
1.1973196735584701
 20
10.126708217322323
 30
0.0
 40
0.01968503937007915
 50
-0.0
 51
89.99999999999872
  0
LINE
  8
0
 62
0
 10
8.079883876152666
 20
5.934718350922255
 30
0.0
 11
7.96845369687583
 21
6.458956127452617
 31
0.0
  0
CIRCLE
  8
0
 62
0
 10
4.1860474352644585
 20
5.794142232828235
 30
0.0
 40
0.06102362204724443
  0
CIRCLE
  8
0
 62
0
 10
-0.08476675368094858
 20
10.346789267807255
 30
0.0
 40
0.061023622047244125
  0
ARC
  8
0
 62
0
 10
1.1973196735584701
 20
9.614897193700275
 30
0.0
 40
0.019685039370077817
 50
-89.99999999999872
 51
-0.0
  0
ARC
  8
0
 62
0
 10
5.475804367707193
 20
5.9889611696930585
 30
0.0
 40
0.01968503937007852
 50
168.0037601131094
 51
-101.99999999999325
  0
CIRCLE
  8
0
 62
0
 10
-0.0847667536809482
 20
8.209705862586441
 30
0.0
 40
0.061023622047244125
  0
CIRCLE
  8
0
 62
0
 10
4.184859565946475
 20
10.34678926780725
 30
0.0
 40
0.06102362204724443
  0
LINE
  8
0
 62
0
 10
-0.13147530063638668
 20
5.763109531442889
 30
0.0
 11
3.2734240493112354
 21
5.763516818456046
 31
0.0
  0
ARC
  8
0
 62
0
 10
8.868704945144383
 20
6.650310437423705
 30
0.0
 40
0.01968503937007868
 50
12.000000000008951
 51
102.00000000000897
  0
LINE
  8
0
 62
0
 10
1.0409734283926706
 20
8.864897193700276
 30
0.0
 11
1.0409734283926706
 21
9.376708217322323
 31
0.0
  0
ARC
  8
0
 62
0
 10
0.24922689968890058
 20
8.62670421027829
 30
0.0
 40
0.019685039370077817
 50
90.00000000000122
 51
-180.0
  0
ARC
  8
0
 62
0
 10
0.7610379233109472
 20
8.62670421027829
 30
0.0
 40
0.019685039370079593
 50
-0.0
 51
90.0
  0
LINE
  8
0
 62
0
 10
0.5094773654005439
 20
8.845212154330197
 30
0.0
 11
1.021288389022592
 21
8.845212154330197
 31
0.0
  0
LINE
  8
0
 62
0
 10
8.864612195325133
 20
6.669565311453897
 30
0.0
 11
8.633515577414158
 21
6.6204442089371724
 31
0.0
  0
LINE
  8
0
 62
0
 10
14.523620566812081
 20
10.559237373138616
 30
0.0
 11
-0.13272422370328912
 21
10.559237373140228
 31
0.0
  0
LINE
  8
0
 62
0
 10
10.561584764697612
 20
5.762838924856105
 30
0.0
 11
14.523641356500656
 21
5.763536323545711
 31
0.0
  0
LINE
  8
0
 62
0
 10
5.726121446160992
 20
5.935754632169632
 30
0.0
 11
5.837582956845266
 21
6.460139811382834
 31
0.0
  0
ARC
  8
0
 62
0
 10
14.523620566812076
 20
10.441127136918142
 30
0.0
 40
0.11811023622047223
 50
-0.0
 51
89.99999999999311
  0
LINE
  8
0
 62
0
 10
7.945106073026389
 20
6.474118251663562
 30
0.0
 11
7.714009003955048
 21
6.424997053249704
 31
0.0
  0
LINE
  8
0
 62
0
 10
0.7807229626810268
 20
8.114893186656241
 30
0.0
 11
0.7807229626810268
 21
8.626704210278287
 31
0.0
  0
ARC
  8
0
 62
0
 10
8.980166455828662
 20
6.125925258210508
 30
0.0
 40
0.01968503937007931
 50
-78.00000000000729
 51
11.999999999997785
  0
LINE
  8
0
 62
0
 10
0.24922689968890016
 20
8.095208147286161
 30
0.0
 11
0.7610379233109472
 21
8.095208147286161
 31
0.0
  0
LINE
  8
0
 62
0
 10
5.567976322323113
 20
6.51744514990207
 30
0.0
 11
5.456549225126215
 21
5.993052655876314
 31
0.0
  0
LINE
  8
0
 62
0
 10
7.698846879744103
 20
6.401649429400259
 30
0.0
 11
7.810657518710334
 21
5.8756217307597005
 31
0.0
  0
LINE
  8
0
 62
0
 10
0.2295418603188214
 20
8.626704210278287
 30
0.0
 11
0.2295418603188214
 21
8.114893186656236
 31
0.0
  0
LINE
  8
0
 62
0
 10
-0.2496051391667384
 20
5.8811879244126795
 30
0.0
 11
-0.2508344556316474
 21
10.44109529529645
 31
0.0
  0
ARC
  8
0
 62
0
 10
-0.1314949072383962
 20
5.881219766035984
 30
0.0
 40
0.11811023622047251
 50
-179.98455349250733
 51
-89.99048875366928
  0
LINE
  8
0
 62
0
 10
0.6855086499364231
 20
9.595212154330197
 30
0.0
 11
1.1973196735584706
 21
9.595212154330197
 31
0.0
  0
ARC
  8
0
 62
0
 10
8.637608327233405
 20
6.601189334906978
 30
0.0
 40
0.01968503937007968
 50
101.99999999999778
 51
-167.99623988690274
  0
LINE
  8
0
 62
0
 10
14.641730803032539
 20
10.441127136918142
 30
0.0
 11
14.641730803032539
 21
5.881646557936492
 31
0.0
  0
ARC
  8
0
 62
0
 10
5.706866572130799
 20
5.939847381988881
 30
0.0
 40
0.019685039370078313
 50
-102.00000000000391
 51
-12.000000000003935
  0
ARC
  8
0
 62
0
 10
0.6855086499364234
 20
10.126708217322323
 30
0.0
 40
0.019685039370079593
 50
90.00000000000065
 51
-180.0
  0
LINE
  8
0
 62
0
 10
0.7610379233109472
 20
8.646389249648367
 30
0.0
 11
0.24922689968890016
 21
8.646389249648367
 31
0.0
  0
ARC
  8
0
 62
0
 10
3.2734436559132436
 20
5.645406583862949
 30
0.0
 40
0.11811023622047274
 50
78.395632717204
 51
90.00951124633072
  0
LINE
  8
0
 62
0
 10
7.309567636483701
 20
5.09575806486729
 30
0.0
 11
10.537787562948147
 21
5.7604124455215695
 31
0.0
  0
CIRCLE
  8
0
 62
0
 10
11.154510252319243
 20
5.977720309488341
 30
0.0
 40
0.06102362204724443
  0
CIRCLE
  8
0
 62
0
 10
-0.08476675368094858
 20
6.037385319008409
 30
0.0
 40
0.061023622047244125
  0
ARC
  8
0
 62
0
 10
7.829912392740524
 20
5.8797144805789445
 30
0.0
 40
0.01968503937007478
 50
-168.00000000000716
 51
-77.55623438974466
  0
ARC
  8
0
 62
0
 10
7.285749645045653
 20
5.211441819923534
 30
0.0
 40
0.11811023622047223
 50
-90.0
 51
-78.36601071602932
  0
CIRCLE
  8
0
 62
0
 10
11.153364226068348
 20
10.346789267806388
 30
0.0
 40
0.06102362204724443
  0
CIRCLE
  8
0
 62
0
 10
14.476376370231591
 20
10.34678926780725
 30
0.0
 40
0.06102362204724443
  0
CIRCLE
  8
0
 62
0
 10
14.476376370231591
 20
8.209705862586437
 30
0.0
 40
0.06102362204724443
  0
ARC
  8
0
 62
0
 10
6.561072073289464
 20
5.211441819923534
 30
0.0
 40
0.11811023622047265
 50
-101.60436728279579
 51
-90.0
  0
ARC
  8
0
 62
0
 10
-0.13272422370330256
 20
10.441127136919745
 30
0.0
 40
0.11811023622047223
 50
89.9999999999933
 51
-179.98455349250733
  0
LINE
  8
0
 62
0
 10
7.834154150604165
 20
5.860491882803731
 30
0.0
 11
8.06487075998611
 21
5.9114030033277905
 31
0.0
  0
CIRCLE
  8
0
 62
0
 10
14.476376370231591
 20
6.037385319008404
 30
0.0
 40
0.06102362204724443
  0
ARC
  8
0
 62
0
 10
8.749104251405054
 20
6.076811470506332
 30
0.0
 40
0.01968503937007734
 50
-167.99623988689044
 51
-77.99999999998997
  0
ARC
  8
0
 62
0
 10
7.7181017537743
 20
6.405742179219508
 30
0.0
 40
0.019685039370082525
 50
102.00000000001188
 51
-167.99999999999883
  0
LINE
  8
0
 62
0
 10
8.753197001224304
 20
6.057556596476141
 30
0.0
 11
8.984259205647907
 21
6.106670384180314
 31
0.0
  0
ARC
  8
0
 62
0
 10
14.523620566812076
 20
5.881646557936492
 30
0.0
 40
0.1181102362204724
 50
-89.98991483331571
 51
-0.0
  0
CIRCLE
  8
0
 62
0
 10
7.670416026078472
 20
5.392136780193286
 30
0.0
 40
0.06102362204724443
  0
LINE
  8
0
 62
0
 10
3.2972018355015154
 20
5.761102637394201
 30
0.0
 11
6.537313893701191
 21
5.0957457663922785
 31
0.0
  0
LINE
  8
0
 62
0
 10
8.999421329858855
 20
6.130018008029754
 30
0.0
 11
8.887959819174576
 21
6.654403187242956
 31
0.0
  0
ARC
  8
0
 62
0
 10
10.561605554386194
 20
5.644728690465326
 30
0.0
 40
0.1181102362204724
 50
90.0100851666843
 51
101.63398928397069
  0
ARC
  8
0
 62
0
 10
7.949198822845639
 20
6.45486337763337
 30
0.0
 40
0.019685039370077075
 50
11.999999999999405
 51
102.0000000000075
  0
ENDSEC
  0
EOF
