0
SECTION
2
HEADER
9
$INSUNITS
70
4
9
$ACADVER
1
AC1014
9
$HANDSEED
5
FFFF
0
ENDSEC
0
SECTION
2
TABLES
0
TABLE
2
VPORT
5
8
100
AcDbSymbolTable
0
ENDTAB
0
TABLE
2
LTYPE
5
5
100
AcDbSymbolTable
0
LTYPE
5
14
100
AcDbSymbolTableRecord
100
AcDbLinetypeTableRecord
2
BYBLOCK
70
0
0
LTYPE
5
15
100
AcDbSymbolTableRecord
100
AcDbLinetypeTableRecord
2
BYLAYER
70
0
0
ENDTAB
0
TABLE
2
LAYER
5
2
100
AcDbSymbolTable
70
2
0
LAYER
5
50
100
AcDbSymbolTableRecord
100
AcDbLayerTableRecord
2
0
70
0
6
CONTINUOUS
0
ENDTAB
0
TABLE
2
STYLE
5
3
100
AcDbSymbolTable
70
1
0
STYLE
5
11
100
AcDbSymbolTableRecord
100
AcDbTextStyleTableRecord
2
STANDARD
70
0
0
ENDTAB
0
TABLE
2
VIEW
5
6
100
AcDbSymbolTable
70
0
0
ENDTAB
0
TABLE
2
UCS
5
7
100
AcDbSymbolTable
70
0
0
ENDTAB
0
TABLE
2
APPID
5
9
100
AcDbSymbolTable
70
2
0
APPID
5
12
100
AcDbSymbolTableRecord
100
AcDbRegAppTableRecord
2
ACAD
70
0
0
ENDTAB
0
TABLE
2
DIMSTYLE
5
A
100
AcDbSymbolTable
70
1
0
ENDTAB
0
TABLE
2
BLOCK_RECORD
5
1
100
AcDbSymbolTable
70
1
0
BLOCK_RECORD
5
1F
100
AcDbSymbolTableRecord
100
AcDbBlockTableRecord
2
*MODEL_SPACE
0
BLOCK_RECORD
5
1B
100
AcDbSymbolTableRecord
100
AcDbBlockTableRecord
2
*PAPER_SPACE
0
ENDTAB
0
ENDSEC
0
SECTION
2
BLOCKS
0
BLOCK
5
20
100
AcDbEntity
100
AcDbBlockBegin
2
*MODEL_SPACE
0
ENDBLK
5
21
100
AcDbEntity
100
AcDbBlockEnd
0
BLOCK
5
1C
100
AcDbEntity
100
AcDbBlockBegin
2
*PAPER_SPACE
0
ENDBLK
5
1D
100
AcDbEntity
100
AcDbBlockEnd
0
ENDSEC
0
SECTION
2
ENTITIES
0
LWPOLYLINE
5
100
100
AcDbEntity
8
0
100
AcDbPolyline
90
8
70
1
43
0.0
10
264.91600000000005
20
-44.599700000000055
10
264.91600000000011
20
-31.599700000000119
42
-0.41421356237311585
10
265.41600000000011
20
-31.099700000000112
10
278.41600000000017
20
-31.099700000000041
42
-0.41421356237309503
10
278.91600000000017
20
-31.599700000000084
10
278.91600000000011
20
-44.599700000000055
42
-0.4142135623730534
10
278.41600000000017
20
-45.099700000000098
10
265.41600000000011
20
-45.099700000000098
42
-0.41421356237309503
0
LWPOLYLINE
5
101
100
AcDbEntity
8
0
100
AcDbPolyline
90
8
70
1
43
0.0
10
281.78950000000015
20
-12.549999999999955
10
281.7895000000002
20
-25.549999999999997
42
-0.41421356237313667
10
281.28950000000009
20
-26.050000000000004
10
268.28950000000009
20
-26.050000000000004
42
-0.41421356237315748
10
267.78950000000003
20
-25.550000000000068
10
267.78950000000009
20
-12.549999999999955
42
-0.41421356237311585
10
268.28950000000015
20
-12.049999999999947
10
281.28950000000032
20
-12.050000000000125
42
-0.41421356237309503
0
LWPOLYLINE
5
102
100
AcDbEntity
8
0
100
AcDbPolyline
90
8
70
1
43
0.0
10
14.446367715115942
20
-65.649999999999835
10
8.4453658724403624
20
-65.650000000000531
42
-0.41421356237314705
10
7.9453658724403109
20
-65.150000000000503
10
7.9453658724402922
20
-51.536881168157684
42
-0.4119468694495011
10
8.4414933256550295
20
-51.036896165001231
10
14.442495168330627
20
-50.990416450113791
42
-0.41648389417068815
10
14.946367715115887
20
-51.490401453270245
10
14.946367715115958
20
-65.149999999999721
42
-0.4142135623730378
0
LWPOLYLINE
5
103
100
AcDbEntity
8
0
100
AcDbPolyline
90
8
70
1
43
0.0
10
6.5042000000000044
20
-50.650000000000119
10
6.5042000000000044
20
-63.650000000000055
42
-0.41421356237312101
10
6.0041999999999884
20
-64.150000000000034
10
-6.9958000000000009
20
-64.150000000000034
42
-0.41421356237311585
10
-7.4958000000000036
20
-63.650000000000055
10
-7.4957999999999636
20
-50.650000000000013
42
-0.414213562373069
10
-6.9958000000000009
20
-50.150000000000006
10
6.0042000000000062
20
-50.150000000000041
42
-0.41421356237308982
0
LWPOLYLINE
5
104
100
AcDbEntity
8
0
100
AcDbPolyline
90
8
70
1
43
0.0
10
68.380044696044308
20
-89.085815731528797
42
-0.41648389417072323
10
67.991135700720534
20
-88.491995607129624
10
70.831125930462832
20
-75.130892061659367
42
-0.41421356237305001
10
71.424155576238533
20
-74.745774106701333
10
77.294021130650933
20
-75.993452546411916
42
-0.41421356237313572
10
77.679139085609037
20
-76.586482192187503
10
74.848812531977515
20
-89.902121716058701
42
-0.41194686944951991
10
74.25957392656764
20
-90.288030149640122
0
LWPOLYLINE
5
105
100
AcDbEntity
8
0
100
AcDbPolyline
90
8
70
1
43
0.0
10
-14.629999999999992
20
-69.70000000000006
42
-0.41421356237306123
10
-14.130000000000006
20
-69.200000000000017
10
-1.1299999999999777
20
-69.200000000000031
42
-0.41421356237308982
10
-0.62999999999999723
20
-69.700000000000017
10
-0.63000000000000611
20
-82.700000000000102
42
-0.41421356237310025
10
-1.1300000000000221
20
-83.200000000000102
10
-14.130000000000006
20
-83.200000000000003
42
-0.41421356237311846
10
-14.630000000000027
20
-82.700000000000102
0
LWPOLYLINE
5
106
100
AcDbEntity
8
0
100
AcDbPolyline
90
8
70
1
43
0.0
10
280.35196790774131
20
-43.716679316979814
10
280.35107427719026
20
-30.099732813176985
42
-0.41423278401777491
10
280.85107427611365
20
-29.599700000000091
10
286.85206440330427
20
-29.599700000000055
42
-0.41421356237321988
10
287.3520644033045
20
-30.099700000000098
10
287.3520644033045
20
-43.716646503802821
42
-0.41421356237313667
10
286.85206440330433
20
-44.216646503802899
10
280.85196790666453
20
-44.216646503802991
42
-0.41419434098962582
0
LWPOLYLINE
5
107
100
AcDbEntity
8
0
100
AcDbPolyline
90
8
70
1
43
0.0
10
256.97383228488422
20
-29.599700000000411
10
262.97483412755969
20
-29.599699999999736
42
-0.41421356237315748
10
263.4748341275598
20
-30.09969999999953
10
263.47483412755975
20
-43.712818831842419
42
-0.41194686944954773
10
262.97870667434501
20
-44.212803834998873
10
256.97770483166954
20
-44.259283549886426
42
-0.41648389417072429
10
256.47383228488411
20
-43.759298546729823
10
256.47383228488417
20
-30.099700000000453
42
-0.41421356237309503
0
LWPOLYLINE
5
108
100
AcDbEntity
8
0
100
AcDbPolyline
90
8
70
1
43
0.0
10
7.1000000000000085
20
-12.049999999999956
42
-0.41421356237307944
10
7.5999999999999801
20
-12.549999999999955
10
7.599999999999989
20
-25.549999999999997
42
-0.41421356237310025
10
7.099999999999973
20
-26.050000000000004
10
-5.900000000000043
20
-26.050000000000004
42
-0.41421356237312623
10
-6.4000000000000323
20
-25.550000000000068
10
-6.4000000000000412
20
-12.549999999999955
42
-0.4142135623730846
10
-5.9000000000000163
20
-12.049999999999912
0
LWPOLYLINE
5
109
100
AcDbEntity
8
0
100
AcDbPolyline
90
8
70
1
43
0.0
10
100.64947663703893
20
-80.95780786508719
42
-0.41421356237311108
10
101.03459459199705
20
-81.550837510863019
10
98.203472220616447
20
-94.870221062878372
42
-0.41421356237309503
10
97.610442574840661
20
-95.255339017836334
10
91.741462582481148
20
-94.00784881015025
42
-0.41419434098969721
10
91.35633780633313
20
-93.414851260728653
10
94.186586075134329
20
-80.095281912474476
42
-0.41423278401774521
10
94.779622542099915
20
-79.710131861162353
0
LWPOLYLINE
5
110
100
AcDbEntity
8
0
100
AcDbPolyline
90
8
70
1
43
0.0
10
5.416245547073828
20
-31.100101778918443
42
-0.41421356237308982
10
5.9162455470738262
20
-31.60010177891845
10
5.9162455470737996
20
-44.600101778918457
42
-0.41421356237313667
10
5.416245547073828
20
-45.1001017789185
10
-7.5837544529261747
20
-45.100101778918507
42
-0.41421356237308204
10
-8.0837544529261685
20
-44.600101778918635
10
-8.0837544529261329
20
-31.600101778918557
42
-0.41421356237314705
10
-7.5837544529261791
20
-31.100101778918479
0
LWPOLYLINE
5
111
100
AcDbEntity
8
0
100
AcDbPolyline
90
8
70
1
43
0.0
10
173.27717025629113
20
-92.553644388594648
42
-0.41421356237305429
10
172.89205230133319
20
-93.146674034370548
10
160.17613349179362
20
-95.849526015001373
42
-0.41421356237308266
10
159.58310384601785
20
-95.464408060043354
10
156.88025186538692
20
-82.748489250503809
42
-0.41421356237311541
10
157.26536982034503
20
-82.155459604728122
10
169.98128862988443
20
-79.452607624097141
42
-0.41421356237309503
10
170.57431827566023
20
-79.837725579055174
0
LWPOLYLINE
5
112
100
AcDbEntity
8
0
100
AcDbPolyline
90
8
70
1
43
0.0
10
76.459210464096429
20
-91.662287281891963
42
-0.41421356237310525
10
76.07409250913841
20
-91.069257636116063
10
78.776944489769207
20
-78.353338826576532
42
-0.41421356237310308
10
79.369974135545021
20
-77.968220871618499
10
92.08589294508451
20
-80.671072852249367
42
-0.41421356237315182
10
92.471010900042529
20
-81.26410249802521
10
89.768158919411732
20
-93.980021307564641
42
-0.41421356237310736
10
89.175129273635818
20
-94.365139262522746
0
LWPOLYLINE
5
113
100
AcDbEntity
8
0
100
AcDbPolyline
90
8
70
1
43
0.0
10
-9.4308742761133644
20
-65.650000000000091
10
-15.431864403304152
20
-65.650000000000119
42
-0.41421356237309764
10
-15.931864403304164
20
-65.150000000000119
10
-15.931864403304164
20
-51.533053496197319
42
-0.41421356237307683
10
-15.431864403304152
20
-51.033053496197347
10
-9.4317679066644331
20
-51.03305349619734
42
-0.41419434098965446
10
-8.9317679077410705
20
-51.533020683020254
10
-8.9308742771901013
20
-65.149967186823091
42
-0.41423278401777236
0
CIRCLE
5
114
100
AcDbEntity
8
0
100
AcDbCircle
10
320.4599472920097
20
17.170058682317126
30
0
40
1.5500000000000083
210
0
220
0
230
1
0
LWPOLYLINE
5
115
100
AcDbEntity
8
0
100
AcDbPolyline
90
8
70
1
43
0.0
10
157.60770479177444
20
-95.488752435461095
10
151.747502913473
20
-96.781894896772243
42
-0.41648389417067294
10
151.15068846336976
20
-96.397596758690639
10
148.31069823362748
20
-83.03649321322041
42
-0.41421356237305001
10
148.69581618858547
20
-82.443463567444553
10
154.5656817429975
20
-81.195785127732535
42
-0.41421356237314011
10
155.15871138877333
20
-81.580903082690526
10
157.98903794240493
20
-94.896542606561752
42
-0.411946869449548
0
LWPOLYLINE
5
116
100
AcDbEntity
8
0
100
AcDbPolyline
90
8
70
1
43
0.0
10
-40.909649259774675
20
-26.020101778918487
10
-27.909649259774678
20
-26.020101778918402
42
-0.41421356237309503
10
-27.409649259774657
20
-26.520101778918423
10
-27.40964925977466
20
-39.520101778918502
42
-0.41421356237310025
10
-27.909649259774678
20
-40.020101778918509
10
-40.909649259774675
20
-40.020101778918445
42
-0.41421356237306384
10
-41.409649259774675
20
-39.520101778918608
10
-41.409649259774604
20
-26.520101778918423
42
-0.41421356237308982
0
LWPOLYLINE
5
117
100
AcDbEntity
8
0
100
AcDbPolyline
90
8
70
1
43
0.0
10
-30.3280928034876
20
-1.4199999999999946
10
-30.328092803487596
20
11.580000000000013
42
-0.41421356237309243
10
-29.828092803487593
20
12.08000000000002
10
-16.828092803487593
20
12.080000000000023
42
-0.41421356237308721
10
-16.328092803487593
20
11.580000000000013
10
-16.328092803487632
20
-1.4199999999999946
42
-0.41421356237308982
10
-16.828092803487596
20
-1.9199999999999662
10
-29.828092803487593
20
-1.9200000000000061
42
-0.41421356237309243
0
LWPOLYLINE
5
118
100
AcDbEntity
8
0
100
AcDbPolyline
90
8
70
1
43
0.0
10
-34.299287430698904
20
-6.9699999999999918
10
-21.299287430698882
20
-6.9699999999999651
42
-0.4142135623730846
10
-20.799287430698904
20
-7.4699999999999633
10
-20.799287430698943
20
-20.470000000000006
42
-0.41421356237308982
10
-21.299287430698904
20
-20.969999999999978
10
-34.299287430698925
20
-20.97000000000002
42
-0.41421356237310802
10
-34.799287430698925
20
-20.470000000000113
10
-34.799287430698868
20
-7.4699999999999633
42
-0.41421356237308982
0
CIRCLE
5
119
100
AcDbEntity
8
0
100
AcDbCircle
10
147.55543561416994
20
17.170058682306149
30
0
40
1.5500000000000083
210
0
220
0
230
1
0
CIRCLE
5
120
100
AcDbEntity
8
0
100
AcDbCircle
10
236.084547897036
20
-93.804292858983175
30
0
40
1.5500000000000083
210
0
220
0
230
1
0
CIRCLE
5
121
100
AcDbEntity
8
0
100
AcDbCircle
10
236.05543883026326
20
17.170058682295206
30
0
40
1.5500000000000083
210
0
220
0
230
1
0
CIRCLE
5
122
100
AcDbEntity
8
0
100
AcDbCircle
10
320.4599472920097
20
-37.111859810291499
30
0
40
1.5500000000000083
210
0
220
0
230
1
0
CIRCLE
5
123
100
AcDbEntity
8
0
100
AcDbCircle
10
59.055420463167721
20
17.170058682317126
30
0
40
1.5500000000000083
210
0
220
0
230
1
0
LWPOLYLINE
5
124
100
AcDbEntity
8
0
100
AcDbPolyline
90
16
70
1
43
0.0
10
119.41121814967964
20
-116.26776649392923
42
-0.050676919429016781
10
118.80776038813761
20
-116.20644625362316
10
36.508914109865714
20
-99.306381730174195
42
0.050718526737535692
10
35.904958340632625
20
-99.245061531203362
10
-50.579485148036973
20
-99.255406621337727
42
-0.41418322193417156
10
-53.579983046707902
20
-96.256215439904267
10
-53.611207684916529
20
19.56543178054325
42
-0.41429252636751379
10
-50.611207793936259
20
22.566240557774506
10
321.65994988515411
20
22.566240557733614
42
-0.41421356237308116
10
324.65994988515376
20
19.566240557733785
10
324.65994988515399
20
-96.244566148400139
42
-0.41416200843458961
10
321.6604779432439
20
-99.24456610192594
10
221.02424051144664
20
-99.262280028641925
42
0.05076238424355068
10
220.41979158701022
20
-99.323912603739132
10
138.42300545481328
20
-116.2061338723578
42
-0.050806502575734928
10
137.81802847228681
20
-116.26776649392923
0
CIRCLE
5
125
100
AcDbEntity
8
0
100
AcDbCircle
10
320.4599472920097
20
-92.288801617173561
30
0
40
1.5500000000000083
210
0
220
0
230
1
0
LWPOLYLINE
5
126
100
AcDbEntity
8
0
100
AcDbPolyline
90
8
70
1
43
0.0
10
175.09119131922449
20
-91.776451169493001
42
-0.41419434098970198
10
174.49816849674502
20
-91.391365310441515
10
171.66617202278505
20
-78.072167554665029
42
-0.41423278401773461
10
172.05128315444685
20
-77.479105812982851
10
177.92113724938562
20
-76.231429809058
42
-0.41421356237307466
10
178.51416689516145
20
-76.616547764015905
10
181.34528926654218
20
-89.935931316031215
42
-0.41421356237310153
10
180.96017131158416
20
-90.528960961807044
0
LWPOLYLINE
5
127
100
AcDbEntity
8
0
100
AcDbPolyline
90
8
70
1
43
0.0
10
36.960000000000043
20
-50.15000000000002
42
-0.41421356237306384
10
37.460000000000051
20
-50.650000000000084
10
37.460000000000015
20
-63.650000000000055
42
-0.41421356237309503
10
36.960000000000043
20
-64.150000000000034
10
23.960000000000015
20
-64.15000000000002
42
-0.41421356237312101
10
23.460000000000008
20
-63.650000000000055
10
23.460000000000054
20
-50.650000000000119
42
-0.41421356237313667
10
23.960000000000026
20
-50.150000000000006
0
LWPOLYLINE
5
128
100
AcDbEntity
8
0
100
AcDbPolyline
90
8
70
1
43
0.0
10
18.110000000000007
20
-31.600000000000037
42
-0.41421356237310025
10
18.609999999999989
20
-31.100000000000065
10
31.610000000000049
20
-31.100000000000048
42
-0.41421356237310025
10
32.110000000000049
20
-31.600000000000037
10
32.110000000000049
20
-44.600000000000044
42
-0.41421356237309503
10
31.610000000000042
20
-45.100000000000051
10
18.610000000000007
20
-45.100000000000044
42
-0.41421356237309503
10
18.110000000000007
20
-44.600000000000044
0
LWPOLYLINE
5
129
100
AcDbEntity
8
0
100
AcDbPolyline
90
8
70
1
43
0.0
10
17.412500000000001
20
-12.549999999999955
42
-0.41421356237308982
10
17.912499999999998
20
-12.049999999999947
10
30.912499999999994
20
-12.049999999999947
42
-0.41421356237308982
10
31.412499999999994
20
-12.549999999999955
10
31.412499999999994
20
-25.549999999999997
42
-0.41421356237308982
10
30.912499999999994
20
-26.050000000000004
10
17.912500000000009
20
-26.050000000000004
42
-0.41421356237309503
10
17.412500000000001
20
-25.549999999999997
0
CIRCLE
5
130
100
AcDbEntity
8
0
100
AcDbCircle
10
-49.393088055368821
20
-37.111859810291392
30
0
40
1.5500000000000007
210
0
220
0
230
1
0
CIRCLE
5
131
100
AcDbEntity
8
0
100
AcDbCircle
10
-49.393088055368828
20
17.170058682317304
30
0
40
1.5500000000000007
210
0
220
0
230
1
0
LWPOLYLINE
5
132
100
AcDbEntity
8
0
100
AcDbPolyline
90
8
70
1
43
0.0
10
6.9999999999999662
20
-6.5000000000000213
42
-0.41421356237308982
10
6.5000000000000036
20
-6.9999999999999929
10
-6.5000000000000036
20
-7.0000000000000284
42
-0.41421356237308982
10
-7.0000000000000018
20
-6.5000000000000213
10
-7.0000000000000018
20
6.5000000000000213
42
-0.41421356237308982
10
-6.5000000000000036
20
7.0000000000000284
10
6.5000000000000124
20
7.0000000000000373
42
-0.4142135623730846
10
7.0000000000000107
20
6.5000000000000213
0
LWPOLYLINE
5
133
100
AcDbEntity
8
0
100
AcDbPolyline
90
8
70
1
43
0.0
10
25.550000000000004
20
-7.0000000000000639
10
12.549999999999999
20
-7.0000000000000284
42
-0.41421356237308982
10
12.050000000000001
20
-6.5000000000000213
10
12.049999999999965
20
6.5000000000000213
42
-0.41421356237308982
10
12.549999999999999
20
7.0000000000000639
10
25.550000000000015
20
7.0000000000000373
42
-0.41421356237309503
10
26.050000000000033
20
6.5000000000000213
10
26.050000000000058
20
-6.5000000000000213
42
-0.41421356237310025
0
LWPOLYLINE
5
134
100
AcDbEntity
8
0
100
AcDbPolyline
90
8
70
1
43
0.0
10
45.099999999999987
20
-4.9996000000000862
42
-0.41421356237306384
10
44.600000000000037
20
-5.4996000000000933
10
31.600000000000009
20
-5.4996000000001555
42
-0.414213562373069
10
31.099999999999987
20
-4.9996000000000862
10
31.10000000000003
20
8.0004000000000275
42
-0.41421356237310025
10
31.600000000000044
20
8.5004000000000346
10
44.600000000000016
20
8.5004000000000346
42
-0.41421356237309503
10
45.100000000000023
20
8.0004000000000275
0
LWPOLYLINE
5
135
100
AcDbEntity
8
0
100
AcDbPolyline
90
8
70
1
43
0.0
10
292.69300000000032
20
11.762500000000138
10
305.69299999999998
20
11.762500000000173
42
-0.41421356237315748
10
306.19300000000004
20
11.262500000000024
10
306.19299999999998
20
-1.7375000000000185
42
-0.41421356237309503
10
305.69299999999998
20
-2.2374999999999901
10
292.69300000000032
20
-2.2375000000001322
42
-0.41421356237309503
10
292.19300000000021
20
-1.7375000000000185
10
292.19300000000021
20
11.262500000000024
42
-0.41421356237309503
0
LWPOLYLINE
5
136
100
AcDbEntity
8
0
100
AcDbPolyline
90
8
70
1
43
0.0
10
310.36499999999995
20
-20.78750000000003
42
-0.41421356237309503
10
309.86500000000001
20
-21.287500000000001
10
296.86500000000012
20
-21.287500000000001
42
-0.41421356237313667
10
296.36500000000007
20
-20.78750000000003
10
296.36500000000001
20
-7.7874999999999517
42
-0.41421356237313667
10
296.86500000000012
20
-7.2874999999999446
10
309.86500000000001
20
-7.2874999999999091
42
-0.41421356237309503
10
310.36500000000001
20
-7.7874999999999517
0
CIRCLE
5
137
100
AcDbEntity
8
0
100
AcDbCircle
10
-49.393088055368828
20
-92.288801617173419
30
0
40
1.5500000000000007
210
0
220
0
230
1
0
CIRCLE
5
138
100
AcDbEntity
8
0
100
AcDbCircle
10
59.08559234384451
20
-98.467176006149828
30
0
40
1.5500000000000083
210
0
220
0
230
1
0
CIRCLE
5
139
100
AcDbEntity
8
0
100
AcDbCircle
10
147.58855455052043
20
-108.67811450307755
30
0
40
1.5500000000000083
210
0
220
0
230
1
0
LWPOLYLINE
5
140
100
AcDbEntity
8
0
100
AcDbPolyline
90
8
70
1
43
0.0
10
300.63500000000005
20
-87.463000000000108
10
300.63500000000016
20
-74.463000000000079
42
-0.41421356237307422
10
301.13500000000033
20
-73.963000000000108
10
314.13500000000022
20
-73.963000000000136
42
-0.41421356237307422
10
314.63500000000005
20
-74.463000000000079
10
314.63500000000005
20
-87.463000000000122
42
-0.41421356237311585
10
314.13500000000022
20
-87.963000000000136
10
301.13500000000033
20
-87.96300000000025
42
-0.41421356237311585
0
LWPOLYLINE
5
141
100
AcDbEntity
8
0
100
AcDbPolyline
90
8
70
1
43
0.0
10
224.43500000000023
20
-63.650000000000055
10
224.43500000000023
20
-50.650000000000119
42
-0.41421356237313667
10
224.93500000000017
20
-50.150000000000006
10
237.93500000000023
20
-50.150000000000041
42
-0.41421356237309503
10
238.43500000000009
20
-50.650000000000119
10
238.43500000000006
20
-63.650000000000055
42
-0.41421356237311585
10
237.93500000000012
20
-64.150000000000034
10
224.93500000000017
20
-64.149999999999991
42
-0.41421356237311585
0
LWPOLYLINE
5
142
100
AcDbEntity
8
0
100
AcDbPolyline
90
8
70
1
43
0.0
10
257.47000000000003
20
-26.050000000000004
10
244.47000000000017
20
-26.050000000000075
42
-0.41421356237315748
10
243.96999999999997
20
-25.549999999999997
10
243.96999999999989
20
-12.550000000000097
42
-0.41421356237315748
10
244.47000000000017
20
-12.049999999999912
10
257.47000000000003
20
-12.049999999999912
42
-0.41421356237313667
10
257.97000000000014
20
-12.549999999999955
10
257.97000000000014
20
-25.549999999999997
42
-0.41421356237313667
0
LWPOLYLINE
5
143
100
AcDbEntity
8
0
100
AcDbPolyline
90
8
70
1
43
0.0
10
314.63500000000005
20
-26.837500000000034
10
314.63500000000005
20
-39.837500000000006
42
-0.41421356237313667
10
314.1350000000001
20
-40.337499999999977
10
301.13500000000022
20
-40.337500000000048
42
-0.41421356237309503
10
300.63500000000022
20
-39.837500000000006
10
300.6350000000001
20
-26.837500000000141
42
-0.4142135623731783
10
301.13500000000022
20
-26.337500000000134
10
314.1350000000001
20
-26.337500000000063
42
-0.41421356237313667
0
LWPOLYLINE
5
144
100
AcDbEntity
8
0
100
AcDbPolyline
90
8
70
1
43
0.0
10
247.45999999999998
20
-45.100000000000051
10
234.46000000000012
20
-45.100000000000016
42
-0.41421356237307422
10
233.96000000000009
20
-44.600000000000009
10
233.96000000000012
20
-31.600000000000037
42
-0.41421356237309503
10
234.46000000000012
20
-31.10000000000003
10
247.45999999999998
20
-31.099999999999959
42
-0.4142135623731783
10
247.96000000000018
20
-31.600000000000072
10
247.96000000000021
20
-44.599999999999937
42
-0.41421356237315748
0
LWPOLYLINE
5
145
100
AcDbEntity
8
0
100
AcDbPolyline
90
8
70
1
43
0.0
10
295.58500000000015
20
-68.412500000000051
42
-0.41421356237313667
10
295.08500000000015
20
-68.912500000000023
10
282.08500000000021
20
-68.912499999999966
42
-0.4142135623731783
10
281.58500000000015
20
-68.412500000000051
10
281.58500000000026
20
-55.412500000000016
42
-0.41421356237309503
10
282.08500000000021
20
-54.912500000000044
10
295.08500000000021
20
-54.912500000000044
42
-0.41421356237309503
10
295.58500000000015
20
-55.412500000000016
0
LWPOLYLINE
5
146
100
AcDbEntity
8
0
100
AcDbPolyline
90
8
70
1
43
0.0
10
228.91000000000008
20
-44.708900000000007
42
-0.41421356237311585
10
228.40999999999997
20
-45.208900000000085
10
215.41000000000003
20
-45.208900000000085
42
-0.41421356237309503
10
214.91000000000008
20
-44.708900000000114
10
214.91000000000011
20
-31.708899999999964
42
-0.41421356237307422
10
215.41
20
-31.208900000000028
10
228.41000000000003
20
-31.208900000000028
42
-0.41421356237315748
10
228.91000000000014
20
-31.708900000000035
0
LWPOLYLINE
5
147
100
AcDbEntity
8
0
100
AcDbPolyline
90
8
70
1
43
0.0
10
295.58500000000026
20
-74.463000000000079
10
295.58500000000015
20
-87.463000000000122
42
-0.41421356237313667
10
295.08500000000015
20
-87.963000000000108
10
282.08500000000021
20
-87.963000000000093
42
-0.41421356237309503
10
281.58500000000026
20
-87.463000000000122
10
281.58500000000021
20
-74.463000000000079
42
-0.41421356237313667
10
282.08500000000026
20
-73.963000000000079
10
295.08500000000021
20
-73.963000000000036
42
-0.41421356237309503
0
LWPOLYLINE
5
148
100
AcDbEntity
8
0
100
AcDbPolyline
90
8
70
1
43
0.0
10
262.53500000000003
20
-87.463000000000108
10
262.53499999999997
20
-74.463000000000079
42
-0.41421356237313667
10
263.03500000000025
20
-73.963000000000079
10
276.03500000000008
20
-73.963000000000221
42
-0.41421356237307422
10
276.53500000000014
20
-74.463000000000079
10
276.53500000000014
20
-87.463000000000122
42
-0.41421356237313667
10
276.03500000000008
20
-87.963000000000108
10
263.0350000000002
20
-87.963000000000164
42
-0.41421356237316787
0
LWPOLYLINE
5
149
100
AcDbEntity
8
0
100
AcDbPolyline
90
8
70
1
43
0.0
10
238.42000000000013
20
-12.049999999999983
42
-0.41421356237309503
10
238.9200000000001
20
-12.549999999999955
10
238.9200000000001
20
-25.549999999999997
42
-0.41421356237309503
10
238.42000000000013
20
-26.049999999999969
10
225.42000000000002
20
-26.049999999999933
42
-0.41421356237311585
10
224.92000000000004
20
-25.549999999999997
10
224.91999999999993
20
-12.549999999999955
42
-0.41421356237313667
10
225.42000000000004
20
-12.049999999999912
0
LWPOLYLINE
5
150
100
AcDbEntity
8
0
100
AcDbPolyline
90
8
70
1
43
0.0
10
106.30916837749228
20
-39.069376809214162
42
-0.41421356237311541
10
105.71613873171654
20
-39.454494764172132
10
93.00021992217701
20
-36.751642783541207
42
-0.41421356237309503
10
92.615101967219033
20
-36.158613137765414
10
95.317953947849901
20
-23.442694328226011
42
-0.41421356237310369
10
95.910983593625616
20
-23.057576373268027
10
108.62690240316513
20
-25.760428353898849
42
-0.41421356237307905
10
109.01202035812311
20
-26.353457999674603
0
LWPOLYLINE
5
151
100
AcDbEntity
8
0
100
AcDbPolyline
90
8
70
1
43
0.0
10
53.423392945084494
20
-33.502172852249423
42
-0.41421356237307255
10
53.808510900042521
20
-34.095202498025081
10
51.105658919411653
20
-46.811121307564818
42
-0.41421356237307255
10
50.512629273635945
20
-47.19623926252261
10
37.796710464096364
20
-44.493387281891813
42
-0.41421356237308266
10
37.411592509138394
20
-43.900357636115999
10
40.114444489769248
20
-31.18443882657651
42
-0.41421356237308488
10
40.707474135545027
20
-30.799320871618541
0
LWPOLYLINE
5
152
100
AcDbEntity
8
0
100
AcDbPolyline
90
8
70
1
43
0.0
10
230.78000000000014
20
7.0000000000000639
10
243.78000000000017
20
7.0000000000000284
42
-0.41421356237301177
10
244.28000000000003
20
6.5000000000000213
10
244.28
20
-6.5000000000000213
42
-0.4142135623730534
10
243.78000000000017
20
-7.0000000000000639
10
230.78000000000014
20
-7.0000000000000284
42
-0.41421356237309503
10
230.28000000000014
20
-6.5000000000000213
10
230.28000000000009
20
6.5000000000000213
42
-0.41421356237309503
0
LWPOLYLINE
5
153
100
AcDbEntity
8
0
100
AcDbPolyline
90
8
70
1
43
0.0
10
225.22999999999996
20
-4.9996000000000862
42
-0.41421356237307422
10
224.72999999999999
20
-5.4996000000000933
10
211.73000000000016
20
-5.4996000000001644
42
-0.4142135623731783
10
211.23000000000008
20
-4.9995999999999441
10
211.23000000000016
20
8.0004000000000275
42
-0.41421356237309503
10
211.73000000000016
20
8.5004000000000346
10
224.72999999999996
20
8.5004000000000346
42
-0.41421356237309503
10
225.22999999999996
20
8.0004000000000275
0
LWPOLYLINE
5
154
100
AcDbEntity
8
0
100
AcDbPolyline
90
8
70
1
43
0.0
10
93.313092509138471
20
-55.782557636116046
10
96.015944489769382
20
-43.066638826576494
42
-0.41421356237312401
10
96.608974135545012
20
-42.681520871618517
10
109.32489294508454
20
-45.384372852249399
42
-0.41421356237311541
10
109.71001090004253
20
-45.977402498025128
10
107.00715891941169
20
-58.693321307564609
42
-0.41421356237311974
10
106.41412927363592
20
-59.078439262522799
10
93.698210464096405
20
-56.375587281891782
42
-0.41421356237305429
0
LWPOLYLINE
5
155
100
AcDbEntity
8
0
100
AcDbPolyline
90
8
70
1
43
0.0
10
108.59594448976921
20
-6.7893388265765253
42
-0.41421356237309503
10
109.18897413554492
20
-6.4042208716185556
10
121.90489294508455
20
-9.1070728522494147
42
-0.41421356237307905
10
122.29001090004257
20
-9.7001024980250605
10
119.58715891941171
20
-22.416021307564584
42
-0.41421356237311541
10
118.99412927363599
20
-22.801139262522661
10
106.27821046409639
20
-20.098287281891729
42
-0.41421356237307466
10
105.8930925091384
20
-19.505257636115942
0
LWPOLYLINE
5
156
100
AcDbEntity
8
0
100
AcDbPolyline
90
8
70
1
43
0.0
10
77.276974135545032
20
-19.096920871618508
10
89.992892945084506
20
-21.799772852249404
42
-0.41421356237307466
10
90.37801090004254
20
-22.392802498025084
10
87.675158919411643
20
-35.108721307564601
42
-0.41421356237314011
10
87.0821292736359
20
-35.493839262522577
10
74.366210464096426
20
-32.790987281891773
42
-0.41421356237309137
10
73.981092509138421
20
-32.197957636116001
10
76.683944489769289
20
-19.482038826576506
42
-0.41421356237308055
0
LWPOLYLINE
5
157
100
AcDbEntity
8
0
100
AcDbPolyline
90
8
70
1
43
0.0
10
82.319158919411592
20
-14.494621307564588
42
-0.41421356237311541
10
81.726129273635905
20
-14.879739262522627
10
69.010210464096332
20
-12.176887281891887
42
-0.41421356237306239
10
68.625092509138426
20
-11.583857636116051
10
71.327944489769294
20
1.1320611734235151
42
-0.41421356237308055
10
71.920974135545023
20
1.5171791283815139
10
84.636892945084483
20
-1.1856728522494091
42
-0.41421356237309936
10
85.022010900042559
20
-1.7787024980251687
0
LWPOLYLINE
5
158
100
AcDbEntity
8
0
100
AcDbPolyline
90
8
70
1
43
0.0
10
262.83000000000004
20
-7.0000000000000639
10
249.83000000000001
20
-6.9999999999999218
42
-0.41421356237309503
10
249.3300000000001
20
-6.5000000000000213
10
249.32999999999996
20
6.5000000000000213
42
-0.41421356237309503
10
249.83000000000001
20
7.0000000000000639
10
262.83000000000004
20
6.9999999999999929
42
-0.41421356237309503
10
263.33000000000004
20
6.5000000000000213
10
263.3300000000001
20
-6.5000000000000213
42
-0.41421356237309503
0
LWPOLYLINE
5
159
100
AcDbEntity
8
0
100
AcDbPolyline
90
8
70
1
43
0.0
10
52.725792945084599
20
-13.878272852249292
42
-0.41421356237310525
10
53.110910900042512
20
-14.471302498025018
10
50.40805891941168
20
-27.187221307564617
42
-0.41421356237308266
10
49.81502927363583
20
-27.572339262522725
10
37.099110464096412
20
-24.869487281891757
42
-0.41421356237311757
10
36.713992509138393
20
-24.276457636115936
10
39.416844489769296
20
-11.560538826576487
42
-0.4142135623730972
10
40.009874135545054
20
-11.175420871618478
0
LWPOLYLINE
5
160
100
AcDbEntity
8
0
100
AcDbPolyline
90
8
70
1
43
0.0
10
58.643974135545001
20
-15.136220871618491
10
71.359892945084482
20
-17.839072852249423
42
-0.41421356237307905
10
71.745010900042601
20
-18.432102498025174
10
69.04215891941169
20
-31.148021307564612
42
-0.41421356237309137
10
68.449129273635819
20
-31.53313926252256
10
55.733210464096402
20
-28.830287281891835
42
-0.41421356237311324
10
55.34809250913839
20
-28.23725763611602
10
58.050944489769272
20
-15.52133882657651
42
-0.41421356237312401
0
LWPOLYLINE
5
161
100
AcDbEntity
8
0
100
AcDbPolyline
90
8
70
1
43
0.0
10
63.092629273635914
20
-10.91903926252261
10
50.376710464096476
20
-8.2161872818918464
42
-0.41421356237309875
10
49.991592509138407
20
-7.6231576361160336
10
52.694444489769353
20
5.0927611734235168
42
-0.41421356237313212
10
53.287474135545033
20
5.4778791283815309
10
66.003392945084542
20
2.7750271477505377
42
-0.41421356237305218
10
66.388510900042533
20
2.1819975019748838
10
63.685658919411729
20
-10.533921307564601
42
-0.41421356237308704
0
LWPOLYLINE
5
162
100
AcDbEntity
8
0
100
AcDbPolyline
90
8
70
1
43
0.0
10
101.37194448976928
20
-63.680738826576544
42
-0.41421356237311541
10
101.96497413554508
20
-63.295620871618539
10
114.68089294508457
20
-65.998472852249236
42
-0.41421356237311541
10
115.06601090004256
20
-66.591502498025108
10
112.36315891941163
20
-79.307421307564596
42
-0.41421356237311974
10
111.77012927363575
20
-79.692539262522715
10
99.054210464096442
20
-76.989687281891875
42
-0.41421356237313145
10
98.669092509138281
20
-76.396657636116061
0
LWPOLYLINE
5
163
100
AcDbEntity
8
0
100
AcDbPolyline
90
8
70
1
43
0.0
10
120.0368929450845
20
-86.612072852249526
42
-0.41421356237312773
10
120.42201090004252
20
-87.205102498025212
10
117.71915891941178
20
-99.921021307564772
42
-0.41421356237311324
10
117.12612927363594
20
-100.30613926252289
10
104.41021046409642
20
-97.603287281891809
42
-0.41421356237309503
10
104.0250925091384
20
-97.010257636116052
10
106.72794448976923
20
-84.29433882657662
42
-0.41421356237309503
10
107.32097413554501
20
-83.909220871618516
0
LWPOLYLINE
5
164
100
AcDbEntity
8
0
100
AcDbPolyline
90
8
70
1
43
0.0
10
268.38000000000022
20
6.5000000000000213
42
-0.41421356237309503
10
268.88000000000022
20
7.0000000000000284
10
281.88000000000011
20
6.9999999999999929
42
-0.41421356237313667
10
282.38000000000011
20
6.5000000000000213
10
282.38000000000011
20
-6.5000000000000213
42
-0.41421356237313667
10
281.88000000000011
20
-6.9999999999999929
10
268.88000000000022
20
-7.0000000000000995
42
-0.41421356237309503
10
268.38000000000017
20
-6.5000000000000213
0
LWPOLYLINE
5
165
100
AcDbEntity
8
0
100
AcDbPolyline
90
8
70
1
43
0.0
10
59.341005205871909
20
-34.759874692033286
10
72.056924015411397
20
-37.462726672664168
42
-0.41421356237312401
10
72.442041970369402
20
-38.055756318439968
10
69.739189989738534
20
-50.771675127979492
42
-0.41421356237308704
10
69.146160343962833
20
-51.156793082937462
10
56.430241534423303
20
-48.453941102306509
42
-0.41421356237311541
10
56.045123579465297
20
-47.860911456530921
10
58.747975560096137
20
-35.144992646991291
42
-0.41421356237310525
0
LWPOLYLINE
5
166
100
AcDbEntity
8
0
100
AcDbPolyline
90
8
70
1
43
0.0
10
43.152810464096383
20
-65.10748728189192
42
-0.41421356237309503
10
42.767692509138413
20
-64.514457636115992
10
45.470544489769338
20
-51.798538826576461
42
-0.41421356237310736
10
46.063574135545046
20
-51.413420871618456
10
58.779492945084513
20
-54.116272852249374
42
-0.41421356237311541
10
59.164610900042518
20
-54.709302498025103
10
56.461758919411658
20
-67.425221307564613
42
-0.41421356237311174
10
55.868729273635907
20
-67.810339262522604
0
LWPOLYLINE
5
167
100
AcDbEntity
8
0
100
AcDbPolyline
90
8
70
1
43
0.0
10
75.095158919411674
20
-71.385921307564672
42
-0.41421356237309725
10
74.502129273635816
20
-71.771039262522649
10
61.786210464096428
20
-69.068187281891795
42
-0.41421356237310525
10
61.401092509138444
20
-68.475157636115995
10
64.103944489769148
20
-55.759238826576535
42
-0.41421356237309659
10
64.696974135545005
20
-55.374120871618473
10
77.412892945084508
20
-58.076972852249455
42
-0.41421356237310153
10
77.798010900042613
20
-58.670002498025156
0
LWPOLYLINE
5
168
100
AcDbEntity
8
0
100
AcDbPolyline
90
8
70
1
43
0.0
10
74.6790925091384
20
-51.821857636115993
10
77.381944489769211
20
-39.105938826576534
42
-0.41421356237313572
10
77.974974135545054
20
-38.720820871618535
10
90.690892945084556
20
-41.423672852249439
42
-0.41421356237305429
10
91.076010900042519
20
-42.016702498025218
10
88.373158919411622
20
-54.7326213075646
42
-0.41421356237309503
10
87.780129273635879
20
-55.117739262522605
10
75.064210464096433
20
-52.414887281891907
42
-0.41421356237309875
0
LWPOLYLINE
5
169
100
AcDbEntity
8
0
100
AcDbPolyline
90
8
70
1
43
0.0
10
165.78533886190004
20
-2.4426528720198704
42
-0.41421356237309503
10
166.3783685076757
20
-2.8277708269779822
10
169.08122048830671
20
-15.543689636517399
42
-0.41421356237309503
10
168.69610253334866
20
-16.136719282293193
10
155.98018372380918
20
-18.83957126292405
42
-0.41421356237308637
10
155.38715407803338
20
-18.454453307966112
10
152.68430209740245
20
-5.7385344984265876
42
-0.41421356237311541
10
153.06942005236053
20
-5.1455048526507952
0
LWPOLYLINE
5
170
100
AcDbEntity
8
0
100
AcDbPolyline
90
8
70
1
43
0.0
10
80.42024889904863
20
-73.028706478624855
42
-0.41421356237311541
10
80.035130944090611
20
-72.435676832849055
10
82.737982924721621
20
-59.719758023309467
42
-0.41421356237310369
10
83.331012570497265
20
-59.334640068351554
10
96.046931380036568
20
-62.037492048982294
42
-0.41421356237311541
10
96.43204933499473
20
-62.630521694758094
10
93.729197354363905
20
-75.346440504297604
42
-0.41421356237310675
10
93.136167708588147
20
-75.731558459255623
0
LWPOLYLINE
5
171
100
AcDbEntity
8
0
100
AcDbPolyline
90
8
70
1
43
0.0
10
134.43542005236054
20
-9.1063048526508084
10
147.15133886190006
20
-6.4034528720199333
42
-0.41421356237313572
10
147.74436850767563
20
-6.7885708269779599
10
150.4472204883067
20
-19.50448963651748
42
-0.41421356237307466
10
150.06210253334871
20
-20.097519282293277
10
137.34618372380913
20
-22.800371262924131
42
-0.41421356237309936
10
136.75315407803313
20
-22.41525330796609
10
134.05030209740255
20
-9.6993344984265821
42
-0.41421356237314744
0
LWPOLYLINE
5
172
100
AcDbEntity
8
0
100
AcDbPolyline
90
8
70
1
43
0.0
10
190.33642005236047
20
2.7758951473492033
10
203.05233886189993
20
5.4787471279800535
42
-0.41421356237310369
10
203.64536850767578
20
5.0936291730220873
10
206.34822048830668
20
-7.6222896365174613
42
-0.41421356237314438
10
205.96310253334863
20
-8.2153192822931942
10
193.24718372380914
20
-10.91817126292397
42
-0.41421356237311108
10
192.6541540780334
20
-10.533053307966078
10
189.95130209740256
20
2.1828655015734739
42
-0.41421356237309936
0
LWPOLYLINE
5
173
100
AcDbEntity
8
0
100
AcDbPolyline
90
8
70
1
43
0.0
10
174.02115407803336
20
-14.493753307966131
10
171.31830209740241
20
-1.7778344984265846
42
-0.41421356237312401
10
171.70342005236057
20
-1.1848048526508137
10
184.41933886190009
20
1.5180471279801466
42
-0.41421356237309503
10
185.01236850767586
20
1.1329291730219637
10
187.71522048830667
20
-11.582989636517491
42
-0.41421356237311541
10
187.33010253334874
20
-12.176019282293282
10
174.61418372380911
20
-14.878871262924022
42
-0.41421356237311541
0
LWPOLYLINE
5
174
100
AcDbEntity
8
0
100
AcDbPolyline
90
8
70
1
43
0.0
10
184.59530209740262
20
-18.431234498426583
42
-0.41421356237311974
10
184.98042005236047
20
-17.838204852650783
10
197.6963388619001
20
-15.135352872019874
42
-0.41421356237314011
10
198.28936850767582
20
-15.520470826977899
10
200.99222048830669
20
-28.236389636517458
42
-0.41421356237311541
10
200.60710253334867
20
-28.829419282293323
10
187.89118372380921
20
-31.532271262924123
42
-0.41421356237314011
10
187.29815407803343
20
-31.147153307966065
0
LWPOLYLINE
5
175
100
AcDbEntity
8
0
100
AcDbPolyline
90
8
70
1
43
0.0
10
203.2293020974025
20
-14.470534498426595
42
-0.41421356237309503
10
203.61442005236054
20
-13.877504852650802
10
216.33033886190003
20
-11.174652872020019
42
-0.41421356237309503
10
216.92336850767583
20
-11.559770826977918
10
219.6262204883067
20
-24.275689636517406
42
-0.41421356237311541
10
219.24110253334871
20
-24.868719282293199
10
206.52518372380916
20
-27.571571262924166
42
-0.41421356237307466
10
205.93215407803353
20
-27.186453307966083
0
LWPOLYLINE
5
176
100
AcDbEntity
8
0
100
AcDbPolyline
90
8
70
1
43
0.0
10
100.36012927363583
20
-18.840439262522679
10
87.644210464096403
20
-16.13758728189179
42
-0.41421356237309503
10
87.259092509138441
20
-15.544557636115997
10
89.961944489769337
20
-2.828638826576503
42
-0.41421356237319812
10
90.554974135545024
20
-2.4435208716185031
10
103.27089294508454
20
-5.1463728522492858
42
-0.41421356237309503
10
103.65601090004255
20
-5.7394024980251146
10
100.95315891941156
20
-18.455321307564557
42
-0.41421356237314438
0
LWPOLYLINE
5
177
100
AcDbEntity
8
0
100
AcDbPolyline
90
8
70
1
43
0.0
10
166.3464200523606
20
-21.7989048526508
10
179.06233886190006
20
-19.096052872019921
42
-0.41421356237312401
10
179.65536850767575
20
-19.481170826978023
10
182.35822048830667
20
-32.197089636517482
42
-0.41421356237313572
10
181.97310253334862
20
-32.790119282293198
10
169.25718372380916
20
-35.492971262924151
42
-0.41421356237311541
10
168.66415407803339
20
-35.107853307966153
10
165.96130209740255
20
-22.39193449842659
42
-0.41421356237313572
0
LWPOLYLINE
5
178
100
AcDbEntity
8
0
100
AcDbPolyline
90
8
70
1
43
0.0
10
137.69842005236058
20
-47.363904852650798
10
150.41433886190006
20
-44.661052872019972
42
-0.41421356237307466
10
151.00736850767575
20
-45.04617082697802
10
153.7102204883067
20
-57.762089636517437
42
-0.41421356237305001
10
153.32510253334871
20
-58.355119282293302
10
140.60918372380914
20
-61.057971262924163
42
-0.41421356237307905
10
140.01615407803325
20
-60.672853307966115
10
137.31330209740241
20
-47.956934498426648
42
-0.4142135623731284
0
LWPOLYLINE
5
179
100
AcDbEntity
8
0
100
AcDbPolyline
90
8
70
1
43
0.0
10
150.03115407803335
20
-39.06855330796617
10
147.3283020974024
20
-26.352634498426617
42
-0.41421356237309936
10
147.71342005236048
20
-25.759604852650781
10
160.42933886189996
20
-23.056752872019963
42
-0.41421356237309503
10
161.02236850767588
20
-23.441870826978004
10
163.7252204883066
20
-36.157789636517379
42
-0.41421356237309936
10
163.34010253334864
20
-36.75081928229325
10
150.6241837238091
20
-39.453671262924118
42
-0.41421356237305429
0
LWPOLYLINE
5
180
100
AcDbEntity
8
0
100
AcDbPolyline
90
8
70
1
43
0.0
10
145.93230209740241
20
-65.600834498426622
42
-0.41421356237309503
10
146.31742005236052
20
-65.007804852650821
10
159.03333886190006
20
-62.304952872019967
42
-0.41421356237309076
10
159.62636850767583
20
-62.690070826978008
10
162.32922048830673
20
-75.405989636517532
42
-0.41421356237309503
10
161.94410253334866
20
-75.999019282293432
10
149.22818372380917
20
-78.701871262924186
42
-0.41421356237307905
10
148.63515407803328
20
-78.316753307966138
0
LWPOLYLINE
5
181
100
AcDbEntity
8
0
100
AcDbPolyline
90
8
70
1
43
0.0
10
43.465407343280489
20
-84.138135115977661
10
46.168259323911478
20
-71.422216306438116
42
-0.41421356237311174
10
46.761288969687193
20
-71.037098351480168
10
59.477207779226717
20
-73.739950332111036
42
-0.41421356237307466
10
59.862325734184722
20
-74.332979977886822
10
57.15947375355384
20
-87.048898787426225
42
-0.41421356237311541
10
56.56644410777804
20
-87.434016742384244
10
43.850525298238587
20
-84.731164761753362
42
-0.41421356237309287
0
LWPOLYLINE
5
182
100
AcDbEntity
8
0
100
AcDbPolyline
90
8
70
1
43
0.0
10
171.95910253334873
20
-54.39441928229332
10
159.24318372380915
20
-57.097271262924174
42
-0.41421356237308332
10
158.65015407803349
20
-56.712153307966098
10
155.9473020974026
20
-43.99623449842661
42
-0.41421356237309503
10
156.33242005236056
20
-43.403204852650816
10
169.04833886190008
20
-40.700352872019906
42
-0.41421356237313572
10
169.64136850767588
20
-41.085470826978003
10
172.34422048830666
20
-53.801389636517527
42
-0.41421356237311541
0
LWPOLYLINE
5
183
100
AcDbEntity
8
0
100
AcDbPolyline
90
8
70
1
43
0.0
10
206.90836850767585
20
-33.163970826978009
10
209.61122048830669
20
-45.879889636517433
42
-0.41421356237307039
10
209.22610253334864
20
-46.472919282293184
10
196.51018372380921
20
-49.175771262924137
42
-0.41421356237311974
10
195.91715407803332
20
-48.790653307966103
10
193.21430209740257
20
-36.074734498426579
42
-0.41421356237311541
10
193.59942005236059
20
-35.481704852650786
10
206.31533886190013
20
-32.77885287201984
42
-0.41421356237314438
0
LWPOLYLINE
5
184
100
AcDbEntity
8
0
100
AcDbPolyline
90
8
70
1
43
0.0
10
142.38836850767575
20
-27.402570826977843
10
145.09122048830665
20
-40.118489636517545
42
-0.41421356237309503
10
144.7061025333486
20
-40.711519282293196
10
131.99018372380914
20
-43.414371262924078
42
-0.41421356237302964
10
131.39715407803337
20
-43.029253307966151
10
128.69430209740241
20
-30.313334498426631
42
-0.41421356237314011
10
129.07942005236055
20
-29.720304852650798
10
141.79533886189995
20
-27.017452872019867
42
-0.41421356237307039
0
LWPOLYLINE
5
185
100
AcDbEntity
8
0
100
AcDbPolyline
90
8
70
1
43
0.0
10
180.96325342944857
20
-71.445044593512648
42
-0.41421356237309503
10
180.57813547449055
20
-72.038074239288434
10
167.86221666495106
20
-74.740926219919317
42
-0.41421356237309936
10
167.26918701917526
20
-74.355808264961354
10
164.56633503854425
20
-61.639889455421809
42
-0.41421356237310369
10
164.95145299350239
20
-61.046859809646001
10
177.66737180304187
20
-58.344007829015119
42
-0.41421356237311541
10
178.26040144881767
20
-58.729125783973117
0
LWPOLYLINE
5
186
100
AcDbEntity
8
0
100
AcDbPolyline
90
8
70
1
43
0.0
10
215.52736850767576
20
-50.807570826978043
10
218.23022048830666
20
-63.523489636517454
42
-0.41421356237307905
10
217.84510253334869
20
-64.116519282293211
10
205.12918372380921
20
-66.819371262924079
42
-0.41421356237307466
10
204.53615407803343
20
-66.434253307966102
10
201.83330209740257
20
-53.718334498426614
42
-0.41421356237309503
10
202.21842005236056
20
-53.125304852650856
10
214.93433886190013
20
-50.422452872019996
42
-0.41421356237316476
0
LWPOLYLINE
5
187
100
AcDbEntity
8
0
100
AcDbPolyline
90
8
70
1
43
0.0
10
186.49618372380925
20
-70.780071262924139
42
-0.41421356237307039
10
185.90315407803345
20
-70.394953307966119
10
183.20030209740253
20
-57.679034498426596
42
-0.41421356237309503
10
183.58542005236058
20
-57.086004852650802
10
196.30133886190006
20
-54.383152872019949
42
-0.41421356237309503
10
196.89436850767575
20
-54.768270826978025
10
199.59722048830668
20
-67.48418963651757
42
-0.41421356237310675
10
199.21210253334863
20
-68.077219282293157
0
LWPOLYLINE
5
188
100
AcDbEntity
8
0
100
AcDbPolyline
90
8
70
1
43
0.0
10
212.48905230133315
20
-84.730674034370423
10
199.77313349179371
20
-87.433526015001462
42
-0.41421356237309198
10
199.18010384601783
20
-87.0484080600433
10
196.4772518653869
20
-74.332489250503812
42
-0.41421356237314011
10
196.86236982034495
20
-73.739459604728097
10
209.57828862988441
20
-71.036607624097101
42
-0.41421356237309503
10
210.1713182756603
20
-71.42172557905522
10
212.87417025629117
20
-84.13764438859468
42
-0.41421356237317214
0
LWPOLYLINE
5
189
100
AcDbEntity
8
0
100
AcDbPolyline
90
8
70
1
43
0.0
10
174.58130209740247
20
-40.035534498426628
42
-0.41421356237313572
10
174.96642005236058
20
-39.442504852650835
10
187.68233886190012
20
-36.739652872019875
42
-0.41421356237309503
10
188.27536850767581
20
-37.124770826978022
10
190.9782204883067
20
-49.840689636517432
42
-0.41421356237312401
10
190.59310253334871
20
-50.433719282293303
10
177.87718372380914
20
-53.136571262924086
42
-0.41421356237309076
10
177.28415407803337
20
-52.751453307966116
0
LWPOLYLINE
5
190
100
AcDbEntity
8
0
100
AcDbPolyline
90
8
70
1
43
0.0
10
250.62874554707395
20
-50.650101778918497
42
-0.41421356237309503
10
251.12874554707392
20
-50.150101778918525
10
264.12874554707389
20
-50.15010177891849
42
-0.41421356237307422
10
264.628745547074
20
-50.650101778918497
10
264.628745547074
20
-63.650101778918504
42
-0.4142135623730534
10
264.12874554707395
20
-64.150101778918511
10
251.12874554707392
20
-64.150101778918511
42
-0.41421356237313667
10
250.62874554707392
20
-63.650101778918575
0
LINE
5
191
100
AcDbEntity
8
0
100
AcDbLine
10
56.742000000000033
20
-87.369000000000085
30
0
11
57.029000000000025
21
-87.183000000000149
31
0
0
LINE
5
192
100
AcDbEntity
8
0
100
AcDbLine
10
-6.4999999999999947
20
-6.5000000000000213
30
0
11
6.4999999999999947
21
6.5000000000000213
31
0
0
ENDSEC
0
SECTION
2
OBJECTS
0
DICTIONARY
5
C
100
AcDbDictionary
3
ACAD_GROUP
350
D
3
ACAD_MLINESTYLE
350
17
0
DICTIONARY
5
D
100
AcDbDictionary
0
DICTIONARY
5
1A
330
C
100
AcDbDictionary
0
DICTIONARY
5
17
100
AcDbDictionary
0
ENDSEC
0
EOF
