M48
; DRILL file {KiCad (5.1.4)-1} date 05/04/21 00:29:41
; FORMAT={-:-/ absolute / inch / decimal}
; #@! TF.CreationDate,2021-05-04T00:29:41+08:00
; #@! TF.GenerationSoftware,Kicad,Pcbnew,(5.1.4)-1
; #@! TF.FileFunction,NonPlated,1,2,NPTH
FMAT,2
INCH
T1C0.0669
T2C0.1201
T3C0.1575
%
G90
G05
T1
X10.6185Y-0.75
X11.0185Y-0.75
X8.0733Y-2.3495
X8.4646Y-2.2663
X2.3062Y-0.8771
X2.6974Y-0.9603
X10.5054Y-1.5
X10.9054Y-1.5
X8.5366Y-1.5
X8.9366Y-1.5
X4.2226Y-3.5847
X4.6139Y-3.6679
X-0.1764Y-0.75
X0.2236Y-0.75
X11.5792Y0.1875
X11.9792Y0.1875
X5.8725Y-2.8173
X6.2638Y-2.7341
X11.9116Y-1.3125
X12.3116Y-1.3125
X3.7734Y-1.189
X4.1647Y-1.2721
X9.1417Y0.0
X9.5417Y0.0
X7.0004Y-1.8108
X7.3917Y-1.7276
X6.3036Y-3.4924
X6.6948Y-3.4093
X11.1616Y-3.1875
X11.5616Y-3.1875
X3.0673Y-1.8056
X3.4585Y-1.8888
X1.8109Y-2.3053
X2.2022Y-2.3885
X10.6417Y0.0
X11.0417Y0.0
X5.9275Y-1.2721
X6.3187Y-1.1889
X9.9429Y-2.25
X10.3429Y-2.25
X2.5445Y-2.4613
X2.9358Y-2.5444
X4.0117Y-2.7731
X4.403Y-2.8563
X-0.2Y0.0
X0.2Y0.0
X7.3947Y-0.9602
X7.7859Y-0.8771
X0.9992Y-2.25
X1.3992Y-2.25
X-0.2427Y-1.5
X0.1573Y-1.5
X7.6056Y-0.1487
X7.9968Y-0.0655
X2.3337Y-1.6497
X2.7249Y-1.7329
X1.3Y0.0591
X1.7Y0.0591
X8.3917Y0.0591
X8.7917Y0.0591
X5.1938Y-1.428
X5.5851Y-1.3449
X1.5726Y-0.7212
X1.9638Y-0.8043
X11.7435Y-0.5625
X12.1435Y-0.5625
X6.6611Y-1.1162
X7.0523Y-1.033
X8.9307Y-0.75
X9.3307Y-0.75
X6.2668Y-1.9667
X6.658Y-1.8836
X-1.5594Y-1.2969
X-1.1594Y-1.2969
X9.6807Y-0.75
X10.0807Y-0.75
X3.8009Y-1.9616
X4.1921Y-2.0447
X0.761Y-0.75
X1.161Y-0.75
X11.9116Y-3.1875
X12.3116Y-3.1875
X3.5625Y-0.3774
X3.9538Y-0.4606
X2.0953Y-0.0655
X2.4866Y-0.1487
X6.6061Y-2.6614
X6.9974Y-2.5782
X-0.5004Y-3.0
X-0.1004Y-3.0
X7.3397Y-2.5054
X7.731Y-2.4223
X3.1222Y-3.3508
X3.5135Y-3.434
X-0.2195Y-2.25
X0.1805Y-2.25
X7.734Y-1.6549
X8.1253Y-1.5717
X7.8625Y-3.1611
X8.2537Y-3.0779
X8.1283Y-0.8043
X8.5195Y-0.7211
X2.8289Y-0.2215
X3.2202Y-0.3046
X9.8917Y0.0
X10.2917Y0.0
X5.5332Y-2.1227
X5.9244Y-2.0395
X1.6Y-1.4938
X1.9913Y-1.5769
X8.9116Y-2.25
X9.3116Y-2.25
X3.2781Y-2.6172
X3.6694Y-2.7004
X9.2866Y-1.5
X9.6866Y-1.5
X3.0398Y-1.033
X3.4311Y-1.1162
X-1.2937Y-0.5469
X-0.8937Y-0.5469
X11.1616Y-2.4375
X11.5616Y-2.4375
X4.2961Y-0.5333
X4.6874Y-0.6165
X0.7886Y-1.5
X1.1886Y-1.5
X10.4116Y-3.1875
X10.8116Y-3.1875
X5.4047Y-0.6165
X5.796Y-0.5333
X-1.1219Y0.2031
X-0.7219Y0.2031
X6.1383Y-0.4605
X6.5296Y-0.3774
X1.8384Y-3.0779
X2.2296Y-3.1611
X6.8719Y-0.3046
X7.2632Y-0.2214
X0.55Y0.0
X0.95Y0.0
T2
X10.2369Y-1.7756
X11.1739Y-1.7756
X6.0982Y-3.8178
X7.0147Y-3.623
X2.8023Y-3.5646
X3.7188Y-3.7594
X-0.488Y-1.9744
X0.449Y-1.9744
T3
X1.7957Y-1.5353
X9.1116Y-2.25
X3.4738Y-2.6588
X9.4866Y-1.5
X3.2354Y-1.0746
X-1.0938Y-0.5469
X11.3616Y-2.4375
X4.4918Y-0.5749
X0.9886Y-1.5
X10.6116Y-3.1875
X5.6003Y-0.5749
X-0.9219Y0.2031
X6.334Y-0.4189
X2.034Y-3.1195
X7.0676Y-0.263
X0.75Y0.0
X10.8185Y-0.75
X8.269Y-2.3079
X2.5018Y-0.9187
X10.2369Y-1.1756
X10.7054Y-1.5
X11.1739Y-1.1756
X8.7366Y-1.5
X4.4182Y-3.6263
X0.0236Y-0.75
X11.7792Y0.1875
X6.0681Y-2.7757
X12.1116Y-1.3125
X3.969Y-1.2306
X9.3417Y0.0
X7.196Y-1.7692
X5.9735Y-3.2309
X6.4992Y-3.4508
X6.89Y-3.0361
X11.3616Y-3.1875
X3.2629Y-1.8472
X2.0065Y-2.3469
X10.8417Y0.0
X6.1231Y-1.2305
X10.1429Y-2.25
X2.7401Y-2.5029
X4.2074Y-2.8147
X0.0Y0.0
X7.5903Y-0.9187
X1.1992Y-2.25
X-0.0427Y-1.5
X7.8012Y-0.1071
X2.5293Y-1.6913
X1.5Y0.0591
X8.5917Y0.0591
X5.3895Y-1.3865
X1.7682Y-0.7627
X11.9435Y-0.5625
X6.8567Y-1.0746
X9.1307Y-0.75
X6.4624Y-1.9252
X-1.3594Y-1.2969
X9.8807Y-0.75
X3.9965Y-2.0031
X0.961Y-0.75
X12.1116Y-3.1875
X3.7582Y-0.419
X2.2909Y-0.1071
X6.8018Y-2.6198
X-0.3004Y-3.0
X7.5354Y-2.4638
X2.927Y-2.9777
X3.3178Y-3.3924
X3.8435Y-3.1725
X-0.488Y-2.5744
X-0.0195Y-2.25
X0.449Y-2.5744
X7.9296Y-1.6133
X8.0581Y-3.1195
X8.3239Y-0.7627
X3.0246Y-0.263
X10.0917Y0.0
X5.7288Y-2.0811
T0
M30
