G04 #@! TF.GenerationSoftware,KiCad,Pcbnew,(5.1.4)-1*
G04 #@! TF.CreationDate,2021-05-04T00:29:37+08:00*
G04 #@! TF.ProjectId,arisu,61726973-752e-46b6-9963-61645f706362,1.1*
G04 #@! TF.SameCoordinates,Original*
G04 #@! TF.FileFunction,Legend,Top*
G04 #@! TF.FilePolarity,Positive*
%FSLAX46Y46*%
G04 Gerber Fmt 4.6, Leading zero omitted, Abs format (unit mm)*
G04 Created by KiCad (PCBNEW (5.1.4)-1) date 2021-05-04 00:29:37*
%MOMM*%
%LPD*%
G04 APERTURE LIST*
%ADD10C,1.802000*%
%ADD11C,4.102000*%
%ADD12C,2.302000*%
%ADD13C,3.152000*%
%ADD14C,4.502000*%
%ADD15C,1.552000*%
%ADD16O,1.302000X2.002000*%
%ADD17R,1.802000X1.802000*%
G04 APERTURE END LIST*
%LPC*%
D10*
X-29448125Y-32940625D03*
X-39608125Y-32940625D03*
D11*
X-34528125Y-32940625D03*
D12*
X-38338125Y-30400625D03*
X-31988125Y-27860625D03*
X-25241250Y-8810625D03*
X-31591250Y-11350625D03*
D11*
X-27781250Y-13890625D03*
D10*
X-32861250Y-13890625D03*
X-22701250Y-13890625D03*
X-18335625Y5159375D03*
X-28495625Y5159375D03*
D11*
X-23415625Y5159375D03*
D12*
X-27225625Y7699375D03*
X-20875625Y10239375D03*
D13*
X283816250Y-45100000D03*
X260016250Y-45100000D03*
D11*
X260016250Y-29860000D03*
X283816250Y-29860000D03*
D10*
X276996250Y-38100000D03*
X266836250Y-38100000D03*
D11*
X271916250Y-38100000D03*
D12*
X268106250Y-35560000D03*
X274456250Y-33020000D03*
D13*
X178174604Y-92024422D03*
X154894691Y-96972720D03*
D11*
X151726117Y-82065751D03*
X175006030Y-77117453D03*
D10*
X170048255Y-86595347D03*
X160110276Y-88707729D03*
D11*
X165079266Y-87651538D03*
D12*
X160824428Y-85959187D03*
X166507569Y-82154453D03*
D13*
X94457364Y-95488124D03*
X71177451Y-90539826D03*
D11*
X74346025Y-75632856D03*
X97625938Y-80581154D03*
D10*
X89241779Y-87223133D03*
X79303799Y-85110750D03*
D11*
X84272789Y-86166942D03*
D12*
X81074142Y-82890303D03*
X87813475Y-81726047D03*
D13*
X11403750Y-50150000D03*
X-12396250Y-50150000D03*
D11*
X-12396250Y-65390000D03*
X11403750Y-65390000D03*
D10*
X4583750Y-57150000D03*
X-5576250Y-57150000D03*
D11*
X-496250Y-57150000D03*
D12*
X-4306250Y-54610000D03*
X2043750Y-52070000D03*
D10*
X3996250Y-38100000D03*
X-6163750Y-38100000D03*
D11*
X-1083750Y-38100000D03*
D12*
X-4893750Y-35560000D03*
X1456250Y-33020000D03*
D10*
X262708769Y-57149998D03*
X252548769Y-57149998D03*
D11*
X257628769Y-57149998D03*
D12*
X253818769Y-54609998D03*
X260168769Y-52069998D03*
D10*
X5680000Y-19050000D03*
X-4480000Y-19050000D03*
D11*
X600000Y-19050000D03*
D12*
X-3210000Y-16510000D03*
X3140000Y-13970000D03*
D10*
X-2550000Y-76200000D03*
X-12710000Y-76200000D03*
D11*
X-7630000Y-76200000D03*
D12*
X-11440000Y-73660000D03*
X-5090000Y-71120000D03*
D10*
X56632788Y-80291881D03*
X46694808Y-78179498D03*
D11*
X51663798Y-79235689D03*
D12*
X48465151Y-75959051D03*
X55204484Y-74794795D03*
D10*
X209644892Y-78178834D03*
X199706912Y-80291217D03*
D11*
X204675902Y-79235026D03*
D12*
X200421064Y-77542674D03*
X206104205Y-73737940D03*
D10*
X279870000Y-19050000D03*
X269710000Y-19050000D03*
D11*
X274790000Y-19050000D03*
D12*
X270980000Y-16510000D03*
X277330000Y-13970000D03*
X2540000Y5080000D03*
X-3810000Y2540000D03*
D11*
X0Y0D03*
D10*
X-5080000Y0D03*
X5080000Y0D03*
D12*
X21590000Y5080000D03*
X15240000Y2540000D03*
D11*
X19050000Y0D03*
D10*
X13970000Y0D03*
X24130000Y0D03*
D12*
X26950000Y-13970000D03*
X20600000Y-16510000D03*
D11*
X24410000Y-19050000D03*
D10*
X19330000Y-19050000D03*
X29490000Y-19050000D03*
D12*
X27650000Y-33020000D03*
X21300000Y-35560000D03*
D11*
X25110000Y-38100000D03*
D10*
X20030000Y-38100000D03*
X30190000Y-38100000D03*
D12*
X33000000Y-52070000D03*
X26650000Y-54610000D03*
D11*
X30460000Y-57150000D03*
D10*
X25380000Y-57150000D03*
X35540000Y-57150000D03*
D12*
X40640000Y6580385D03*
X34290000Y4040385D03*
D11*
X38100000Y1500385D03*
D10*
X33020000Y1500385D03*
X43180000Y1500385D03*
D12*
X48453034Y-14932945D03*
X41713701Y-16097200D03*
D11*
X44912348Y-19373839D03*
D10*
X39943358Y-18317647D03*
X49881338Y-20430030D03*
D12*
X49150701Y-34556838D03*
X42411368Y-35721093D03*
D11*
X45610015Y-38997732D03*
D10*
X40641025Y-37941540D03*
X50579005Y-40053923D03*
D12*
X54506783Y-55170907D03*
X47767450Y-56335162D03*
D11*
X50966097Y-59611801D03*
D10*
X45997107Y-58555609D03*
X55935087Y-60667992D03*
D12*
X61730692Y1720398D03*
X54991359Y556143D03*
D11*
X58190006Y-2720496D03*
D10*
X53221016Y-1664304D03*
X63158996Y-3776687D03*
D12*
X67086744Y-18893671D03*
X60347411Y-20057926D03*
D11*
X63546058Y-23334565D03*
D10*
X58577068Y-22278373D03*
X68515048Y-24390756D03*
D12*
X67784411Y-38517565D03*
X61045078Y-39681820D03*
D11*
X64243725Y-42958459D03*
D10*
X59274735Y-41902267D03*
X69212715Y-44014650D03*
D12*
X73140493Y-59131633D03*
X66401160Y-60295888D03*
D11*
X69599807Y-63572527D03*
D10*
X64630817Y-62516335D03*
X74568797Y-64628718D03*
D12*
X80364403Y-2240320D03*
X73625070Y-3404575D03*
D11*
X76823717Y-6681214D03*
D10*
X71854727Y-5625022D03*
X81792707Y-7737405D03*
D12*
X85720454Y-22854398D03*
X78981121Y-24018653D03*
D11*
X82179768Y-27295292D03*
D10*
X77210778Y-26239100D03*
X87148758Y-28351483D03*
D12*
X86418121Y-42478292D03*
X79678788Y-43642547D03*
D11*
X82877435Y-46919186D03*
D10*
X77908445Y-45862994D03*
X87846425Y-47975377D03*
D12*
X91774202Y-63092360D03*
X85034869Y-64256615D03*
D11*
X88233516Y-67533254D03*
D10*
X83264526Y-66477062D03*
X93202506Y-68589445D03*
D12*
X98998115Y-6201038D03*
X92258782Y-7365293D03*
D11*
X95457429Y-10641932D03*
D10*
X90488439Y-9585740D03*
X100426419Y-11698123D03*
D12*
X104354164Y-26815125D03*
X97614831Y-27979380D03*
D11*
X100813478Y-31256019D03*
D10*
X95844488Y-30199827D03*
X105782468Y-32312210D03*
D12*
X105051831Y-46439019D03*
X98312498Y-47603274D03*
D11*
X101511145Y-50879913D03*
D10*
X96542155Y-49823721D03*
X106480135Y-51936104D03*
D12*
X110407912Y-67053087D03*
X103668579Y-68217342D03*
D11*
X106867226Y-71493981D03*
D10*
X101898236Y-70437789D03*
X111836216Y-72550172D03*
D12*
X115764049Y-87667116D03*
X109024716Y-88831371D03*
D11*
X112223363Y-92108010D03*
D10*
X107254373Y-91051818D03*
X117192353Y-93164201D03*
D12*
X117631827Y-10161755D03*
X110892494Y-11326010D03*
D11*
X114091141Y-14602649D03*
D10*
X109122151Y-13546457D03*
X119060131Y-15658840D03*
D12*
X138320941Y-29718939D03*
X132637800Y-33523673D03*
D11*
X136892638Y-35216024D03*
D10*
X131923648Y-36272215D03*
X141861628Y-34159833D03*
D12*
X146940062Y-47362491D03*
X141256921Y-51167225D03*
D11*
X145511759Y-52859576D03*
D10*
X140542769Y-53915767D03*
X150480749Y-51803385D03*
D12*
X155559183Y-65006043D03*
X149876042Y-68810777D03*
D11*
X154130880Y-70503128D03*
D10*
X149161890Y-71559319D03*
X159099870Y-69446937D03*
D12*
X143677168Y-9104840D03*
X137994027Y-12909574D03*
D11*
X142248865Y-14601925D03*
D10*
X137279875Y-15658116D03*
X147217855Y-13545734D03*
D12*
X156954652Y-25758221D03*
X151271511Y-29562955D03*
D11*
X155526349Y-31255306D03*
D10*
X150557359Y-32311497D03*
X160495339Y-30199115D03*
D12*
X165573773Y-43401773D03*
X159890632Y-47206507D03*
D11*
X164145470Y-48898858D03*
D10*
X159176480Y-49955049D03*
X169114460Y-47842667D03*
D12*
X174192895Y-61045325D03*
X168509754Y-64850059D03*
D11*
X172764592Y-66542410D03*
D10*
X167795602Y-67598601D03*
X177733582Y-65486219D03*
D12*
X162310880Y-5144122D03*
X156627739Y-8948856D03*
D11*
X160882577Y-10641207D03*
D10*
X155913587Y-11697398D03*
X165851567Y-9585016D03*
D12*
X175588364Y-21797504D03*
X169905223Y-25602238D03*
D11*
X174160061Y-27294589D03*
D10*
X169191071Y-28350780D03*
X179129051Y-26238398D03*
D12*
X184207485Y-39441056D03*
X178524344Y-43245790D03*
D11*
X182779182Y-44938141D03*
D10*
X177810192Y-45994332D03*
X187748172Y-43881950D03*
D12*
X192826606Y-57084608D03*
X187143465Y-60889342D03*
D11*
X191398303Y-62581693D03*
D10*
X186429313Y-63637884D03*
X196367293Y-61525502D03*
D12*
X180944592Y-1183405D03*
X175261451Y-4988139D03*
D11*
X179516289Y-6680490D03*
D10*
X174547299Y-7736681D03*
X184485279Y-5624299D03*
D12*
X194222076Y-17836786D03*
X188538935Y-21641520D03*
D11*
X192793773Y-23333871D03*
D10*
X187824783Y-24390062D03*
X197762763Y-22277680D03*
D12*
X202841197Y-35480338D03*
X197158056Y-39285072D03*
D11*
X201412894Y-40977423D03*
D10*
X196443904Y-42033614D03*
X206381884Y-39921232D03*
D12*
X211460318Y-53123890D03*
X205777177Y-56928624D03*
D11*
X210032015Y-58620975D03*
D10*
X205063025Y-59677166D03*
X215001005Y-57564784D03*
D12*
X199578303Y2777313D03*
X193895162Y-1027421D03*
D11*
X198150000Y-2719772D03*
D10*
X193181010Y-3775963D03*
X203118990Y-1663581D03*
D12*
X212855788Y-13876068D03*
X207172647Y-17680802D03*
D11*
X211427485Y-19373153D03*
D10*
X206458495Y-20429344D03*
X216396475Y-18316962D03*
D12*
X224450000Y-33020000D03*
X218100000Y-35560000D03*
D11*
X221910000Y-38100000D03*
D10*
X216830000Y-38100000D03*
X226990000Y-38100000D03*
D12*
X233975019Y-52069998D03*
X227625019Y-54609998D03*
D11*
X231435019Y-57149998D03*
D10*
X226355019Y-57149998D03*
X236515019Y-57149998D03*
D12*
X220770000Y6580385D03*
X214420000Y4040385D03*
D11*
X218230000Y1500385D03*
D10*
X213150000Y1500385D03*
X223310000Y1500385D03*
D12*
X234460000Y-13970000D03*
X228110000Y-16510000D03*
D11*
X231920000Y-19050000D03*
D10*
X226840000Y-19050000D03*
X237000000Y-19050000D03*
D12*
X243500000Y-33020000D03*
X237150000Y-35560000D03*
D11*
X240960000Y-38100000D03*
D10*
X235880000Y-38100000D03*
X246040000Y-38100000D03*
D12*
X239820000Y5080000D03*
X233470000Y2540000D03*
D11*
X237280000Y0D03*
D10*
X232200000Y0D03*
X242360000Y0D03*
D12*
X253510000Y-13970000D03*
X247160000Y-16510000D03*
D11*
X250970000Y-19050000D03*
D10*
X245890000Y-19050000D03*
X256050000Y-19050000D03*
D12*
X272074949Y-75882503D03*
X265724949Y-78422503D03*
D11*
X269534949Y-80962503D03*
D10*
X264454949Y-80962503D03*
X274614949Y-80962503D03*
D12*
X258870000Y5080000D03*
X252520000Y2540000D03*
D11*
X256330000Y0D03*
D10*
X251250000Y0D03*
X261410000Y0D03*
D12*
X291124949Y-56832503D03*
X284774949Y-59372503D03*
D11*
X288584949Y-61912503D03*
D10*
X283504949Y-61912503D03*
X293664949Y-61912503D03*
D12*
X291124949Y-75882503D03*
X284774949Y-78422503D03*
D11*
X288584949Y-80962503D03*
D10*
X283504949Y-80962503D03*
X293664949Y-80962503D03*
D12*
X277920000Y5080000D03*
X271570000Y2540000D03*
D11*
X275380000Y0D03*
D10*
X270300000Y0D03*
X280460000Y0D03*
D12*
X301732542Y9842491D03*
X295382542Y7302491D03*
D11*
X299192542Y4762491D03*
D10*
X294112542Y4762491D03*
X304272542Y4762491D03*
D12*
X305905000Y-9207516D03*
X299555000Y-11747516D03*
D11*
X303365000Y-14287516D03*
D10*
X298285000Y-14287516D03*
X308445000Y-14287516D03*
D12*
X310174949Y-28257519D03*
X303824949Y-30797519D03*
D11*
X307634949Y-33337519D03*
D10*
X302554949Y-33337519D03*
X312714949Y-33337519D03*
D12*
X310174949Y-75882503D03*
X303824949Y-78422503D03*
D11*
X307634949Y-80962503D03*
D10*
X302554949Y-80962503D03*
X312714949Y-80962503D03*
D14*
X193720266Y-81888720D03*
X298109949Y-71437503D03*
D15*
X125669855Y10012000D03*
X130669855Y10012000D03*
D16*
X124669855Y12712000D03*
X131669855Y12712000D03*
D17*
X173386000Y12304000D03*
X170846000Y12304000D03*
X168306000Y12304000D03*
X165766000Y12304000D03*
X163226000Y12304000D03*
X160686000Y12304000D03*
X91344000Y12304000D03*
X88804000Y12304000D03*
X86264000Y12304000D03*
X104044000Y12304000D03*
X98964000Y12304000D03*
X101504000Y12304000D03*
X96424000Y12304000D03*
D14*
X9525000Y-9525000D03*
X3857500Y-76200000D03*
X74487220Y10787491D03*
X62619436Y-81889368D03*
X181852785Y10787491D03*
X293840000Y-4762516D03*
M02*
