M48
; DRILL file {KiCad (5.1.4)-1} date 05/04/21 00:29:41
; FORMAT={-:-/ absolute / inch / decimal}
; #@! TF.CreationDate,2021-05-04T00:29:41+08:00
; #@! TF.GenerationSoftware,Kicad,Pcbnew,(5.1.4)-1
; #@! TF.FileFunction,Plated,1,2,PTH
FMAT,2
INCH
T1C0.0157
T2C0.0236
T3C0.0335
T4C0.0394
T5C0.0591
T6C0.0866
%
G90
G05
T1
X3.7355Y0.2492
X4.0362Y-0.2356
X4.0862Y-0.1056
X4.0862Y-0.1556
X4.0862Y-0.2356
X4.2162Y0.0544
X4.2362Y0.4844
X4.3262Y-0.2656
X4.5562Y0.0944
X4.5562Y0.0144
X4.5862Y0.3244
X4.6762Y-0.8151
X4.6962Y0.4844
X4.6974Y0.3244
X4.7162Y-0.0406
X4.8162Y-0.6356
X4.8262Y0.0744
X4.8962Y-0.0156
X4.8962Y-0.2156
X4.8962Y-0.2856
X4.9669Y-1.4874
X5.1612Y-0.2906
X5.1693Y-0.8156
X5.2062Y-0.5156
X5.2112Y-0.2906
X5.2662Y0.4444
X5.2819Y-1.5661
X5.2962Y0.1544
X5.3462Y0.4444
X5.3462Y0.1544
X5.3462Y-0.0656
X5.3662Y-0.4556
X5.3962Y0.1544
X5.4295Y-2.2157
X5.4462Y0.1544
X5.4462Y0.1044
X5.4762Y0.2344
X5.6165Y-2.2551
X5.6562Y0.1544
X5.6862Y0.334
X5.715Y-0.3063
X5.7642Y-0.2374
X5.7642Y-0.3063
X5.7862Y0.2592
X5.9262Y0.4044
X5.961Y-0.6543
X6.1462Y0.2592
X6.1462Y0.0844
X6.4925Y-1.3099
X6.8862Y-3.4555
X6.9157Y-2.0046
X7.0437Y-2.6992
T3
X4.9476Y0.3942
X5.1445Y0.3942
T4
X6.6262Y0.4844
X4.0962Y0.4844
X3.4962Y0.4844
X3.8962Y0.4844
X3.5962Y0.4844
X3.7962Y0.4844
X6.8262Y0.4844
X6.4262Y0.4844
X6.5262Y0.4844
X6.7262Y0.4844
X6.3262Y0.4844
X3.9962Y0.4844
X3.3962Y0.4844
T5
X1.0492Y-2.15
X1.2992Y-2.05
X-0.1927Y-1.4
X0.0573Y-1.3
X7.6337Y-0.0404
X7.8574Y0.1093
X2.4033Y-1.5623
X2.6687Y-1.5164
X1.35Y0.1591
X1.6Y0.2591
X8.4417Y0.1591
X8.6917Y0.2591
X5.222Y-1.3198
X5.4457Y-1.17
X1.6423Y-0.6337
X1.9076Y-0.5879
X11.7935Y-0.4625
X12.0435Y-0.3625
X6.6892Y-1.008
X6.9129Y-0.8582
X8.9807Y-0.65
X9.2307Y-0.55
X6.2949Y-1.8585
X6.5187Y-1.7087
X-1.5094Y-1.1969
X-1.2594Y-1.0969
X9.7307Y-0.65
X9.9807Y-0.55
X3.8706Y-1.8741
X4.1359Y-1.8283
X0.811Y-0.65
X1.061Y-0.55
X11.9616Y-3.0875
X12.2116Y-2.9875
X3.6322Y-0.29
X3.8976Y-0.2441
X2.165Y0.0219
X2.4303Y0.0677
X6.6342Y-2.5532
X6.858Y-2.4034
X-0.4504Y-2.9
X-0.2004Y-2.8
X7.3679Y-2.3972
X7.5916Y-2.2474
X3.1919Y-3.2634
X3.4572Y-3.2176
X-0.1695Y-2.15
X0.0805Y-2.05
X7.7621Y-1.5467
X7.9859Y-1.3969
X7.8906Y-3.0529
X8.1143Y-2.9031
X8.1564Y-0.6961
X8.3801Y-0.5463
X2.8986Y-0.134
X3.164Y-0.0882
X9.9417Y0.1
X10.1917Y0.2
X5.5613Y-2.0145
X5.785Y-1.8647
X1.6697Y-1.4063
X1.9351Y-1.3605
X8.9616Y-2.15
X9.2116Y-2.05
X3.3478Y-2.5298
X3.6132Y-2.484
X9.3366Y-1.4
X9.5866Y-1.3
X3.1095Y-0.9456
X3.3748Y-0.8998
X-1.2437Y-0.4469
X-0.9938Y-0.3469
X11.2116Y-2.3375
X11.4616Y-2.2375
X4.3658Y-0.4459
X4.6312Y-0.4001
X0.8386Y-1.4
X1.0886Y-1.3
X10.4616Y-3.0875
X10.7116Y-2.9875
X5.4328Y-0.5083
X5.6566Y-0.3585
X-1.0719Y0.3031
X-0.8219Y0.4031
X6.1664Y-0.3523
X6.3902Y-0.2025
X1.9081Y-2.9905
X2.1734Y-2.9447
X6.9001Y-0.1964
X7.1238Y-0.0466
X0.6Y0.1
X0.85Y0.2
X10.6685Y-0.65
X10.9185Y-0.55
X8.1015Y-2.2413
X8.3252Y-2.0915
X2.3759Y-0.7897
X2.6412Y-0.7438
X10.5554Y-1.4
X10.8054Y-1.3
X8.5866Y-1.4
X8.8366Y-1.3
X4.2923Y-3.4973
X4.5576Y-3.4515
X-0.1264Y-0.65
X0.1236Y-0.55
X11.6292Y0.2875
X11.8792Y0.3875
X5.9006Y-2.7091
X6.1244Y-2.5593
X11.9616Y-1.2125
X12.2116Y-1.1125
X3.8431Y-1.1016
X4.1084Y-1.0557
X9.1917Y0.1
X9.4417Y0.2
X7.0285Y-1.7026
X7.2523Y-1.5528
X6.3317Y-3.3842
X6.5554Y-3.2344
X11.2116Y-3.0875
X11.4616Y-2.9875
X3.137Y-1.7182
X3.4023Y-1.6724
X1.8806Y-2.2179
X2.1459Y-2.1721
X10.6917Y0.1
X10.9417Y0.2
X5.9556Y-1.1639
X6.1793Y-1.0141
X9.9929Y-2.15
X10.2429Y-2.05
X2.6142Y-2.3739
X2.8795Y-2.328
X4.0814Y-2.6857
X4.3468Y-2.6399
X-0.15Y0.1
X0.1Y0.2
X7.4228Y-0.852
X7.6465Y-0.7022
T6
X0.1519Y-3.0
X11.7366Y-2.8125
X0.375Y-0.375
X2.9326Y0.4247
X7.6268Y-3.224
X2.4653Y-3.224
X11.5685Y-0.1875
X7.1596Y0.4247
T2
G00X4.9083Y0.4867
M15
G01X4.9083Y0.5143
M16
G05
G00X5.1839Y0.5143
M15
G01X5.1839Y0.4867
M16
G05
T0
M30
